<?xml version="1.0" encoding="utf-8"?>
<!-- Generator: Adobe Illustrator 16.0.0, SVG Export Plug-In . SVG Version: 6.00 Build 0)  -->
<!DOCTYPE svg PUBLIC "-//W3C//DTD SVG 1.1//EN" "http://www.w3.org/Graphics/SVG/1.1/DTD/svg11.dtd">
<svg version="1.1" id="Layer_1" xmlns="http://www.w3.org/2000/svg" xmlns:xlink="http://www.w3.org/1999/xlink" x="0px" y="0px"
	 width="320px" height="150px" viewBox="0 0 320 150" enable-background="new 0 0 320 150" xml:space="preserve">
<g>
	<path d="M235.609,93.815h6.459v3.437h0.148c1.717-2.771,4.676-4.105,7.553-4.105c7.211,0,9.034,4.061,9.034,10.188v15.203h-6.796
		v-13.966c0-4.069-1.195-6.067-4.346-6.067c-3.67,0-5.256,2.057-5.256,7.068v12.965h-6.797V93.815"/>
	<path d="M67.673,107.774c0,4.398-1.196,11.573-11.378,11.573c-5.695,0-11.236-3.114-11.236-10.579v-2.957h6.79v1.536
		c0,3.298,0.811,5.692,4.345,5.692c3.966,0,3.966-3.218,3.966-5.604V84.388h7.512V107.774"/>
	<path d="M186.954,110.497c0.036,2.973,2.534,4.165,5.204,4.165c1.965,0,4.451-0.764,4.451-3.152c0-2.063-2.824-2.771-7.695-3.827
		c-3.926-0.855-7.85-2.241-7.85-6.592c0-6.316,5.451-7.944,10.762-7.944c5.404,0,10.371,1.814,10.893,7.885h-6.453
		c-0.195-2.628-2.195-3.339-4.629-3.339c-1.533,0-3.777,0.278-3.777,2.294c0,2.437,3.818,2.773,7.69,3.68
		c3.972,0.905,7.838,2.35,7.838,6.932c0,6.5-5.636,8.596-11.277,8.596c-5.736,0-11.325-2.154-11.614-8.696H186.954"/>
	<path d="M218.886,93.146c7.79,0,12.811,5.165,12.811,13.053c0,7.838-5.021,12.994-12.811,12.994c-7.744,0-12.77-5.156-12.77-12.994
		C206.117,98.312,211.142,93.146,218.886,93.146 M218.886,114.091c4.641,0,6.02-3.973,6.02-7.892c0-3.972-1.379-7.936-6.02-7.93
		c-4.595,0-5.986,3.961-5.986,7.93C212.9,110.118,214.292,114.091,218.886,114.091z"/>
	<g>
		<g opacity="0.8">
			<defs>
				<path id="SVGID_1_" opacity="0.8" d="M328.267,124.688c-7.707-41.987-39.604-65.664-69.114-79.901
					c-39.527-17.777-75.206-20.353-103.652-19.274c-29.055,1.456-50.834,6.553-76.793,12.943
					C53.596,45.366,24.31,53.563,0.406,72.847c-1.966,3.857-3.718,7.705-5.198,11.585c21.376-20.316,50.97-29.534,77.231-36.945
					c27.148-6.936,50.976-12.041,81.103-13.376c29.558-0.969,65.107,2.119,103.462,19.757
					c26.812,13.231,54.103,34.801,63.101,70.823L328.267,124.688z"/>
			</defs>
			
				<linearGradient id="SVGID_2_" gradientUnits="userSpaceOnUse" x1="1475.2358" y1="-1072.5889" x2="1782.2722" y2="-960.8368" gradientTransform="matrix(1 0 0 1 -1458.1133 1096.8145)">
				<stop  offset="0" style="stop-color:#CCCDCE;stop-opacity:0"/>
				<stop  offset="0.0452" style="stop-color:#A6A7A8;stop-opacity:0.0822"/>
				<stop  offset="0.1061" style="stop-color:#7A7B7C;stop-opacity:0.1929"/>
				<stop  offset="0.1697" style="stop-color:#555556;stop-opacity:0.3086"/>
				<stop  offset="0.2354" style="stop-color:#363636;stop-opacity:0.4279"/>
				<stop  offset="0.3036" style="stop-color:#1E1E1E;stop-opacity:0.5521"/>
				<stop  offset="0.3756" style="stop-color:#0D0D0D;stop-opacity:0.6829"/>
				<stop  offset="0.4539" style="stop-color:#030303;stop-opacity:0.8252"/>
				<stop  offset="0.55" style="stop-color:#000000"/>
				<stop  offset="0.6104" style="stop-color:#030303;stop-opacity:0.8252"/>
				<stop  offset="0.6596" style="stop-color:#0D0D0D;stop-opacity:0.6829"/>
				<stop  offset="0.7048" style="stop-color:#1E1E1E;stop-opacity:0.5521"/>
				<stop  offset="0.7477" style="stop-color:#363636;stop-opacity:0.4279"/>
				<stop  offset="0.7889" style="stop-color:#555556;stop-opacity:0.3086"/>
				<stop  offset="0.8289" style="stop-color:#7A7B7C;stop-opacity:0.1929"/>
				<stop  offset="0.8672" style="stop-color:#A6A7A8;stop-opacity:0.0822"/>
				<stop  offset="0.8956" style="stop-color:#CCCDCE;stop-opacity:0"/>
			</linearGradient>
			<use xlink:href="#SVGID_1_"  overflow="visible" fill="url(#SVGID_2_)"/>
			<clipPath id="SVGID_3_">
				<use xlink:href="#SVGID_1_"  overflow="visible"/>
			</clipPath>
		</g>
		<g opacity="0.8">
			<defs>
				<path id="SVGID_4_" opacity="0.8" d="M320.429,124.667c-8.151-34.644-34.176-55.7-59.424-69.178
					c-38.142-19.029-74.668-22.543-104.504-22.013c-30.446,0.891-54.185,5.846-81.132,12.352C49.239,52.813,19.9,61.38-2.726,80.966
					c-1.652,3.833-3.049,7.702-4.191,11.559C12.95,71.936,42.307,62.356,69.349,54.842c27.865-7.054,53.41-12.041,84.755-12.858
					c30.784-0.436,67.356,3.295,104.327,22.161c22.543,12.319,43.215,29.688,53.314,60.534L320.429,124.667z"/>
			</defs>
			
				<linearGradient id="SVGID_5_" gradientUnits="userSpaceOnUse" x1="1472.8657" y1="-1064.3828" x2="1772.4294" y2="-955.3505" gradientTransform="matrix(1 0 0 1 -1458.1133 1096.8145)">
				<stop  offset="0" style="stop-color:#B3B3B5;stop-opacity:0"/>
				<stop  offset="0.0174" style="stop-color:#A6A6A8;stop-opacity:0.0218"/>
				<stop  offset="0.083" style="stop-color:#7A7A7C;stop-opacity:0.1036"/>
				<stop  offset="0.1515" style="stop-color:#555556;stop-opacity:0.1891"/>
				<stop  offset="0.2222" style="stop-color:#363636;stop-opacity:0.2772"/>
				<stop  offset="0.2957" style="stop-color:#1E1E1E;stop-opacity:0.3689"/>
				<stop  offset="0.3732" style="stop-color:#0D0D0D;stop-opacity:0.4657"/>
				<stop  offset="0.4575" style="stop-color:#030303;stop-opacity:0.5709"/>
				<stop  offset="0.561" style="stop-color:#000000;stop-opacity:0.7"/>
				<stop  offset="0.9176" style="stop-color:#B3B3B5;stop-opacity:0"/>
			</linearGradient>
			<use xlink:href="#SVGID_4_"  overflow="visible" fill="url(#SVGID_5_)"/>
			<clipPath id="SVGID_6_">
				<use xlink:href="#SVGID_4_"  overflow="visible"/>
			</clipPath>
		</g>
		<g opacity="0.8">
			<defs>
				<path id="SVGID_7_" opacity="0.8" d="M312.236,124.688c-8.311-27.978-29.173-46.264-50.224-58.708
					c-36.639-20.246-73.774-24.694-104.783-24.706c-31.624,0.352-57.115,5.147-84.85,11.754
					C45.403,60.137,16.165,69.034-5.094,88.913c-1.314,3.824-2.386,7.685-3.173,11.556C10.002,79.607,39.003,69.65,66.631,62.043
					c28.398-7.187,55.44-12.041,87.81-12.322c31.791,0.071,68.878,4.694,104.333,24.771c18.382,11.139,36.276,26.933,44.938,50.207
					L312.236,124.688z"/>
			</defs>
			
				<linearGradient id="SVGID_8_" gradientUnits="userSpaceOnUse" x1="1470.6714" y1="-1056.3999" x2="1762.3789" y2="-950.2271" gradientTransform="matrix(1 0 0 1 -1458.1133 1096.8145)">
				<stop  offset="0" style="stop-color:#999A9D;stop-opacity:0"/>
				<stop  offset="0.0536" style="stop-color:#78797B;stop-opacity:0.0293"/>
				<stop  offset="0.1239" style="stop-color:#535455;stop-opacity:0.0676"/>
				<stop  offset="0.1974" style="stop-color:#353536;stop-opacity:0.1077"/>
				<stop  offset="0.2739" style="stop-color:#1E1E1E;stop-opacity:0.1494"/>
				<stop  offset="0.3546" style="stop-color:#0D0D0D;stop-opacity:0.1934"/>
				<stop  offset="0.4423" style="stop-color:#030303;stop-opacity:0.2412"/>
				<stop  offset="0.55" style="stop-color:#000000;stop-opacity:0.3"/>
				<stop  offset="0.6263" style="stop-color:#030303;stop-opacity:0.2412"/>
				<stop  offset="0.6884" style="stop-color:#0D0D0D;stop-opacity:0.1934"/>
				<stop  offset="0.7455" style="stop-color:#1E1E1E;stop-opacity:0.1494"/>
				<stop  offset="0.7997" style="stop-color:#353536;stop-opacity:0.1077"/>
				<stop  offset="0.8518" style="stop-color:#535455;stop-opacity:0.0676"/>
				<stop  offset="0.9016" style="stop-color:#78797B;stop-opacity:0.0293"/>
				<stop  offset="0.9396" style="stop-color:#999A9D;stop-opacity:0"/>
			</linearGradient>
			<use xlink:href="#SVGID_7_"  overflow="visible" fill="url(#SVGID_8_)"/>
			<clipPath id="SVGID_9_">
				<use xlink:href="#SVGID_7_"  overflow="visible"/>
			</clipPath>
		</g>
		<path d="M72.788,101.419c0.373-6.363,6.068-8.272,11.615-8.272c4.931,0,10.851,1.101,10.851,7.029v12.864
			c0,2.247,0.243,4.49,0.864,5.497h-6.897c-0.23-0.776-0.42-1.575-0.467-2.404c-2.161,2.262-5.304,3.061-8.318,3.061
			c-4.688,0-8.412-2.335-8.412-7.402c0-5.592,4.209-6.924,8.412-7.51c4.162-0.615,8.028-0.471,8.028-3.25
			c0-2.912-2.001-3.339-4.393-3.339c-2.587,0-4.257,1.048-4.5,3.727H72.788 M88.464,106.439c-1.143,0.997-3.534,1.051-5.636,1.438
			c-2.108,0.423-4.02,1.14-4.02,3.632c0,2.527,1.966,3.152,4.156,3.152c5.316,0,5.5-4.212,5.5-5.692V106.439z"/>
		<path d="M100.221,93.815h6.405v3.356h0.101c1.77-2.546,4.351-4.025,7.56-4.025c3.102,0,5.873,1.154,7.21,4.105
			c1.438-2.144,4.02-4.105,7.453-4.105c5.269,0,9.034,2.43,9.034,8.844v16.547h-6.791v-14.019c0-3.286-0.278-6.015-4.144-6.015
			c-3.83,0-4.546,3.146-4.546,6.263v13.771h-6.79v-13.859c0-2.871,0.195-6.174-4.103-6.174c-1.35,0-4.594,0.858-4.594,5.688v14.345
			h-6.796V93.815"/>
		<rect x="143.063" y="92.312" width="6.778" height="26.226"/>
		<path d="M160.32,107.818c0.189,4.313,2.297,6.272,6.08,6.272c2.723,0,4.92-1.688,5.346-3.215h5.973
			c-1.906,5.837-5.973,8.317-11.573,8.317c-7.779,0-12.615-5.346-12.615-12.994c0-7.411,5.121-13.053,12.615-13.053
			c8.431,0,12.485,7.068,12.012,14.672H160.32 M171.361,103.518c-0.615-3.439-2.102-5.248-5.399-5.248
			c-4.304,0-5.553,3.336-5.642,5.248H171.361z"/>
		<path d="M161.747,69.254c-0.195-1.309-1.06,0-1.237,0.26c-2.131,1.851-6.559,0.714-11.473,1.013c0,0-3.919,0.175-6.559,1.438
			c-8.661,3.67-5.73,11.254-5.73,11.254c0,0.485-0.574,1.027-0.9,1.249c-2.25,1.519-2.966,3.842-2.966,3.842h1.077
			c1.747-4.002,3.848-3.528,3.848-3.528c3.901,4.493,13.391,4.677,18.873-2.498C162.137,75.126,161.913,70.556,161.747,69.254
			 M159.615,71.982c-1.45,1.469-3.048,3.108-4.528,4.053c-1.107,0.707-2.392,1.228-3.623,1.536
			c-2.321,0.592-4.955,0.633-6.767,1.216c-1.876,0.587-4.209,1.638-5.766,3.235c-0.047,0-0.095-0.018-0.136-0.018
			c-0.047,0-0.047-0.032-0.047-0.08c1.42-1.979,3.421-3.016,5.517-3.898c2.38-0.956,4.878-0.669,7.335-1.414
			c1.415-0.427,2.824-1.075,4.079-1.794c1.433-0.858,2.504-1.995,3.901-2.937C159.58,71.882,159.663,71.936,159.615,71.982z"/>
	</g>
	<g>
		<path d="M261.266,94.789h-1.302v-0.806h3.551v0.806h-1.302v3.522h-0.947V94.789z"/>
		<path d="M264.013,93.983h1.332l1.012,2.97h0.012l0.959-2.97h1.344v4.328h-0.899v-3.072h-0.006l-1.065,3.072h-0.729l-1.06-3.034
			h-0.018v3.034h-0.882V93.983z"/>
	</g>
</g>
</svg>
