<?xml version="1.0" encoding="utf-8"?>
<!-- Generator: Adobe Illustrator 15.0.0, SVG Export Plug-In . SVG Version: 6.00 Build 0)  -->
<!DOCTYPE svg PUBLIC "-//W3C//DTD SVG 1.1//EN" "http://www.w3.org/Graphics/SVG/1.1/DTD/svg11.dtd">
<svg version="1.1" id="Layer_1" xmlns="http://www.w3.org/2000/svg" xmlns:xlink="http://www.w3.org/1999/xlink" x="0px" y="0px"
	 width="170px" height="100px" viewBox="75 0 170 100" enable-background="new 75 0 170 100" xml:space="preserve">
<g>
	<g>
		<g>
			<path d="M152.606,43.748c-0.345,0.862-2.244,6.11-2.417,6.836c-0.035,0.241-0.104,0.587-0.104,0.76
				c0,0.483,0.415,0.759,1.174,0.759h1.623c0.242,0,0.345,0.069,0.345,0.242v0.795c0,0.241-0.104,0.312-0.276,0.312
				c-0.482,0-1.898-0.104-3.936-0.104c-2.52,0-3.28,0.104-3.763,0.104c-0.173,0-0.241-0.07-0.241-0.277v-0.829
				c0-0.173,0.137-0.242,0.276-0.242h1.208c1.036,0,1.519-0.483,2.002-1.588c0.242-0.551,2.763-6.939,3.763-9.77
				c0.242-0.69,3.039-8.114,3.349-9.046c0.104-0.345,0.276-0.794,0.035-1.174c-0.103-0.138-0.241-0.311-0.241-0.449
				c0-0.104,0.069-0.241,0.311-0.31c0.966-0.208,2.486-1.243,2.866-1.727c0.172-0.172,0.276-0.31,0.449-0.31
				c0.207,0,0.276,0.207,0.38,0.586c0.656,2.175,3.349,9.909,4.005,12.119c0.795,2.692,3.038,9.116,3.522,10.117
				c0.585,1.14,1.484,1.553,2.348,1.553h1.139c0.206,0,0.276,0.104,0.276,0.242v0.863c0,0.173-0.104,0.243-0.345,0.243
				c-0.623,0-1.348-0.104-4.144-0.104c-2.865,0-4.074,0.104-4.868,0.104c-0.173,0-0.277-0.104-0.277-0.312v-0.795
				c0-0.206,0.104-0.242,0.312-0.242h0.862c0.967,0,1.278-0.345,1.035-1.312c-0.275-1.242-1.691-5.662-2.174-7.043L152.606,43.748
				L152.606,43.748z M160.686,42.505c-0.311-1.036-3.108-9.667-3.281-10.185c-0.104-0.241-0.172-0.483-0.276-0.483
				c-0.138,0-0.276,0.242-0.379,0.518c-0.172,0.449-3.453,9.287-3.694,10.151H160.686z"/>
			<path d="M174.047,44.162c0-1.761-0.276-2.106-1.241-2.624l-0.657-0.345c-0.207-0.069-0.276-0.104-0.276-0.242v-0.207
				c0-0.139,0.069-0.208,0.276-0.311l3.418-1.761c0.208-0.104,0.346-0.138,0.484-0.138c0.207,0,0.241,0.207,0.241,0.415l0.172,2.382
				h0.139c1.035-1.588,2.658-3.003,4.144-3.003c1.173,0,1.761,0.725,1.761,1.518c0,1.002-0.829,1.692-1.45,1.692
				c-0.38,0-0.725-0.137-1.001-0.275c-0.276-0.173-0.69-0.277-1.14-0.277c-0.553,0-1.449,0.345-2.037,1.45
				c-0.207,0.379-0.346,1.001-0.346,1.104v7.25c0,1.072,0.241,1.416,0.967,1.416h1.623c0.207,0,0.242,0.105,0.242,0.312v0.622
				c0,0.207-0.035,0.312-0.173,0.312c-0.208,0-1.796-0.104-3.659-0.104c-2.141,0-3.592,0.104-3.799,0.104
				c-0.138,0-0.206-0.07-0.206-0.346v-0.588c0-0.241,0.067-0.312,0.378-0.312h1.348c0.518,0,0.759-0.206,0.759-0.654
				c0.035-1.141,0.035-2.349,0.035-4.144L174.047,44.162L174.047,44.162z"/>
			<path d="M185.303,34.737c0-2.313-0.38-2.797-1.622-3.211l-0.346-0.104c-0.381-0.104-0.448-0.173-0.448-0.276V30.87
				c0-0.104,0.067-0.173,0.276-0.276c1-0.45,2.796-1.347,3.658-1.899c0.241-0.172,0.518-0.31,0.726-0.31
				c0.242,0,0.31,0.172,0.275,0.586c-0.033,0.276-0.033,4.212-0.033,7.286v4.005c1.105-1.07,3.072-1.727,4.764-1.727
				c3.038,0,6.318,2.452,6.318,7.388c0,4.041-3.246,7.839-7.182,7.839c-1.934,0-3.28-0.415-4.074-0.897l-1.381,0.759
				c-0.138,0.104-0.241,0.139-0.449,0.104l-0.413-0.104c-0.138-0.034-0.173-0.104-0.138-0.276c0.068-0.482,0.068-3.35,0.068-5.87
				V34.737L185.303,34.737z M187.789,45.923c0,2.866,0.104,3.902,0.519,5.006c0.343,0.829,1.794,1.728,3.279,1.728
				c2.07,0,4.626-1.415,4.626-5.939c0-3.349-1.761-6.526-5.144-6.526c-1.278,0-2.521,0.449-3.28,1.244V45.923z"/>
			<path d="M203.325,51.379c-1.587-1.9-1.899-3.177-1.899-5.629c0-1.76,0.934-3.97,2.97-5.559c1.797-1.381,3.487-1.657,4.627-1.657
				c1.898,0,3.798,0.967,4.834,2.002c1.553,1.588,2.348,3.384,2.348,5.628c0,3.763-3.383,7.597-7.63,7.597
				C206.917,53.762,204.775,53.105,203.325,51.379z M213.304,45.82c0-3.833-2.796-6.25-4.558-6.25c-0.932,0-1.829,0.208-2.658,1.105
				c-1.347,1.381-1.828,2.797-1.828,5.42c0,1.935,0.206,3.245,1.311,4.833c0.794,1.14,1.796,1.796,3.418,1.796
				C211.612,52.725,213.304,49.514,213.304,45.82z"/>
			<path d="M220.762,44.162c0-1.761-0.276-2.106-1.242-2.624l-0.657-0.345c-0.206-0.069-0.275-0.104-0.275-0.242v-0.207
				c0-0.139,0.069-0.208,0.275-0.311l3.417-1.761c0.21-0.104,0.348-0.138,0.485-0.138c0.206,0,0.241,0.207,0.241,0.415l0.172,2.382
				h0.14c1.034-1.588,2.657-3.003,4.142-3.003c1.174,0,1.762,0.725,1.762,1.518c0,1.002-0.829,1.692-1.449,1.692
				c-0.381,0-0.725-0.137-1.002-0.275c-0.276-0.173-0.691-0.277-1.141-0.277c-0.552,0-1.449,0.345-2.036,1.45
				c-0.208,0.379-0.346,1.001-0.346,1.104v7.25c0,1.072,0.242,1.416,0.966,1.416h1.623c0.207,0,0.242,0.105,0.242,0.312v0.622
				c0,0.207-0.035,0.312-0.172,0.312c-0.208,0-1.796-0.104-3.661-0.104c-2.141,0-3.589,0.104-3.797,0.104
				c-0.139,0-0.208-0.07-0.208-0.346v-0.588c0-0.241,0.068-0.312,0.381-0.312h1.346c0.518,0,0.76-0.206,0.76-0.654
				c0.034-1.141,0.034-2.349,0.034-4.144L220.762,44.162L220.762,44.162z"/>
		</g>
		<g>
			<path d="M153.246,58.557h1.665l4.518,11.417h0.037l4.409-11.417h1.721v13.081h-1.188V60.24h-0.039c0,0-0.346,1.044-0.619,1.774
				l-3.789,9.623h-1.079l-3.823-9.623c-0.274-0.677-0.641-1.774-0.641-1.774h-0.037v11.397h-1.134V58.557L153.246,58.557z"/>
			<path d="M167.221,66.919c0-2.836,1.701-4.959,4.318-4.959c3.036,0,4.079,2.507,4.062,5.158h-7.209
				c0.055,2.123,1.08,3.788,3.238,3.788c1.573,0,2.396-0.842,2.763-2.122h1.097c-0.402,1.866-1.736,3.092-3.859,3.092
				C168.794,71.876,167.221,69.754,167.221,66.919z M174.409,66.224c-0.054-1.866-0.932-3.331-2.871-3.331
				c-1.922,0-2.927,1.445-3.13,3.331H174.409z"/>
			<path d="M177.008,62.181h1.134v1.427h0.035c0.604-0.952,1.521-1.629,2.873-1.629c1.152,0,2.141,0.586,2.525,1.72h0.036
				c0.622-1.08,1.701-1.72,3.037-1.72c1.61,0,2.854,1.043,2.854,2.945v6.714h-1.116v-6.622c0-1.408-0.841-2.066-1.993-2.066
				c-1.39,0-2.562,0.987-2.562,2.67v6.019h-1.133v-6.622c0-1.408-0.808-2.066-1.903-2.066c-1.354,0-2.653,1.134-2.653,2.67v6.019
				h-1.134V62.181L177.008,62.181z"/>
			<path d="M190.855,66.919c0-2.818,1.662-4.959,4.389-4.959s4.354,2.141,4.354,4.959c0,2.816-1.628,4.957-4.354,4.957
				S190.855,69.736,190.855,66.919z M198.447,66.919c0-2.215-1.099-4.007-3.203-4.007c-2.121,0-3.22,1.792-3.22,4.007
				c0,2.214,1.099,4.006,3.22,4.006C197.349,70.925,198.447,69.133,198.447,66.919z"/>
			<path d="M201.024,62.181h1.134v1.755h0.037c0.585-1.097,1.573-1.829,2.891-1.829c0.146,0,0.237,0.019,0.312,0.037v1.115
				c-0.679-0.109-1.428,0.037-2.016,0.458c-0.729,0.549-1.225,1.427-1.225,2.543v5.378h-1.134V62.181L201.024,62.181z"/>
			<path d="M206.693,58.557h1.136v1.609h-1.136V58.557z M206.693,62.181h1.136v9.457h-1.136V62.181z"/>
			<path d="M209.219,69.224c0-2.25,1.758-2.707,3.897-2.964c1.866-0.22,2.543-0.329,2.543-1.28v-0.184
				c0-1.279-0.806-1.903-2.269-1.903c-1.683,0-2.562,0.697-2.653,2.105h-1.115c0.128-1.83,1.336-3.02,3.769-3.02
				c2.066,0,3.348,0.86,3.348,2.928v5.141c0,0.567,0.22,0.805,0.622,0.824c0.128,0,0.256-0.038,0.42-0.074h0.056v0.823
				c-0.164,0.073-0.402,0.146-0.768,0.146c-0.824,0-1.336-0.421-1.391-1.336v-0.2h-0.056c-0.53,0.749-1.5,1.627-3.311,1.627
				C210.555,71.858,209.219,70.98,209.219,69.224z M215.678,68.218v-1.701c-0.604,0.329-1.536,0.493-2.451,0.622
				c-1.593,0.22-2.819,0.457-2.819,2.085c0,1.318,0.989,1.72,2.104,1.72C214.58,70.944,215.678,69.516,215.678,68.218z"/>
			<path d="M218.933,58.557h1.134v13.081h-1.134V58.557z"/>
		</g>
	</g>
	<g>
		<path d="M137.354,40.543c-1.225-2.886-2.978-5.476-5.207-7.699c-2.229-2.225-4.825-3.969-7.714-5.187
			c-2.991-1.261-6.168-1.897-9.442-1.894c-3.272,0.005-6.447,0.65-9.436,1.919c-2.885,1.226-5.476,2.978-7.7,5.208
			c-2.223,2.23-3.969,4.825-5.185,7.714c-1.261,2.99-1.897,6.168-1.893,9.441s0.65,6.447,1.918,9.436
			c1.225,2.884,2.978,5.477,5.207,7.698c2.23,2.225,4.825,3.969,7.713,5.187c2.992,1.261,6.168,1.897,9.441,1.894
			c3.273-0.006,6.448-0.649,9.436-1.919c2.886-1.226,5.476-2.979,7.7-5.208c2.224-2.228,3.968-4.824,5.185-7.712
			c1.262-2.993,1.898-6.168,1.893-9.442C139.269,46.705,138.623,43.531,137.354,40.543z"/>
		<circle fill="#FFFFFF" cx="115.026" cy="50.01" r="23.219"/>
		<g>
			<path d="M116.139,59.983c0,0.149,0.086,0.184,0.19,0.079l0.579-0.578c0.104-0.105,0.19-0.312,0.19-0.461l0-0.654
				c0-0.147,0.121-0.27,0.268-0.27l0.333-0.001c0.148,0,0.269-0.121,0.269-0.27v-0.241c0-0.149,0.084-0.355,0.189-0.46l0.215-0.216
				c0.105-0.104,0.19-0.312,0.19-0.46l-0.001-0.196c0-0.148-0.066-0.336-0.149-0.418c-0.082-0.082-0.087-0.21-0.011-0.286
				c0.076-0.075,0.138-0.227,0.137-0.333c0-0.107-0.121-0.194-0.27-0.194l-0.541,0.001c-0.149,0-0.355-0.086-0.46-0.19l-0.779-0.777
				c-0.105-0.104-0.19-0.188-0.19-0.184c0,0.003-0.066,0.072-0.146,0.152c-0.08,0.08-0.146,0.267-0.146,0.415v0.04
				c0,0.148-0.054,0.323-0.119,0.39c-0.064,0.065-0.118,0.24-0.118,0.389l0.001,1.061c0,0.147,0,0.372,0,0.498
				c0,0.126,0.083,0.311,0.182,0.409c0.1,0.101,0.181,0.303,0.181,0.451L116.139,59.983z"/>
			<path d="M118.95,57.681h0.377c0.148-0.001,0.355-0.087,0.459-0.191l0.304-0.304c0.104-0.105,0.312-0.191,0.46-0.192H121
				c0.148,0,0.27,0.092,0.27,0.206s0.122,0.207,0.27,0.207h0.195c0.148,0,0.342-0.073,0.429-0.162
				c0.088-0.089,0.282-0.162,0.43-0.162h0.884c0.148-0.001,0.39-0.001,0.539-0.002l0.837-0.001c0.149,0,0.184-0.086,0.079-0.19
				l-0.193-0.191c-0.105-0.105-0.191-0.3-0.191-0.431c-0.001-0.133-0.086-0.155-0.191-0.051l-0.272,0.274
				c-0.104,0.104-0.286,0.19-0.402,0.19c-0.117,0-0.258,0.047-0.313,0.102c-0.055,0.054-0.186,0.013-0.291-0.091l-0.475-0.473
				c-0.104-0.104-0.312-0.19-0.459-0.19l-0.334,0.001c-0.148,0-0.27-0.071-0.27-0.16c0-0.088-0.103-0.161-0.229-0.16
				c-0.125,0-0.229-0.113-0.229-0.253c0-0.138-0.104-0.252-0.23-0.251c-0.127,0-0.315,0.086-0.419,0.19l-0.375,0.376
				c-0.105,0.104-0.19,0.312-0.19,0.455c0,0.145-0.085,0.35-0.189,0.455l-0.809,0.811C118.767,57.595,118.802,57.682,118.95,57.681z
				"/>
			<path d="M111.938,44.804c-0.148,0-0.33,0.093-0.403,0.208c-0.074,0.114-0.048,0.292,0.057,0.398l1.058,1.054
				c0.105,0.106,0.276,0.106,0.381,0l0.058-0.059c0.106-0.104,0.268-0.189,0.362-0.19c0.093,0,0.17,0.123,0.17,0.27l0.001,0.583
				c0,0.147,0.121,0.269,0.27,0.269l0.192-0.001c0.148,0,0.269-0.121,0.269-0.269l-0.002-1.752c0-0.149-0.122-0.27-0.27-0.27
				l-0.437,0.001c-0.148,0-0.355,0.086-0.459,0.19l-0.448,0.448c-0.104,0.104-0.272,0.191-0.373,0.191s-0.183-0.061-0.183-0.134
				c0-0.073,0.06-0.195,0.134-0.269c0.074-0.073,0.133-0.255,0.133-0.402s-0.122-0.268-0.27-0.268L111.938,44.804L111.938,44.804z"
				/>
			<path d="M112.62,44.414h0.388c0.147,0,0.39-0.001,0.538-0.001c0.147-0.001,0.268-0.121,0.268-0.27v-0.095
				c0-0.147-0.078-0.269-0.171-0.269c-0.093,0-0.249-0.092-0.344-0.206l-0.189-0.221c-0.096-0.113-0.174-0.085-0.174,0.062
				c0,0.147-0.121,0.27-0.269,0.27h-0.047c-0.147,0-0.269,0.121-0.269,0.27v0.191C112.35,44.294,112.472,44.414,112.62,44.414z"/>
			<path d="M113.848,37.875c-0.104-0.105-0.2-0.069-0.212,0.078l-0.004,0.049c-0.011,0.148,0.064,0.354,0.169,0.458l0.4,0.399
				c0.105,0.104,0.19,0.069,0.19-0.079v-0.096c0-0.147-0.086-0.355-0.191-0.459L113.848,37.875z"/>
			<path d="M111.003,50.608c0.103,0.106,0.263,0.193,0.356,0.193c0.094,0,0.171-0.121,0.17-0.269v-0.047
				c0-0.148-0.085-0.354-0.19-0.459l-0.107-0.107c-0.104-0.104-0.268-0.19-0.362-0.19c-0.093,0-0.17,0.12-0.17,0.269v0.022
				c0,0.147,0.084,0.356,0.186,0.464L111.003,50.608z"/>
			<path d="M113.432,51.213c0,0.148,0.055,0.268,0.123,0.268c0.067,0,0.121-0.121,0.121-0.269v-0.338
				c0-0.149-0.086-0.356-0.191-0.46l-0.498-0.496c-0.104-0.105-0.3-0.168-0.434-0.142c-0.134,0.028-0.157,0.135-0.053,0.24
				l0.742,0.739C113.346,50.859,113.432,51.065,113.432,51.213z"/>
			<path d="M116.448,37.361c-0.139,0-0.253-0.121-0.253-0.269l-0.001-0.929c0-0.148-0.122-0.27-0.271-0.27h-0.058
				c-0.147,0-0.269,0.123-0.268,0.271l0,1.067c0.001,0.147,0.001,0.353,0.001,0.453c0,0.102,0.09,0.184,0.201,0.183
				c0.11,0,0.187,0.12,0.168,0.265c-0.017,0.146,0.085,0.264,0.228,0.263c0.142,0,0.259-0.046,0.259-0.103
				c0-0.057,0.121-0.104,0.269-0.104l0.032-0.001c0.148,0,0.27,0.06,0.27,0.13c0,0.072,0.111,0.13,0.246,0.13
				c0.136,0,0.246-0.076,0.246-0.169c0-0.093-0.009-0.461-0.211-0.579c-0.086-0.05-0.441-0.133-0.572-0.133
				c-0.13,0.001-0.192-0.045-0.136-0.103C116.655,37.406,116.587,37.361,116.448,37.361z"/>
			<path d="M119.284,55.438c-0.105,0.104-0.191,0.312-0.191,0.458c0,0.146,0.087,0.181,0.191,0.076l0.689-0.691
				c0.105-0.105,0.19-0.312,0.19-0.46v-0.144c0-0.148,0.121-0.27,0.268-0.271h0.34c0.148,0,0.269-0.121,0.269-0.27l0-0.24
				c0-0.149,0-0.336,0-0.416c0-0.081-0.122-0.146-0.269-0.146l-0.583,0.001c-0.148,0-0.355,0.087-0.459,0.19l-0.399,0.399
				c-0.104,0.104-0.069,0.19,0.079,0.19h0.046c0.148-0.001,0.27,0.12,0.27,0.269v0.34c0,0.147-0.085,0.355-0.189,0.46
				L119.284,55.438z"/>
			<path d="M117.21,53.86l-0.018,0.035c-0.069,0.131-0.04,0.324,0.065,0.428l0.253,0.253c0.105,0.105,0.277,0.104,0.381,0
				l0.009-0.01c0.104-0.104,0.104-0.277,0-0.381l-0.375-0.373C117.421,53.706,117.28,53.73,117.21,53.86z"/>
			<path d="M122.976,55.861l0.01,0.033c0.035,0.12,0.167,0.223,0.294,0.226l0.307,0.005c0.127,0.003,0.231-0.099,0.235-0.226v-0.011
				c0.002-0.127-0.099-0.231-0.226-0.234l-0.453-0.01C123.015,55.642,122.941,55.74,122.976,55.861z"/>
			<path d="M110.624,52.019l0.562,0.577c0.104,0.105,0.102,0.278-0.002,0.383l-0.144,0.144c-0.104,0.104-0.068,0.19,0.08,0.19
				l0.729-0.002c0.148,0,0.346,0,0.439-0.001c0.094,0,0.292,0,0.44,0h0.168c0.148,0,0.184-0.086,0.079-0.19l-1.108-1.104
				c-0.104-0.105-0.312-0.19-0.46-0.19l-0.704,0.001C110.556,51.826,110.52,51.913,110.624,52.019z"/>
			<path d="M114.122,54.83c-0.082-0.082-0.235-0.062-0.339,0.042l-0.054,0.055c-0.105,0.105-0.312,0.19-0.46,0.191h-0.287
				c-0.149,0-0.355-0.084-0.46-0.189l-0.171-0.17c-0.104-0.105-0.276-0.105-0.381,0l-0.307,0.308
				c-0.105,0.105-0.19,0.312-0.19,0.461v0.012c0,0.148,0.122,0.271,0.27,0.27h0.046c0.148,0,0.27,0.12,0.27,0.268
				c0.001,0.148-0.085,0.355-0.19,0.461l-0.204,0.204c-0.105,0.105-0.311,0.191-0.459,0.191h-0.034c-0.148,0-0.355-0.085-0.46-0.19
				l-0.515-0.513c-0.105-0.104-0.19-0.241-0.19-0.305s0.121-0.113,0.269-0.113l0.288-0.001c0.147-0.001,0.184-0.087,0.078-0.191
				l-0.052-0.052c-0.105-0.105-0.13-0.19-0.055-0.19s0.221-0.085,0.326-0.19l0.118-0.12c0.105-0.104,0.075-0.19-0.065-0.19
				c-0.141,0.001-0.342-0.084-0.446-0.189l-0.327-0.324c-0.105-0.106-0.268-0.098-0.363,0.016l-0.159,0.19
				c-0.095,0.115-0.136,0.244-0.09,0.289c0.044,0.044-0.036,0.082-0.179,0.082s-0.261-0.082-0.261-0.185
				c0-0.1-0.121-0.182-0.27-0.181h-0.124c-0.149,0-0.354-0.086-0.46-0.191l-0.178-0.178c-0.104-0.104-0.263-0.26-0.349-0.349
				c-0.087-0.086-0.265-0.156-0.396-0.156c-0.13,0.001-0.293,0.042-0.36,0.093c-0.066,0.049-0.035,0.177,0.069,0.28l0.316,0.315
				c0.105,0.104,0.191,0.303,0.191,0.441c0,0.137,0.121,0.249,0.27,0.249h0.149c0.149,0,0.27,0.104,0.27,0.229
				s-0.103,0.229-0.229,0.229s-0.351,0.001-0.499,0.001h-0.104c-0.147,0-0.354,0.087-0.459,0.19l-0.169,0.171
				c-0.104,0.104-0.104,0.275,0,0.38l0.239,0.238c0.104,0.105,0.07,0.19-0.079,0.19l-0.631,0.001c-0.148,0-0.27,0.122-0.27,0.271
				l0,0.494c0,0.148-0.092,0.27-0.206,0.27c-0.114,0-0.293-0.085-0.398-0.19l-0.055-0.055c-0.104-0.104-0.312-0.19-0.46-0.189
				h-0.126c-0.149,0-0.318-0.049-0.378-0.108c-0.059-0.06-0.017-0.107,0.094-0.107c0.11-0.001,0.115-0.086,0.011-0.191l-0.181-0.178
				c-0.105-0.105-0.259-0.09-0.342,0.032l-0.079,0.115c-0.083,0.122-0.052,0.223,0.071,0.222c0.123,0,0.224,0.085,0.224,0.189
				c0,0.104,0.056,0.244,0.124,0.311s0.245,0.123,0.393,0.123h0.029c0.147-0.001,0.354,0.085,0.46,0.189l0.529,0.528
				c0.105,0.104,0.312,0.19,0.46,0.19h0.341c0.148-0.001,0.322-0.055,0.387-0.118c0.064-0.063,0.188-0.118,0.274-0.118
				c0.087-0.001,0.215,0.056,0.284,0.124c0.069,0.068,0.246,0.125,0.395,0.125l1.321-0.003c0.148,0,0.355-0.085,0.459-0.189
				l0.251-0.252c0.104-0.104,0.19-0.281,0.19-0.392c0-0.11-0.086-0.287-0.191-0.392l-0.027-0.026
				c-0.105-0.104-0.191-0.099-0.191,0.014c0,0.112-0.081,0.205-0.18,0.205c-0.1,0-0.181-0.122-0.182-0.27V57.23
				c0-0.148-0.052-0.271-0.115-0.271c-0.063,0-0.201,0.087-0.305,0.192l-0.192,0.192c-0.104,0.104-0.312,0.189-0.46,0.189
				l-0.492,0.001c-0.148,0-0.27-0.097-0.27-0.218c0-0.12,0.121-0.217,0.27-0.218h0.103c0.148,0,0.355-0.087,0.46-0.191l0.307-0.308
				c0.104-0.104,0.252-0.252,0.328-0.328c0.076-0.077,0.137-0.26,0.137-0.407v-0.241c-0.001-0.148,0.113-0.269,0.251-0.269
				c0.138,0,0.253,0.12,0.253,0.268l0.001,0.334c0,0.147,0.062,0.331,0.138,0.406c0.076,0.075,0.251,0.137,0.39,0.137
				c0.139,0,0.253,0.121,0.253,0.27l0.001,0.653c0,0.147,0.083,0.353,0.185,0.453c0.101,0.101,0.305,0.183,0.453,0.183l0.333-0.001
				c0.149,0,0.355-0.085,0.459-0.19l0.56-0.561c0.105-0.104,0.275-0.104,0.381,0l0.699,0.696c0.104,0.104,0.275,0.104,0.38,0
				l0.261-0.262c0.104-0.105,0.19-0.312,0.189-0.46l-0.003-2.032C114.271,55.1,114.205,54.912,114.122,54.83z"/>
			<path d="M120.673,52.155c-0.147,0.001-0.269,0.109-0.269,0.243c0,0.135,0.122,0.243,0.27,0.243l0.777-0.001
				c0.148,0,0.183-0.086,0.079-0.19l-0.107-0.104c-0.105-0.105-0.312-0.191-0.46-0.191L120.673,52.155z"/>
			<path d="M121.192,49.587c-0.098-0.098-0.292-0.179-0.431-0.179c-0.138,0.002-0.354-0.03-0.479-0.067
				c-0.125-0.037-0.228,0.045-0.228,0.184c0,0.138,0.051,0.251,0.114,0.251s0.115,0.113,0.115,0.253v0.363
				c0,0.14,0.113,0.253,0.251,0.252c0.138,0,0.251-0.103,0.251-0.229c0-0.126,0.113-0.229,0.251-0.229h0.135
				c0.139,0,0.252-0.083,0.252-0.184c0-0.1-0.08-0.263-0.178-0.361L121.192,49.587z"/>
			<path d="M125.975,56.842c-0.257,0-0.533,0.122-0.532,0.248c0,0.125,0.086,0.315,0.191,0.419l0.01,0.01
				c0.104,0.104,0.932-0.354,0.908-0.471C126.537,56.893,126.132,56.836,125.975,56.842z"/>
			<path d="M125.958,56.652c0.146,0.022,0.308-0.003,0.308-0.003c0.104-0.104,0.08-0.19-0.054-0.19
				c-0.134,0.001-0.244-0.12-0.245-0.269v-0.241c0-0.148,0.085-0.354,0.19-0.46l0.009-0.01c0.104-0.104,0.119-0.261,0.031-0.349
				c-0.087-0.087-0.235-0.081-0.328,0.013c-0.094,0.095-0.268,0.099-0.385,0.008l-0.181-0.137c-0.118-0.089-0.215-0.042-0.215,0.106
				l0.001,0.729c0,0.148,0.085,0.354,0.19,0.459C125.28,56.309,125.812,56.629,125.958,56.652z"/>
			<path d="M123.804,46.299l-0.177-0.176c-0.097-0.096-0.254-0.096-0.35,0l-0.388,0.388c-0.096,0.097-0.254,0.097-0.35,0
				l-0.706-0.702c-0.096-0.096-0.253-0.096-0.35,0l-0.366,0.368c-0.096,0.096-0.241,0.109-0.323,0.027
				c-0.081-0.081-0.069-0.226,0.027-0.323l0.219-0.218c0.096-0.096,0.063-0.176-0.073-0.176l-0.622,0.001
				c-0.136,0-0.248-0.11-0.248-0.247l-0.001-0.242c0-0.137-0.08-0.169-0.176-0.072l-0.408,0.409
				c-0.096,0.096-0.175,0.071-0.175-0.057c0-0.127-0.079-0.153-0.175-0.058l-0.072,0.073c-0.097,0.096-0.254,0.096-0.351,0.001
				l-0.473-0.473c-0.096-0.095-0.063-0.175,0.073-0.175l0.411,0c0.136,0,0.169-0.078,0.073-0.174l-0.251-0.251
				c-0.096-0.096-0.175-0.217-0.175-0.27c0-0.052-0.079-0.016-0.175,0.08l-1.083,1.086c-0.095,0.097-0.253,0.097-0.35,0l-0.041-0.04
				c-0.096-0.096-0.096-0.254,0-0.351l0.093-0.093c0.096-0.096,0.123-0.228,0.059-0.291c-0.063-0.063-0.195-0.037-0.291,0.061
				l-0.514,0.514c-0.096,0.097-0.174,0.287-0.174,0.423v0.095c0,0.136,0,0.359,0,0.496l0,0.222c0,0.137,0.076,0.248,0.169,0.248
				c0.093,0,0.168,0.11,0.169,0.247v0.477c0,0.135,0,0.358,0.001,0.494v0.35c0,0.136-0.078,0.327-0.174,0.422l-0.05,0.05
				c-0.096,0.097-0.175,0.287-0.175,0.424v0.329c0,0.136,0.001,0.359,0.001,0.496v0.302c0,0.135,0.08,0.326,0.176,0.421l0.177,0.177
				c0.097,0.096,0.176,0.143,0.176,0.104c0-0.04,0.078-0.15,0.174-0.247l0.725-0.728c0.096-0.096,0.063-0.175-0.073-0.175
				l-0.158,0.001c-0.136,0-0.248-0.1-0.248-0.222c0-0.121,0.079-0.299,0.174-0.397l0.114-0.114c0.095-0.097,0.286-0.176,0.422-0.176
				l0.475,0c0.137,0,0.327,0.078,0.423,0.174l0.199,0.199c0.097,0.096,0.271,0.175,0.386,0.175s0.29-0.079,0.385-0.176l0.472-0.474
				c0.096-0.096,0.096-0.253,0-0.35l-1.171-1.167c-0.096-0.097-0.208-0.27-0.223-0.379c-0.01-0.083-0.024-0.166,0.033-0.219
				c0.075-0.069,0.193,0,0.329,0l0.682-0.02c0.136-0.001,0.327,0.077,0.422,0.173l0.2,0.197c0.096,0.098,0.251,0.1,0.344,0.007
				c0.092-0.093,0.248-0.09,0.343,0.005l0.05,0.051c0.098,0.097,0.098,0.254,0.001,0.351l-0.114,0.114
				c-0.096,0.097-0.063,0.175,0.073,0.175h0.033c0.136-0.001,0.326-0.079,0.422-0.176l0.103-0.103
				c0.097-0.098,0.286-0.176,0.423-0.177l1.92-0.002c0.136,0,0.248-0.111,0.248-0.248v-0.042
				C123.979,46.585,123.9,46.395,123.804,46.299z"/>
			<path d="M128.931,33.365c-3.768-3.146-8.619-5.037-13.913-5.031c-11.973,0.017-21.666,9.735-21.65,21.709
				c0,0.009,0.001,0.019,0.001,0.029c0.029,11.199,8.55,20.395,19.458,21.504c0.083,0.009,0.167,0.019,0.252,0.026l0.019-0.269
				l0.489-6.81c0.011-0.146,0.021-0.39,0.021-0.536l0.038-4.033c0.001-0.147-0.095-0.342-0.214-0.43l-0.273-0.2
				c-0.119-0.087-0.217-0.271-0.217-0.408c0-0.137-0.049-0.298-0.109-0.357c-0.06-0.061-0.194-0.022-0.299,0.081l-0.112,0.112
				c-0.104,0.105-0.276,0.105-0.38,0.002l-0.01-0.011c-0.104-0.104-0.312-0.19-0.46-0.19l-0.172,0.001
				c-0.148,0-0.345,0.075-0.436,0.167c-0.091,0.093-0.266,0.167-0.389,0.167c-0.123,0-0.317-0.001-0.431,0
				c-0.114,0-0.292,0.085-0.397,0.191l-0.314,0.314c-0.105,0.104-0.311,0.189-0.459,0.189l-0.786,0.002
				c-0.148,0-0.354,0.087-0.459,0.191l-0.447,0.447c-0.104,0.104-0.237,0.238-0.293,0.294c-0.057,0.058-0.186,0.022-0.286-0.079
				c-0.101-0.099-0.268-0.095-0.373,0.01l-0.49,0.492c-0.104,0.105-0.312,0.191-0.459,0.191c0,0-0.385-0.059-0.493,0.001
				c-0.108,0.06-0.171,0.236-0.243,0.361c-0.072,0.123-0.095,0.107-0.19,0.078c-0.095-0.027-0.423-0.263-0.668-0.265
				c-0.247-0.004-0.54,0-0.54,0c-0.148,0-0.326,0.058-0.395,0.127s-0.219,0.127-0.332,0.127c-0.114,0-0.208,0.114-0.208,0.252
				c0,0.139,0.122,0.252,0.271,0.252h0.012c0.148,0,0.27,0.057,0.27,0.126c0,0.07-0.118,0.127-0.263,0.127s-0.35-0.085-0.455-0.19
				l-0.055-0.054c-0.104-0.105-0.191-0.312-0.191-0.46v-0.104c0-0.148,0.106-0.319,0.235-0.379c0.128-0.06,0.314-0.189,0.412-0.287
				c0.098-0.1,0.299-0.18,0.447-0.18h0.264c0.147,0,0.354,0.085,0.46,0.189l0.378,0.244c0.325,0.105,0.384-0.105,0.332-0.154
				c-0.08-0.077-0.136-0.206,0.033-0.235h0.62c0.148,0,0.354-0.087,0.459-0.191l0.795-0.795c0.104-0.105,0.276-0.105,0.381,0
				l0.002,0.002c0.105,0.104,0.276,0.104,0.381,0l0.169-0.171c0.104-0.104,0.068-0.189-0.079-0.189l-0.426,0.001
				c-0.148,0-0.355-0.085-0.459-0.189l-0.421-0.423c-0.105-0.105-0.276-0.105-0.38,0.001l-0.148,0.148
				c-0.104,0.104-0.311,0.189-0.459,0.19h-0.472c-0.147,0-0.355-0.084-0.459-0.189l-0.078-0.079c-0.105-0.104-0.277-0.104-0.381,0
				l-0.146,0.146c-0.104,0.105-0.285,0.236-0.293,0.296c-0.008,0.059,0.345,0.367,0.345,0.367c0.105,0.104-0.045,0.45-0.045,0.552
				c0,0.101-0.121,0.185-0.27,0.185h-0.792c-0.148,0-0.27,0.072-0.269,0.161c0,0.089-0.122,0.16-0.269,0.16l-0.54,0.001
				c-0.148,0.001-0.269,0.121-0.269,0.27v0.22c0,0.147-0.085,0.183-0.19,0.08l-0.101-0.103c-0.105-0.105-0.312-0.191-0.46-0.191
				l-0.057,0.002c-0.148,0-0.391,0-0.539,0l-0.379,0.002c-0.097,0-0.179,0.053-0.227,0.133c-0.025,0.04-0.042,0.086-0.042,0.136
				v0.013c0,0.148-0.051,0.269-0.114,0.269c-0.063,0.002-0.115-0.12-0.115-0.269l0-0.333c0-0.027,0.005-0.058,0.011-0.088
				c0.024-0.136,0.093-0.286,0.179-0.371l0.181-0.183c0.104-0.105,0.275-0.105,0.38-0.001l0.204,0.203
				c0.105,0.105,0.289,0.19,0.409,0.19c0.12,0,0.304-0.086,0.409-0.19l0.329-0.33c0.105-0.105,0.312-0.19,0.46-0.19l1.052-0.336
				c0.147,0,0.432-0.146,0.346-0.253c-0.085-0.106-0.792,0.001-0.792,0.001c-0.147,0-0.355-0.085-0.46-0.189l-0.124-0.124
				c-0.104-0.104-0.271-0.11-0.369-0.012c-0.099,0.1-0.179,0.114-0.179,0.033c-0.001-0.081-0.121-0.138-0.268-0.125l-0.073,0.006
				c-0.147,0.011-0.268,0.082-0.268,0.156c0,0.073,0.066,0.198,0.147,0.28c0.081,0.08,0.088,0.207,0.014,0.28
				c-0.073,0.073-0.196,0.072-0.271-0.004c-0.076-0.075-0.259-0.137-0.407-0.137l-0.219,0.001c-0.148,0-0.354-0.086-0.459-0.19
				l-0.021-0.021c-0.104-0.104-0.069-0.191,0.08-0.191l0.596-0.001c0.148,0,0.27-0.121,0.269-0.269V58.82
				c0-0.148,0.086-0.354,0.189-0.46l0.079-0.079c0.104-0.105,0.311-0.191,0.459-0.191h0.104c0.148,0,0.27-0.062,0.27-0.137
				c0-0.076,0.046-0.184,0.102-0.24c0.056-0.059,0.16-0.104,0.229-0.104c0.069,0,0.126-0.098,0.126-0.218s0.121-0.219,0.269-0.219
				l0.518-0.002c0.147,0,0.269-0.121,0.269-0.269l-0.001-0.472c0-0.147,0.121-0.269,0.27-0.269l0.379-0.001
				c0.148,0,0.269-0.113,0.269-0.252c0-0.138-0.122-0.251-0.27-0.251h-0.379c-0.148,0-0.181-0.052-0.072-0.116
				c0.109-0.062,0.315-0.115,0.459-0.116c0.144,0,0.26-0.121,0.26-0.269v-0.013c0-0.147-0.122-0.269-0.269-0.269h-0.15
				c-0.148,0.001-0.354-0.083-0.46-0.189l-0.262-0.261c-0.105-0.105-0.07-0.191,0.079-0.191h0.15c0.147,0,0.268-0.093,0.268-0.206
				c0-0.114,0.042-0.247,0.092-0.298c0.051-0.052,0.092,0.001,0.092,0.114s0.093,0.206,0.207,0.206c0.113,0,0.292-0.085,0.397-0.19
				l0.1-0.101c0.105-0.105,0.191-0.104,0.191,0.005c0,0.105,0.067,0.192,0.149,0.192s0.148-0.12,0.148-0.268v-0.196
				c-0.001-0.148,0.119-0.254,0.267-0.236l0.201,0.024c0.147,0.02,0.267,0.154,0.267,0.303v0.149c0,0.148,0.086,0.354,0.191,0.46
				l0.239,0.239c0.105,0.104,0.07,0.189-0.079,0.189l-0.173,0.001c-0.148,0-0.355-0.085-0.46-0.189l-0.021-0.021
				c-0.105-0.104-0.19-0.068-0.19,0.079l0,0.712c0,0.148,0.121,0.27,0.27,0.27h0.139c0.147,0,0.335-0.068,0.418-0.15
				c0.082-0.084,0.27-0.15,0.417-0.15h0.127c0.147,0,0.27,0.097,0.27,0.217s0.085,0.133,0.19,0.028l0.193-0.192
				c0.104-0.105,0.195-0.191,0.201-0.191c0.006,0,0.011-0.12,0.011-0.269v-0.22c0-0.147-0.122-0.269-0.271-0.268h-0.378
				c-0.148,0-0.27-0.12-0.27-0.269v-0.059c0-0.148,0.113-0.269,0.252-0.269c0.139-0.002,0.252-0.116,0.252-0.254
				s0.121-0.251,0.269-0.252h0.036c0.148,0,0.269-0.022,0.269-0.049s0.122-0.048,0.27-0.048h0.066
				c0.148-0.001,0.269-0.1,0.269-0.221s-0.122-0.22-0.27-0.22h-0.166c-0.148,0.001-0.355-0.085-0.46-0.189l-0.253-0.252
				c-0.105-0.105-0.105-0.277-0.001-0.382l0.399-0.4c0.105-0.104,0.276-0.104,0.381,0l0.055,0.055c0.105,0.104,0.312,0.19,0.46,0.19
				l0.746-0.001c0.149-0.001,0.27-0.039,0.27-0.084c0-0.046,0.056-0.083,0.125-0.083s0.039-0.086-0.066-0.19l-0.033-0.033
				c-0.105-0.104-0.233-0.189-0.284-0.189c-0.05,0-0.178-0.086-0.283-0.191l-0.002-0.003c-0.104-0.104-0.19-0.271-0.19-0.373
				c0-0.101,0.059-0.244,0.131-0.315c0.073-0.073,0.217-0.048,0.321,0.057c0.104,0.104,0.312,0.189,0.459,0.188h0.081
				c0.148,0,0.355-0.085,0.459-0.19l0.331-0.332c0.104-0.105,0.104-0.276-0.001-0.381l-0.239-0.239
				c-0.105-0.104-0.124-0.257-0.042-0.338c0.082-0.082,0.236-0.063,0.34,0.041l0.169,0.169c0.105,0.104,0.311,0.19,0.459,0.19
				l0.15,0c0.148,0,0.269-0.12,0.269-0.27v-0.01c0-0.149-0.086-0.356-0.191-0.461l-0.032-0.032
				c-0.105-0.104-0.312-0.189-0.459-0.189l-0.77,0c-0.148,0-0.269,0.098-0.269,0.218c0,0.121-0.085,0.304-0.19,0.409l-0.375,0.376
				c-0.105,0.105-0.276,0.105-0.381,0l-0.813-0.811c-0.105-0.104-0.088-0.19,0.039-0.19c0.126,0,0.229-0.093,0.229-0.207
				c0-0.113-0.122-0.206-0.27-0.206l-0.974,0.001c-0.148,0-0.27-0.121-0.27-0.269v-0.127c0-0.147-0.122-0.269-0.27-0.268h-0.128
				c-0.147,0-0.355,0.086-0.459,0.191l-0.078,0.077c-0.105,0.104-0.232,0.15-0.283,0.1c-0.051-0.051-0.007-0.178,0.098-0.282
				l0.102-0.103c0.105-0.105,0.312-0.191,0.46-0.191h0.333c0.148-0.001,0.331-0.062,0.406-0.138
				c0.076-0.077,0.259-0.139,0.407-0.139h0.196c0.148,0,0.355,0.085,0.46,0.19l0.422,0.422c0.104,0.105,0.257,0.123,0.339,0.041
				c0.082-0.082,0.211-0.087,0.286-0.011c0.076,0.074,0.221,0.138,0.321,0.136c0.101,0,0.256-0.072,0.344-0.161
				c0.088-0.088,0.281-0.16,0.429-0.161h0.333c0.148,0,0.27,0.113,0.27,0.252c0,0.14,0.122,0.253,0.27,0.253h0.151
				c0.147,0,0.355,0.084,0.459,0.19l0.491,0.489c0.105,0.104,0.312,0.189,0.46,0.189h0.012c0.148,0,0.331-0.063,0.407-0.139
				c0.076-0.075,0.259-0.137,0.407-0.138l0.608,0c0.149,0,0.271,0.12,0.271,0.27l0,0.379c0,0.149,0.085,0.355,0.19,0.459
				l0.629,0.626c0.105,0.105,0.191,0.069,0.191-0.079l-0.001-1.136c-0.001-0.148-0.087-0.354-0.191-0.458l-1.364-1.361
				c-0.104-0.104-0.311-0.189-0.46-0.189h-0.219c-0.148,0-0.355-0.085-0.46-0.19l-0.193-0.192c-0.104-0.105-0.312-0.19-0.459-0.19
				l-0.448,0.001c-0.148,0-0.27-0.067-0.27-0.15c0-0.081,0.077-0.227,0.172-0.322s0.173-0.292,0.173-0.441v-0.011
				c-0.001-0.148-0.087-0.354-0.192-0.459l-0.308-0.308c-0.105-0.104-0.105-0.276-0.001-0.379l0.124-0.125
				c0.105-0.105,0.105-0.276,0-0.381l-0.125-0.125c-0.104-0.104-0.252-0.189-0.328-0.189s-0.137,0.121-0.137,0.27v0.378
				c0,0.149-0.072,0.27-0.161,0.27s-0.247-0.085-0.352-0.19l-0.124-0.124c-0.105-0.104-0.19-0.069-0.19,0.08l0,0.459
				c0,0.147-0.121,0.269-0.269,0.27h-0.092c-0.148,0-0.321-0.051-0.384-0.114c-0.063-0.063-0.179-0.18-0.257-0.257
				c-0.079-0.079-0.022-0.143,0.126-0.143h0.081c0.147-0.001,0.184-0.086,0.078-0.191l-0.192-0.191
				c-0.105-0.105-0.312-0.19-0.46-0.19h-0.104c-0.148,0-0.27-0.121-0.27-0.269v-0.38c0-0.148,0.121-0.27,0.269-0.27h0.149
				c0.148,0,0.27-0.121,0.269-0.27v-0.058c0-0.148-0.122-0.269-0.27-0.269h-0.47c-0.148,0.001-0.27,0.122-0.27,0.271l0.001,0.379
				c0,0.146-0.092,0.269-0.206,0.269c-0.114,0-0.206,0.122-0.206,0.271v0.194c0,0.148-0.073,0.269-0.161,0.269
				s-0.246,0.087-0.351,0.191l-0.033,0.033c-0.104,0.104-0.092,0.189,0.028,0.189c0.119,0,0.219,0.122,0.219,0.27v0.036
				c0,0.148-0.086,0.354-0.19,0.46l-0.009,0.009c-0.104,0.105-0.276,0.105-0.381,0.001l-0.4-0.399
				c-0.104-0.104-0.252-0.128-0.328-0.053c-0.076,0.076-0.081,0.195-0.011,0.264c0.07,0.07,0.041,0.212-0.063,0.318l-0.054,0.055
				c-0.105,0.105-0.104,0.276,0,0.38l0.33,0.33c0.104,0.105,0.105,0.276,0,0.381l-0.399,0.4c-0.104,0.105-0.275,0.105-0.38,0
				l-0.424-0.421c-0.104-0.104-0.191-0.31-0.191-0.459v-0.012c0-0.148-0.122-0.27-0.27-0.269l-0.93,0.001
				c-0.147,0-0.183-0.085-0.078-0.19l0.306-0.308c0.104-0.106,0.19-0.254,0.19-0.329c0-0.076-0.121-0.138-0.27-0.137h-0.288
				c-0.148,0-0.27-0.083-0.27-0.183c0-0.101,0.122-0.184,0.27-0.185l1.021-0.001c0.148,0,0.269-0.103,0.269-0.229
				c0-0.126,0.072-0.229,0.161-0.229c0.088,0,0.161,0.062,0.161,0.137c0,0.075,0.086,0.052,0.191-0.054l0.352-0.354
				c0.104-0.105,0.312-0.19,0.459-0.191h0.104c0.148,0,0.269-0.121,0.269-0.269l0-0.288c0-0.148,0.085-0.354,0.19-0.459l0.672-0.674
				c0.104-0.105,0.311-0.19,0.457-0.191c0.147,0,0.267-0.052,0.267-0.115c0-0.064,0.121-0.116,0.269-0.117l0.582-0.001
				c0.148,0,0.27-0.081,0.27-0.183c0-0.1,0.084-0.27,0.189-0.374l0.307-0.308c0.105-0.105,0.276-0.105,0.381,0l0.239,0.239
				c0.105,0.104,0.145,0.236,0.088,0.293c-0.056,0.056-0.175,0.103-0.264,0.103c-0.089,0-0.075,0.085,0.03,0.19l0.491,0.491
				c0.105,0.104,0.191,0.272,0.191,0.373c0.001,0.101-0.051,0.236-0.115,0.299c-0.062,0.064-0.208,0.114-0.321,0.116
				c-0.114,0-0.269-0.062-0.345-0.138c-0.075-0.076-0.224-0.052-0.328,0.053l-0.169,0.17c-0.104,0.105-0.19,0.312-0.19,0.46v0.035
				c0,0.149,0.122,0.269,0.27,0.269h0.036c0.148,0,0.355-0.085,0.459-0.19l0.101-0.101c0.104-0.105,0.312-0.19,0.459-0.191h0.839
				c0.148,0,0.269-0.115,0.269-0.253c0-0.139,0.085-0.167,0.19-0.063l0.17,0.169c0.105,0.105,0.253,0.191,0.329,0.191
				s0.137-0.083,0.137-0.183c0-0.102,0.085-0.271,0.19-0.375l0.077-0.078c0.105-0.105,0.19-0.312,0.19-0.46V41.78
				c0-0.147,0.109-0.269,0.243-0.269c0.134,0,0.243,0.065,0.243,0.146s0.077,0.224,0.169,0.316c0.094,0.093,0.292,0.17,0.44,0.169
				l0.508-0.001c0.148,0,0.355-0.086,0.459-0.19l0.16-0.162c0.105-0.104,0.19-0.312,0.19-0.459l-0.001-0.809
				c0-0.148-0.086-0.183-0.19-0.079l-0.656,0.658c-0.105,0.105-0.311,0.19-0.46,0.19l-0.024,0.001c-0.147,0-0.317-0.049-0.377-0.108
				c-0.061-0.06-0.229-0.109-0.373-0.108c-0.145,0-0.332-0.067-0.414-0.15c-0.082-0.083-0.21-0.148-0.286-0.148
				c-0.076,0-0.138,0.121-0.138,0.269l0.001,0.563c0,0.147-0.062,0.269-0.137,0.269c-0.076,0-0.21-0.072-0.299-0.16
				c-0.088-0.088-0.244-0.078-0.345,0.023c-0.1,0.101-0.281,0.183-0.401,0.183s-0.219-0.121-0.219-0.269v-0.355
				c0-0.149-0.087-0.355-0.191-0.46l-0.101-0.101c-0.105-0.104-0.07-0.191,0.079-0.191l0.518-0.001c0.148,0,0.269-0.114,0.269-0.251
				c0-0.139,0.085-0.338,0.19-0.443l0.101-0.102c0.104-0.106,0.275-0.106,0.38-0.001l0.514,0.514
				c0.104,0.105,0.263,0.118,0.352,0.03c0.088-0.089,0.274-0.162,0.413-0.162c0.139,0,0.252,0.12,0.252,0.27v0.171
				c0,0.148,0.057,0.268,0.126,0.268c0.071,0,0.212-0.085,0.317-0.19l0.1-0.101c0.104-0.105,0.19-0.312,0.189-0.46l-0.001-1.021
				c0-0.148-0.085-0.184-0.19-0.08l-0.398,0.4c-0.104,0.104-0.312,0.191-0.459,0.191l-0.792,0.001
				c-0.147,0.001-0.354-0.084-0.459-0.189l-0.4-0.399c-0.104-0.104-0.19-0.07-0.19,0.08v0.035c0,0.148-0.12,0.27-0.269,0.27
				l-2.054,0.002c-0.148,0.001-0.184-0.086-0.079-0.19l0.1-0.101c0.105-0.105,0.312-0.191,0.459-0.192l0.998-0.001
				c0.149,0,0.27-0.123,0.27-0.27v-0.264c-0.001-0.149-0.068-0.202-0.15-0.121c-0.082,0.082-0.23,0.066-0.332-0.035
				c-0.102-0.099-0.098-0.269,0.006-0.374l0.307-0.308c0.104-0.104,0.276-0.105,0.38-0.001l0.952,0.95
				c0.104,0.104,0.276,0.104,0.381,0l0.146-0.147c0.105-0.105,0.276-0.105,0.381-0.001l0.078,0.077
				c0.104,0.105,0.276,0.105,0.38-0.001l0.193-0.193c0.104-0.104,0.104-0.276-0.001-0.381l-0.101-0.101
				c-0.105-0.104-0.105-0.275,0-0.381l0.147-0.147c0.105-0.104,0.104-0.276,0-0.38l-1.02-1.018c-0.105-0.104-0.105-0.276,0-0.381
				l0.283-0.285c0.104-0.104,0.104-0.276,0-0.38l-0.285-0.285c-0.104-0.104-0.104-0.277,0-0.381l0.605-0.606
				c0.104-0.105,0.276-0.106,0.38,0l0.521,0.519c0.105,0.105,0.19,0.312,0.19,0.459v0.052c0,0.149-0.085,0.355-0.189,0.46
				l-0.008,0.009c-0.105,0.105-0.19,0.31-0.19,0.459l0,0.679c0,0.148,0.122,0.27,0.27,0.269l0.485,0c0.147,0,0.269-0.122,0.268-0.27
				V36.03c0-0.148-0.066-0.335-0.146-0.415c-0.081-0.082-0.146-0.268-0.146-0.416l0-0.241c0-0.148-0.044-0.314-0.098-0.367
				c-0.053-0.054-0.097-0.174-0.098-0.268c0-0.093,0.077-0.17,0.17-0.171c0.095,0,0.171-0.065,0.17-0.146
				c0-0.08-0.064-0.146-0.143-0.146c-0.079,0-0.144-0.121-0.144-0.269l-0.001-0.968c0-0.147,0.121-0.269,0.268-0.27h0.173
				c0.148,0,0.183-0.087,0.079-0.191l-0.653-0.65c-0.105-0.105-0.191-0.312-0.191-0.46v-0.011c-0.001-0.148,0.085-0.354,0.189-0.46
				l0.124-0.124c0.104-0.106,0.311-0.191,0.46-0.191l0.103,0c0.148,0,0.269-0.122,0.269-0.27l0-0.334
				c0-0.149,0.113-0.291,0.251-0.316c0.14-0.024,0.338,0.039,0.443,0.145l0.102,0.101c0.104,0.104,0.19,0.312,0.19,0.459
				l0.001,0.677c0,0.147-0.086,0.184-0.191,0.079l-0.1-0.1c-0.106-0.104-0.192-0.069-0.191,0.08l0,0.263
				c0,0.148,0.086,0.354,0.192,0.459l0.009,0.009c0.104,0.104,0.191,0.268,0.191,0.362s0.122,0.172,0.27,0.172h0.035
				c0.148,0,0.269-0.122,0.269-0.27l-0.001-0.747c0-0.148,0.121-0.269,0.27-0.269l0.195-0.001c0.148,0,0.269,0.121,0.27,0.27l0,0.47
				c0,0.148,0.122,0.269,0.27,0.269l0.931-0.001c0.148,0,0.269,0.104,0.269,0.229s-0.084,0.316-0.189,0.42l-0.354,0.354
				c-0.104,0.104-0.104,0.276,0,0.381l0.332,0.331c0.104,0.105,0.104,0.275,0,0.38l-0.284,0.285
				c-0.105,0.105-0.191,0.069-0.191-0.079l-0.001-0.15c0-0.148-0.122-0.269-0.269-0.268l-0.563,0c-0.148,0-0.269-0.122-0.269-0.269
				l-0.001-0.654c0-0.148-0.121-0.27-0.27-0.27h-0.012c-0.148,0-0.27,0.122-0.269,0.271l0,0.837c0,0.148,0.122,0.27,0.27,0.27
				l0.15,0c0.148,0,0.27,0.072,0.27,0.16c0,0.089,0.113,0.161,0.253,0.161c0.139,0,0.167,0.084,0.062,0.19l-0.032,0.032
				c-0.105,0.105-0.105,0.276,0.001,0.38l0.147,0.148c0.106,0.104,0.106,0.275,0.001,0.38l-0.262,0.262
				c-0.104,0.105-0.191,0.278-0.19,0.386c0,0.107,0.067,0.195,0.149,0.195c0.082,0,0.149,0.121,0.149,0.268l0,0.47
				c0,0.149,0.062,0.27,0.138,0.27c0.076,0,0.138-0.12,0.137-0.27l-0.001-0.7c0-0.148,0.121-0.269,0.269-0.27h0.035
				c0.147,0,0.27,0.121,0.27,0.27v0.08c0,0.149,0.014,0.357,0.165,0.409c0.15,0.053,0.578-0.25,0.654-0.321
				c0.099-0.093-0.034-0.219,0.121-0.335c0.098-0.074,0.276-0.107,0.381-0.002l0.009,0.01c0.105,0.104,0.276,0.104,0.381,0
				l0.205-0.163c0.104-0.104,0.311-0.184,0.459-0.177l0.38,0.018c0.148,0.008,0.192,0.091,0.097,0.185s-0.258,0.258-0.362,0.363
				l-0.525,0.483c-0.104,0.105-0.263,0.242-0.397,0.191c-0.118-0.045-0.354-0.372-0.517-0.349c-0.177,0.026-0.497,0.376-0.497,0.376
				c-0.105,0.105-0.104,0.276,0,0.381c0,0,0.357,0.295,0.469,0.466c0.121,0.184-0.234,0.47-0.338,0.575l-0.273,0.273
				c-0.104,0.105-0.104,0.276,0.001,0.381l0.066,0.065c0.104,0.105,0.257,0.191,0.34,0.191c0.082-0.001,0.234-0.087,0.338-0.192
				l0.009-0.008c0.104-0.105,0.304-0.191,0.443-0.191c0.14,0,0.253,0.121,0.254,0.269v0.104c0,0.148,0.122,0.27,0.269,0.269
				l0.471-0.001c0.148,0,0.27,0.121,0.27,0.27l0.001,0.838c0,0.148,0.086,0.354,0.19,0.459l0.032,0.032
				c0.105,0.105,0.105,0.277,0,0.38l-0.146,0.147c-0.104,0.105-0.276,0.106-0.38,0l-0.377-0.375c-0.105-0.104-0.312-0.191-0.46-0.19
				h-0.288c-0.147,0-0.197-0.072-0.108-0.16c0.089-0.089,0.075-0.247-0.029-0.352l-0.492-0.49c-0.104-0.105-0.276-0.105-0.38,0
				l-0.788,0.789c-0.104,0.105-0.275,0.105-0.381,0.001l-0.469-0.467c-0.105-0.104-0.312-0.19-0.46-0.189h-0.242
				c-0.148,0-0.27,0.122-0.27,0.269l0.001,0.792c0.001,0.149,0.122,0.27,0.27,0.27l0.976-0.002c0.148-0.001,0.355,0.085,0.46,0.191
				l0.078,0.077c0.104,0.104,0.312,0.19,0.46,0.19h0.057c0.148,0,0.27,0.12,0.27,0.268v0.149c0,0.147-0.052,0.321-0.114,0.385
				c-0.063,0.062-0.115,0.176-0.115,0.252c0,0.076,0.08,0.137,0.179,0.137c0.098-0.001,0.178-0.001,0.178-0.001c0,0,0.121,0,0.269,0
				l0.253,0c0.147,0,0.269-0.093,0.269-0.207c0-0.113,0.085-0.12,0.191-0.015l0.561,0.558c0.104,0.105,0.312,0.19,0.46,0.19
				l0.402-0.002c0.148,0,0.355-0.085,0.459-0.188l0.387-0.391c0.104-0.104,0.276-0.104,0.38,0l0.181,0.182
				c0.105,0.105,0.284,0.19,0.397,0.189c0.114,0,0.207-0.121,0.207-0.27v-0.15c0-0.148,0.085-0.184,0.19-0.08l0.033,0.033
				c0.104,0.104,0.267,0.19,0.361,0.19c0.093-0.001,0.083,0.084-0.022,0.19l-0.572,0.575c-0.105,0.104-0.105,0.277,0,0.38
				l0.044,0.043c0.105,0.104,0.276,0.104,0.381-0.001l0.082-0.082c0.105-0.104,0.312-0.191,0.459-0.191h0.753
				c0.148-0.001,0.343-0.076,0.434-0.166c0.09-0.091,0.148-0.18,0.129-0.198c-0.018-0.019,0.052-0.12,0.157-0.225l0.067-0.068
				c0.105-0.105,0.276-0.105,0.381,0l0.377,0.376c0.104,0.104,0.134,0.246,0.064,0.316c-0.069,0.068-0.212,0.04-0.317-0.065
				l-0.216-0.215c-0.105-0.103-0.191-0.068-0.19,0.08v0.31c0,0.149,0.086,0.354,0.191,0.46l0.089,0.089
				c0.104,0.104,0.312,0.19,0.46,0.19l0.574-0.001c0.148,0,0.354-0.085,0.459-0.19l0.129-0.13c0.104-0.104,0.275-0.104,0.38,0
				l0.326,0.324c0.104,0.106,0.277,0.106,0.381,0l0.284-0.285c0.105-0.105,0.294-0.191,0.42-0.191c0.126,0,0.286,0.058,0.356,0.125
				c0.068,0.07,0.044,0.209-0.057,0.31c-0.101,0.102-0.064,0.184,0.081,0.184c0.146,0,0.264,0.087,0.264,0.194
				c0,0.107-0.121,0.195-0.269,0.195l-0.425,0c-0.148,0-0.354,0.087-0.46,0.191l-0.537,0.537c-0.104,0.105-0.104,0.275,0,0.381
				l0.102,0.101c0.104,0.104,0.19,0.311,0.19,0.458v0.126c0,0.149-0.108,0.27-0.24,0.27c-0.133,0-0.241-0.113-0.242-0.251
				c0-0.139-0.121-0.252-0.27-0.252l-0.424,0.001c-0.148,0.001-0.354,0.086-0.46,0.191l-0.008,0.008
				c-0.105,0.106-0.191,0.312-0.191,0.46v0.036c0,0.147-0.12,0.268-0.269,0.27h-0.77c-0.148,0-0.269,0.123-0.269,0.27v0.333
				c0,0.147-0.085,0.354-0.19,0.459l-0.101,0.101c-0.104,0.104-0.276,0.105-0.38,0.001l-0.285-0.285
				c-0.104-0.105-0.276-0.105-0.381,0l-0.536,0.536c-0.104,0.104-0.304,0.191-0.443,0.191s-0.253,0.121-0.253,0.271l0.001,1.02
				c0.001,0.149,0.122,0.27,0.27,0.27h0.013c0.148,0,0.269-0.122,0.269-0.27v-0.012c0-0.148,0.121-0.27,0.27-0.27h0.149
				c0.148,0,0.355,0.086,0.46,0.189l0.239,0.24c0.105,0.104,0.19,0.312,0.191,0.46v0.171c0,0.149,0.122,0.271,0.269,0.27
				l0.631-0.001c0.148,0,0.27,0.113,0.27,0.252c0,0.14,0.121,0.253,0.27,0.253h0.471c0.148,0,0.269-0.104,0.269-0.229
				c0-0.128,0.103-0.23,0.229-0.23c0.126,0,0.23,0.072,0.23,0.16c0,0.089,0.073,0.16,0.161,0.16c0.089,0,0.16-0.103,0.16-0.229
				c0-0.126,0.093-0.228,0.207-0.229c0.113,0,0.292,0.085,0.397,0.188l0.86,0.857c0.104,0.104,0.276,0.104,0.381,0l0.009-0.01
				c0.105-0.104,0.276-0.105,0.381,0l0.559,0.56c0.105,0.104,0.312,0.188,0.46,0.188h0.059c0.148,0,0.336,0.066,0.419,0.149
				c0.082,0.082,0.234,0.063,0.339-0.041l0.078-0.079c0.105-0.104,0.276-0.104,0.381-0.001l0.148,0.147
				c0.104,0.104,0.105,0.275,0,0.38l-0.307,0.308c-0.105,0.105-0.19,0.312-0.19,0.46v0.289c0,0.148-0.121,0.27-0.269,0.27h-0.104
				c-0.148,0-0.27-0.12-0.27-0.269l0.001-0.244c0-0.149-0.121-0.271-0.269-0.271h-0.196c-0.148,0-0.391,0.002-0.538,0.002h-0.242
				c-0.148,0.001-0.27-0.12-0.27-0.27v-0.104c0-0.149-0.122-0.27-0.27-0.27l-0.516,0.001c-0.149,0-0.27,0.053-0.27,0.116
				c0,0.062,0.086,0.199,0.19,0.305l0.033,0.033c0.104,0.103,0.189,0.209,0.189,0.232c0,0.024-0.085,0.131-0.189,0.235l-0.239,0.238
				c-0.105,0.105-0.19,0.083-0.19-0.048c0-0.132-0.12-0.239-0.264-0.239c-0.145,0.001-0.326,0.063-0.401,0.14
				c-0.075,0.076-0.258,0.139-0.406,0.139h-0.242c-0.148,0-0.269,0.122-0.269,0.27v0.057c0,0.148,0.122,0.269,0.27,0.269h0.791
				c0.148,0,0.269-0.053,0.269-0.116s0.122-0.115,0.27-0.115h0.242c0.148,0,0.326,0.058,0.396,0.126
				c0.069,0.069,0.126,0.039,0.126-0.068s0.121-0.196,0.269-0.196l0.448-0.001c0.147,0,0.355,0.086,0.459,0.189l0.332,0.331
				c0.104,0.104,0.07,0.189-0.079,0.189l-1.32,0.002c-0.148,0-0.269,0.121-0.269,0.271v0.034c0,0.148-0.12,0.271-0.269,0.271h-0.289
				c-0.148,0.001-0.354,0.086-0.459,0.191l-0.375,0.377c-0.104,0.104-0.193,0.115-0.38,0.001c-0.144-0.037-0.504,0.214-0.724,0.31
				c0,0-0.169,0.269-0.537,0.272c-0.367,0.004-0.354,0.087-0.459,0.191l-0.009,0.009c-0.104,0.105-0.264,0.146-0.375,0.146
				c-0.109,0-0.264-0.172-0.28-0.239c-0.017-0.066-0.028-0.297,0.056-0.353c0.084-0.057,0.14-0.222,0-0.316
				c-0.14-0.094-0.391,0-0.538,0.001l-1.022,0.001c-0.149,0-0.384,0.04-0.525,0.085l-0.074,0.026
				c-0.14,0.046-0.377,0.085-0.524,0.085h-0.425c-0.148,0-0.27,0.021-0.27,0.048c0,0.024-0.092,0.046-0.207,0.046
				c-0.113,0-0.292-0.086-0.397-0.19l-0.07-0.07c-0.105-0.104-0.276-0.104-0.381,0l-0.589,0.59c-0.104,0.105-0.312,0.19-0.459,0.19
				l-0.363,0.001c-0.149,0-0.341,0.098-0.428,0.218l-1.776,2.445c-0.087,0.119-0.209,0.328-0.271,0.464l-0.051,0.107
				c-0.061,0.136-0.111,0.367-0.111,0.516l0.003,2.034c0,0.147,0.01,0.391,0.024,0.536l0.262,2.974l0.358,4.071
				c0.287-0.023,0.572-0.053,0.856-0.085c10.773-1.273,19.124-10.442,19.108-21.557C136.718,43.304,133.688,37.336,128.931,33.365z
				 M106.612,45.258l0.203-0.203c0.105-0.105,0.191-0.312,0.19-0.46V44.57c0-0.148,0.085-0.182,0.19-0.079l0.183,0.183
				c0.105,0.104,0.19,0.313,0.191,0.459v0.413c0,0.148,0.083,0.353,0.188,0.456c0.103,0.104,0.113,0.26,0.022,0.351
				c-0.09,0.091-0.285,0.167-0.434,0.167h-0.079c-0.148,0-0.356-0.085-0.46-0.19l-0.193-0.191c-0.104-0.105-0.19-0.303-0.19-0.441
				C106.422,45.561,106.507,45.363,106.612,45.258z M118.929,34.653c-0.015,0.184-0.695,0.658-0.853,0.546
				c-0.042-0.031-0.017-0.154-0.017-0.154c-0.001-0.135,0.098-0.264,0.196-0.358l0.677-0.656c0.099-0.095,0.179-0.063,0.179,0.072
				l0.001,0.136C119.111,34.373,118.934,34.588,118.929,34.653z"/>
		</g>
	</g>
</g>
</svg>
