<?xml version="1.0" encoding="utf-8"?>
<!-- Generator: Adobe Illustrator 16.0.0, SVG Export Plug-In . SVG Version: 6.00 Build 0)  -->
<!DOCTYPE svg PUBLIC "-//W3C//DTD SVG 1.1//EN" "http://www.w3.org/Graphics/SVG/1.1/DTD/svg11.dtd">
<svg version="1.1" id="Layer_1" xmlns="http://www.w3.org/2000/svg" xmlns:xlink="http://www.w3.org/1999/xlink" x="0px" y="0px"
	 width="320px" height="150px" viewBox="0 0 320 150" enable-background="new 0 0 320 150" xml:space="preserve">
<g>
	<g>
		<g>
			<path fill="#231F20" d="M0.893,24.814c-0.537,24.94,17.979,56.389,56.051,64.608c36.765,7.951,51.658,16.171,68.6,40.837
				c-6.219-34.613-26.644-59.076-59.65-65.092C32.897,59.167,12.02,45.104,0.893,24.814z"/>
			<path fill="#231F20" d="M52.51,12.852c-4.35,5.341-3.554,13.207,1.788,17.554c5.354,4.36,13.215,3.552,17.569-1.796
				c4.354-5.345,3.549-13.205-1.796-17.564C64.719,6.693,56.867,7.501,52.51,12.852z"/>
			<polygon fill="#231F20" points="34.759,118.569 34.759,141.021 101.152,141.021 			"/>
		</g>
	</g>
	<g>
		<g>
			<path fill="#231F20" d="M154.87,51.116v32.997h-4.937V51.116h-9.088v-4.241h23.106v4.241H154.87z"/>
			<path fill="#231F20" d="M175.468,84.608c-7.076,0-11.039-4.906-11.039-14.023c0-8.864,4.511-14.137,11.249-14.137
				c7.077,0,10.991,4.893,10.991,14.072C186.669,79.327,182.199,84.608,175.468,84.608z M175.58,60.355
				c-3.918,0-6.151,3.324-6.151,10.113c0,6.854,2.276,10.167,6.096,10.167c3.902,0,6.138-3.313,6.138-10.167
				C181.663,63.73,179.427,60.355,175.58,60.355z"/>
			<path fill="#231F20" d="M209.511,62.048c-0.823-0.761-1.638-1.195-2.887-1.195c-3.757,0-6.519,4.56-6.519,12.553v10.706h-4.783
				V70.904c0-5.708-0.822-9.464-2.998-13.966h4.669c0.878,1.905,1.632,4.183,2.02,6.68h0.06c1.787-4.566,4.665-7.17,8.69-7.17
				c2.063,0,3.594,0.656,4.94,2.008L209.511,62.048z"/>
			<path fill="#231F20" d="M226.52,84.608c-7.059,0-11.021-4.906-11.021-14.023c0-8.864,4.509-14.137,11.258-14.137
				c7.063,0,10.976,4.893,10.976,14.072C237.732,79.327,233.269,84.608,226.52,84.608z M226.647,60.355
				c-3.923,0-6.151,3.324-6.151,10.113c0,6.854,2.283,10.167,6.101,10.167c3.906,0,6.134-3.313,6.134-10.167
				C232.731,63.73,230.503,60.355,226.647,60.355z"/>
			<path fill="#231F20" d="M260.52,84.113V66.01c0-4.023-1.14-5.38-3.528-5.38c-3.438,0-6.306,4.296-6.306,9.787v13.696h-4.79
				V65.847c0-2.87-0.327-5.974-1.03-8.909h4.398c0.333,1.417,0.589,3.041,0.709,5.159l0.054,0.062
				c1.522-3.594,4.298-5.71,8.255-5.71c4.954,0,7.02,3.531,7.02,8.317v19.348H260.52z"/>
			<path fill="#231F20" d="M283.847,84.608c-5.272,0-7.391-3.04-7.391-8.319V60.799h-5.163v-3.861h5.163v-8.486h4.785v8.486h7.776
				v3.861h-7.776v15.112c0,2.937,1.19,4.401,3.526,4.401c1.797,0,3.438-1.142,5.064-3.327l2.939,3.159
				C290.158,83.024,287.717,84.608,283.847,84.608z"/>
			<path fill="#231F20" d="M307.922,84.608c-7.075,0-11.035-4.906-11.035-14.023c0-8.864,4.509-14.137,11.252-14.137
				c7.069,0,10.979,4.893,10.979,14.072C319.118,79.327,314.665,84.608,307.922,84.608z M308.028,60.355
				c-3.907,0-6.141,3.324-6.141,10.113c0,6.854,2.276,10.167,6.099,10.167c3.903,0,6.129-3.313,6.129-10.167
				C314.115,63.73,311.889,60.355,308.028,60.355z"/>
		</g>
		<g>
			<path fill="#231F20" d="M201.78,141.264l-6.845-14.947h-4.242v14.947h-5v-37.233h9.667c6.797,0,10.928,3.692,10.928,10.59
				c0,4.679-2.063,8.762-6.688,10.614l8.27,16.029H201.78z M194.385,108.271h-3.693v13.86h3.424c4.35,0,6.956-2.667,6.956-7.511
				C201.073,110.325,198.686,108.271,194.385,108.271z"/>
			<path fill="#231F20" d="M217.269,128.708c0.396,5.321,2.615,8.911,7.235,8.911c2.285,0,4.564-0.922,7.181-2.396l1.572,3.922
				c-3.154,1.624-5.986,2.609-9.455,2.609c-8.317,0-11.525-6.422-11.525-14.081c0-8.644,4.4-14.075,10.982-14.075
				c6.737,0,10.438,4.947,10.438,13.584v1.525H217.269z M223.153,117.39c-3.269,0-5.396,2.948-5.826,7.57h11.47
				C228.472,120.279,226.574,117.39,223.153,117.39z"/>
			<path fill="#231F20" d="M256.535,141.264V123.16c0-4.022-1.148-5.382-3.534-5.382c-3.427,0-6.302,4.295-6.302,9.797v13.688
				h-4.794v-38.926h4.794v8.651c0,3.528,0,5.708-0.385,7.776l0.046,0.045c1.477-3.146,4.092-5.212,7.949-5.212
				c4.934,0,7.012,3.525,7.012,8.321v19.344H256.535z"/>
			<path fill="#231F20" d="M284.928,141.264c-0.275-1.196-0.484-2.714-0.609-3.968l-0.044-0.043
				c-1.47,2.606-3.967,4.503-7.621,4.503c-4.444,0-7.979-2.779-7.979-8.648c0-6.198,4.133-9.298,9.672-9.298
				c1.354,0,2.786,0.222,4.081,0.602l1.083,0.329v-1.965c0-3.412-1.675-5.318-5.11-5.318c-2.341,0-4.025,0.598-6.027,1.522
				l-1.258-3.751c2.67-1.036,5.273-1.629,8.04-1.629c6.375,0,9.184,3.639,9.184,8.743v10.009c0,2.935,0.334,5.979,1.034,8.913
				H284.928z M283.563,128.215l-0.878-0.325c-1.353-0.482-2.5-0.652-3.743-0.652c-3.093,0-5.276,2.069-5.276,5.548
				c0,3.044,1.584,4.833,4.347,4.833c3.319,0,5.55-3.036,5.55-6.955V128.215z"/>
			<path fill="#231F20" d="M308.966,141.755c-2.823,0-5.231-1.202-6.748-2.875l-0.061,0.05c-0.1,0.75-0.267,1.572-0.423,2.334
				h-4.352c0.708-2.934,1.031-6.041,1.031-8.913v-30.013h4.785v6.589c0,3.53-0.06,5.694-0.443,7.771l0.055,0.042
				c1.856-2.055,4.198-3.141,6.808-3.141c5.746,0,9.5,4.241,9.5,14.024C319.118,136.748,315.157,141.755,308.966,141.755z
				 M308.53,117.674c-2.345,0-4.244,1.463-5.332,3.694v13.537c1.303,1.628,2.816,2.663,5.217,2.663c3.906,0,5.708-3.751,5.708-9.992
				C314.124,121.26,312.056,117.674,308.53,117.674z"/>
		</g>
	</g>
</g>
</svg>
