<?xml version="1.0" encoding="utf-8"?>
<!-- Generator: Adobe Illustrator 16.0.0, SVG Export Plug-In . SVG Version: 6.00 Build 0)  -->
<!DOCTYPE svg PUBLIC "-//W3C//DTD SVG 1.1//EN" "http://www.w3.org/Graphics/SVG/1.1/DTD/svg11.dtd">
<svg version="1.1" id="Layer_1" xmlns="http://www.w3.org/2000/svg" xmlns:xlink="http://www.w3.org/1999/xlink" x="0px" y="0px"
	 width="318.82px" height="150px" viewBox="0 0 318.82 150" enable-background="new 0 0 318.82 150" xml:space="preserve">
<g>
	<polyline fill="#231F20" points="71.6,57.881 55.865,19.398 44.442,19.398 60.18,57.881 71.6,57.881 	"/>
	<polyline fill="#231F20" points="22.906,57.881 39.22,18.229 45.126,31.698 40.136,43.8 49.73,43.797 52.248,49.742 37.687,49.737 
		34.327,57.881 22.906,57.881 	"/>
	<rect x="128.816" y="19.402" fill="#231F20" width="10.369" height="38.479"/>
	<polyline fill="#231F20" points="296.517,57.881 296.517,19.398 286.148,19.398 286.148,45.08 266.99,19.398 254.93,19.398 
		283.882,57.881 296.517,57.881 	"/>
	<polyline fill="#231F20" points="265.891,57.881 265.891,39.983 255.523,26.596 255.523,57.881 265.891,57.881 	"/>
	<path fill="#231F20" d="M188.875,19.43h-26.398c0,0-10.579,0-11.316,10.332c-0.765,10.708,11.132,11.232,12.298,11.475
		c1.192,0.25,13.336,1.879,14.758,2.896c0.705,0.511,1.73,1.796,1.744,3.283c0.021,2.021-0.613,4.398-3.709,4.398
		c-2.713,0-25.415-0.005-25.415-0.005v6.073h29.594c0,0,8.04-0.985,9.262-9.103c1.422-9.35-7.047-11.063-8.358-11.474
		c-1.443-0.452-15.903-2.292-17.056-2.629c-1.144-0.323-3.358-1.47-2.955-5.236c0.366-3.41,3.773-4.023,4.592-4.023
		c1.157,0,22.959,0,22.959,0V19.43"/>
	<path fill="#231F20" d="M115.915,101.58c0,0,1.286-9.412-13.956-9.412c-5.036,0-5.036,0-5.036,0s0,0-5.034,0
		c-15.24,0-13.961,9.412-13.961,9.412v20.776c0,0-1.278,9.415,13.961,9.415c5.034,0,5.034,0,5.034,0s0,0,5.036,0
		c15.242,0,13.956-9.415,13.956-9.415V101.58z M105.849,121.38c0,5.198-8.925,4.713-8.925,4.713s-8.925,0.485-8.925-4.713v-18.818
		c0-5.197,8.925-4.713,8.925-4.713s8.925-0.485,8.925,4.713V121.38z"/>
	<path fill="#231F20" d="M240.724,28.253c0,0,1.287-9.411-13.958-9.411c-5.034,0-5.034,0-5.034,0s0,0-5.033,0
		c-15.24,0-13.963,9.411-13.963,9.411v20.775c0,0-1.277,9.417,13.963,9.417c5.033,0,5.033,0,5.033,0s0,0,5.034,0
		c15.245,0,13.958-9.417,13.958-9.417V28.253z M230.657,48.052c0,5.195-8.925,4.711-8.925,4.711s-8.926,0.485-8.926-4.711V29.232
		c0-5.196,8.926-4.71,8.926-4.71s8.925-0.486,8.925,4.71V48.052z"/>
	<polyline fill="#231F20" points="236.084,131.417 236.084,92.932 225.715,92.932 225.715,118.619 206.553,92.932 194.509,92.932 
		223.455,131.417 236.084,131.417 	"/>
	<polyline fill="#231F20" points="205.465,131.417 205.465,113.515 195.094,100.135 195.094,131.417 205.465,131.417 	"/>
	<polyline fill="#231F20" points="108.678,19.402 120.119,19.402 104.175,57.87 86.012,57.881 70.287,19.407 81.565,19.407 
		95.225,52.601 108.678,19.402 	"/>
	<path fill="#231F20" d="M50.067,118.41l-0.059,13.011H39.638v-13.026l-17.02-25.674l11.316-0.031l10.855,17.338L50.067,118.41z
		 M47.145,106.312l8.484-13.622l11.367,0.031l-14.565,22.115L47.145,106.312"/>
	<path fill="#231F20" d="M175.456,92.721v25.804c0,10.315-5.821,13.206-19.446,13.206c-18.578,0-20.554-3.924-20.554-13.206V92.721
		l10.347-0.036l0.021,27.75c0,5.513,3.742,5.583,10.288,5.583c6.619,0,8.879-0.456,8.879-6.169l-0.008-27.164L175.456,92.721"/>
	<path fill="#231F20" d="M285.867,104.697l-0.107-1.93c-0.305-4.942-5.366-4.872-10.045-4.872c-11.223,0-11.531,2.859-11.691,10.712
		v7.931c0,8.638,3.574,9.542,11.691,9.542c7.947,0,10.045-1.495,10.045-8.251l-0.064-1.787h-10.717v-5.928h21.295v6.19
		c0,13.05-3.963,15.426-20.559,15.426c-14.604,0-22.028-2.066-22.028-14.6v-10.013c0-12.792,8.414-14.703,22.028-14.703
		c12.011,0,20.559,0.055,20.559,12.332L285.867,104.697"/>
	<rect x="22.131" y="73.98" fill="#231F20" width="274.558" height="3.346"/>
</g>
</svg>
