<?xml version="1.0" encoding="utf-8"?>
<!-- Generator: Adobe Illustrator 16.0.0, SVG Export Plug-In . SVG Version: 6.00 Build 0)  -->
<!DOCTYPE svg PUBLIC "-//W3C//DTD SVG 1.1//EN" "http://www.w3.org/Graphics/SVG/1.1/DTD/svg11.dtd">
<svg version="1.1" id="Layer_1" xmlns="http://www.w3.org/2000/svg" xmlns:xlink="http://www.w3.org/1999/xlink" x="0px" y="0px"
	 width="320px" height="150px" viewBox="0 0 320 150" enable-background="new 0 0 320 150" xml:space="preserve">
<g>
	<g>
		<g>
			<g>
				<path d="M316.395,102.938c0.478,0,0.925,0.119,1.337,0.363c0.42,0.237,0.75,0.565,0.99,0.978
					c0.236,0.421,0.359,0.865,0.359,1.343c0,0.483-0.123,0.93-0.359,1.337c-0.24,0.419-0.563,0.743-0.979,0.979
					c-0.424,0.242-0.871,0.364-1.349,0.364c-0.483,0-0.935-0.122-1.349-0.355c-0.419-0.24-0.743-0.563-0.983-0.983
					c-0.24-0.411-0.362-0.857-0.362-1.341c0-0.48,0.122-0.93,0.368-1.343c0.234-0.417,0.563-0.74,0.983-0.983
					C315.462,103.057,315.915,102.938,316.395,102.938z M316.395,103.382c-0.616,0-1.15,0.22-1.578,0.662
					c-0.441,0.433-0.661,0.96-0.661,1.577c0,0.62,0.22,1.14,0.659,1.583c0.43,0.427,0.964,0.646,1.58,0.646
					c0.611,0,1.147-0.219,1.58-0.651c0.437-0.44,0.657-0.96,0.657-1.577s-0.221-1.145-0.659-1.577
					C317.536,103.602,317.006,103.382,316.395,103.382z M315.789,107.057h-0.47v-2.882h1.001c0.356,0,0.608,0.03,0.747,0.086
					c0.146,0.059,0.268,0.151,0.352,0.277c0.09,0.128,0.132,0.276,0.132,0.413c0,0.229-0.072,0.407-0.231,0.566
					c-0.151,0.147-0.353,0.229-0.587,0.251c0.106,0.053,0.207,0.121,0.302,0.228c0.096,0.094,0.217,0.265,0.363,0.502l0.352,0.559
					h-0.569l-0.251-0.45c-0.186-0.323-0.33-0.533-0.434-0.628c-0.108-0.098-0.251-0.14-0.433-0.14h-0.273V107.057z M315.789,104.571
					v0.865h0.569c0.242,0,0.416-0.036,0.531-0.1c0.114-0.073,0.167-0.188,0.167-0.342c0-0.153-0.053-0.263-0.162-0.329
					c-0.106-0.064-0.301-0.095-0.574-0.095H315.789z"/>
			</g>
		</g>
	</g>
</g>
<path fill-rule="evenodd" clip-rule="evenodd" d="M288.739,99.625c0.109,0,0.186,0.068,0.224,0.227l1.871,6.783
	c0.118,0.38-0.047,0.671-0.211,0.726c-0.235,0.043-0.325,0.101-0.325,0.294c0,0.221,0.274,0.221,0.699,0.254
	c1.876,0.064,3.574,0.064,4.418,0.064c0.865,0,1.066-0.064,1.066-0.318c0-0.218-0.118-0.251-0.296-0.251
	c-0.28,0-0.632-0.043-0.988-0.126c-0.492-0.174-1.165-0.615-2.054-3.491c-1.494-4.864-5.225-17.902-5.788-19.668
	c-0.229-0.74-0.369-1.019-0.581-1.019c-0.234,0-0.369,0.352-0.659,1.271l-5.853,20.084c-0.464,1.6-0.908,2.68-1.989,2.876
	c-0.181,0.03-0.514,0.073-0.726,0.073c-0.179,0-0.274,0.058-0.274,0.251c0,0.254,0.135,0.318,0.441,0.318
	c1.224,0,2.502-0.098,2.759-0.098c0.726,0,1.726,0.098,2.475,0.098c0.257,0,0.391-0.064,0.391-0.318
	c0-0.193-0.066-0.251-0.346-0.251h-0.35c-0.723,0-0.932-0.426-0.932-0.989c0-0.394,0.109-1.159,0.35-1.96l1.256-4.569
	c0.051-0.191,0.101-0.26,0.209-0.26H288.739L288.739,99.625z M283.998,98.028c-0.095,0-0.12-0.098-0.095-0.227l2.15-7.86
	c0.022-0.129,0.062-0.294,0.137-0.294c0.07,0,0.095,0.165,0.115,0.294l2.105,7.896c0.021,0.093,0,0.19-0.118,0.19H283.998
	L283.998,98.028z"/>
<path d="M145.74,90.189h0.067c0.424,0.614,3.01,4.6,5.557,8.065c2.421,3.292,5.413,7.483,6.881,9.399
	c0.263,0.354,0.542,0.704,0.793,0.704c0.213,0,0.302-0.288,0.302-0.998l0.268-20.165c0.017-1.793,0.201-2.474,0.854-2.726
	c0.279-0.1,0.469-0.1,0.704-0.1c0.279,0,0.419-0.09,0.419-0.282c0-0.252-0.234-0.291-0.539-0.291c-1.143,0-2.027,0.099-2.284,0.099
	c-0.494,0-1.611-0.099-2.823-0.099c-0.352,0-0.603,0.039-0.603,0.291c0,0.192,0.089,0.282,0.368,0.282c0.33,0,0.894,0,1.24,0.189
	c0.559,0.326,0.771,0.933,0.788,2.888l0.24,14.356h-0.117c-0.399-0.508-3.546-5.121-5.138-7.294
	c-3.404-4.637-6.959-9.847-7.233-10.263c-0.402-0.578-0.614-0.997-0.869-0.997c-0.229,0-0.304,0.452-0.304,1.095l-0.207,18.931
	c-0.022,2.778-0.12,3.702-0.723,3.96c-0.327,0.125-0.746,0.168-1.05,0.168c-0.238,0-0.372,0.058-0.372,0.251
	c0,0.291,0.212,0.318,0.514,0.318c1.209,0,2.307-0.098,2.522-0.098c0.438,0,1.365,0.098,2.89,0.098c0.327,0,0.536-0.064,0.536-0.318
	c0-0.193-0.145-0.251-0.396-0.251c-0.375,0-0.819-0.043-1.218-0.232c-0.461-0.221-0.771-1.05-0.813-3.541L145.74,90.189
	L145.74,90.189z"/>
<path d="M171.442,98.704c0,2.937,0,5.465-0.114,6.813c-0.075,0.919-0.21,1.616-0.685,1.76c-0.206,0.053-0.489,0.126-0.833,0.126
	c-0.284,0-0.373,0.094-0.373,0.251c0,0.221,0.156,0.318,0.466,0.318c0.93,0,2.408-0.098,2.941-0.098c0.65,0,2.122,0.098,3.666,0.098
	c0.254,0,0.445-0.098,0.445-0.318c0-0.157-0.124-0.251-0.382-0.251c-0.346,0-0.864-0.073-1.188-0.126
	c-0.698-0.144-0.838-0.841-0.911-1.731c-0.116-1.377-0.116-3.905-0.116-6.842V85.59l2.943,0.092c2.077,0.07,2.708,0.964,2.759,1.794
	l0.019,0.352c0.021,0.482,0.07,0.64,0.255,0.64c0.142,0,0.189-0.19,0.212-0.509c0-0.835,0.068-3.029,0.068-3.711
	c0-0.478-0.023-0.671-0.183-0.671c-0.188,0-0.746,0.319-2.243,0.319h-9.242c-0.771,0-1.652-0.06-2.335-0.156
	c-0.586-0.07-0.815-0.386-1.006-0.386c-0.138,0-0.212,0.192-0.279,0.608c-0.044,0.263-0.486,3.161-0.486,3.681
	c0,0.344,0.046,0.503,0.207,0.503c0.141,0,0.213-0.117,0.258-0.377c0.049-0.26,0.163-0.646,0.394-1.123
	c0.352-0.701,0.913-0.857,2.269-0.927l3.476-0.129V98.704L171.442,98.704z"/>
<path d="M187.572,98.704c0,3.1,0,5.627-0.117,6.973c-0.067,0.919-0.207,1.457-0.677,1.601c-0.211,0.053-0.491,0.126-0.837,0.126
	c-0.282,0-0.38,0.094-0.38,0.251c0,0.221,0.161,0.318,0.469,0.318c0.934,0,2.402-0.098,2.94-0.098c0.629,0,2.098,0.098,3.642,0.098
	c0.26,0,0.444-0.098,0.444-0.318c0-0.157-0.116-0.251-0.374-0.251c-0.347,0-0.866-0.073-1.191-0.126
	c-0.702-0.144-0.858-0.71-0.931-1.572c-0.096-1.374-0.096-3.901-0.096-7.001v-5.63c0-4.862,0-5.753,0.045-6.789
	c0.051-1.102,0.234-1.65,0.872-1.815c0.273-0.063,0.46-0.1,0.692-0.1c0.233,0,0.371-0.056,0.371-0.308
	c0-0.199-0.182-0.266-0.486-0.266c-0.891,0-2.259,0.099-2.846,0.099c-0.681,0-2.149-0.099-3.038-0.099
	c-0.371,0-0.564,0.066-0.564,0.266c0,0.252,0.148,0.308,0.381,0.308c0.278,0,0.58,0.037,0.837,0.131
	c0.52,0.162,0.749,0.704,0.793,1.784c0.051,1.036,0.051,1.927,0.051,6.789V98.704L187.572,98.704z"/>
<path d="M200.893,90.189h0.069c0.422,0.614,3.014,4.6,5.552,8.065c2.427,3.292,5.42,7.483,6.887,9.399
	c0.26,0.354,0.539,0.704,0.796,0.704c0.209,0,0.301-0.288,0.301-0.998l0.261-20.165c0.022-1.793,0.209-2.474,0.862-2.726
	c0.285-0.1,0.473-0.1,0.698-0.1c0.279,0,0.42-0.09,0.42-0.282c0-0.252-0.229-0.291-0.537-0.291c-1.143,0-2.027,0.099-2.284,0.099
	c-0.491,0-1.613-0.099-2.822-0.099c-0.354,0-0.609,0.039-0.609,0.291c0,0.192,0.092,0.282,0.381,0.282c0.322,0,0.88,0,1.228,0.189
	c0.565,0.326,0.772,0.933,0.795,2.888l0.235,14.356h-0.117c-0.402-0.508-3.553-5.121-5.139-7.294
	c-3.406-4.637-6.953-9.847-7.229-10.263c-0.398-0.578-0.608-0.997-0.863-0.997c-0.234,0-0.307,0.452-0.307,1.095l-0.207,18.931
	c-0.027,2.778-0.117,3.702-0.727,3.96c-0.323,0.125-0.749,0.168-1.05,0.168c-0.235,0-0.372,0.058-0.372,0.251
	c0,0.291,0.21,0.318,0.513,0.318c1.205,0,2.303-0.098,2.523-0.098c0.438,0,1.375,0.098,2.894,0.098c0.324,0,0.536-0.064,0.536-0.318
	c0-0.193-0.146-0.251-0.399-0.251c-0.377,0-0.818-0.043-1.215-0.232c-0.464-0.221-0.771-1.05-0.821-3.541L200.893,90.189
	L200.893,90.189z"/>
<path d="M223.509,98.704c0,2.937,0,5.465-0.12,6.813c-0.086,0.919-0.206,1.616-0.675,1.76c-0.207,0.053-0.492,0.126-0.838,0.126
	c-0.282,0-0.378,0.094-0.378,0.251c0,0.221,0.166,0.318,0.468,0.318c0.935,0,2.406-0.098,2.942-0.098
	c1.379,0,4.238,0.195,7.758,0.195c0.894,0,1.095,0,1.257-0.835c0.128-0.64,0.308-2.814,0.308-3.544c0-0.324,0-0.584-0.18-0.584
	c-0.174,0-0.212,0.138-0.269,0.483c-0.162,1.312-0.441,1.98-1.044,2.367c-0.606,0.386-2.882,0.386-3.49,0.386
	c-2.38,0-2.748-0.485-2.799-2.686c-0.025-0.928,0-3.868,0-4.954v-2.53c0-0.188,0.025-0.313,0.135-0.313
	c0.564,0,4.166,0.031,4.617,0.09c0.856,0.132,1.191,0.612,1.307,1.251c0.068,0.414,0.068,0.827,0.094,1.145
	c0,0.169,0.043,0.293,0.207,0.293c0.21,0,0.21-0.351,0.21-0.61c0-0.227,0.044-1.5,0.095-2.137c0.073-1.639,0.184-2.147,0.184-2.337
	c0-0.193-0.066-0.257-0.161-0.257c-0.117,0-0.207,0.156-0.375,0.413c-0.209,0.323-0.561,0.422-1.116,0.478
	c-0.542,0.064-4.517,0.064-5.027,0.064c-0.143,0-0.168-0.12-0.168-0.347v-8.09c0-0.227,0.051-0.324,0.168-0.324
	c0.463,0,4.212,0.069,4.602,0.129c1.174,0.195,1.402,0.577,1.57,1.148c0.114,0.391,0.14,0.938,0.14,1.158
	c0,0.284,0.044,0.443,0.207,0.443c0.161,0,0.205-0.184,0.229-0.343c0.05-0.386,0.092-1.799,0.123-2.111
	c0.072-1.475,0.189-1.854,0.189-2.081c0-0.167-0.022-0.29-0.146-0.29c-0.117,0-0.262,0.095-0.371,0.123
	c-0.188,0.07-0.559,0.128-1.002,0.194c-0.447,0.032-6.387,0.032-7.132,0.032c-0.654,0-2.126-0.099-3.362-0.099
	c-0.354,0-0.518,0.066-0.518,0.291c0,0.227,0.146,0.282,0.404,0.282c0.325,0,0.719,0.037,0.906,0.1
	c0.776,0.225,0.954,0.735,1.011,1.815c0.041,1.036,0.041,1.927,0.041,6.789V98.704L223.509,98.704z"/>
<path d="M242.804,90.189h0.066c0.422,0.614,3.01,4.6,5.563,8.065c2.422,3.292,5.407,7.483,6.88,9.399
	c0.252,0.354,0.537,0.704,0.793,0.704c0.213,0,0.306-0.288,0.306-0.998l0.254-20.165c0.022-1.793,0.216-2.474,0.866-2.726
	c0.278-0.1,0.463-0.1,0.703-0.1c0.273,0,0.413-0.09,0.413-0.282c0-0.252-0.229-0.291-0.531-0.291c-1.144,0-2.034,0.099-2.291,0.099
	c-0.495,0-1.608-0.099-2.824-0.099c-0.352,0-0.608,0.039-0.608,0.291c0,0.192,0.095,0.282,0.375,0.282c0.323,0,0.882,0,1.238,0.189
	c0.56,0.326,0.771,0.933,0.797,2.888l0.226,14.356h-0.11c-0.4-0.508-3.554-5.121-5.134-7.294c-3.409-4.637-6.959-9.847-7.244-10.263
	c-0.391-0.578-0.598-0.997-0.854-0.997c-0.237,0-0.307,0.452-0.307,1.095l-0.213,18.931c-0.022,2.778-0.114,3.702-0.717,3.96
	c-0.335,0.125-0.755,0.168-1.057,0.168c-0.231,0-0.371,0.058-0.371,0.251c0,0.291,0.213,0.318,0.515,0.318
	c1.208,0,2.307-0.098,2.516-0.098c0.448,0,1.383,0.098,2.902,0.098c0.323,0,0.53-0.064,0.53-0.318c0-0.193-0.141-0.251-0.397-0.251
	c-0.373,0-0.816-0.043-1.212-0.232c-0.461-0.221-0.765-1.05-0.815-3.541L242.804,90.189L242.804,90.189z"/>
<path d="M268.276,98.704c0,2.937,0,5.465-0.117,6.813c-0.069,0.919-0.212,1.616-0.682,1.76c-0.201,0.053-0.494,0.126-0.831,0.126
	c-0.289,0-0.375,0.094-0.375,0.251c0,0.221,0.158,0.318,0.461,0.318c0.933,0,2.403-0.098,2.939-0.098c0.66,0,2.129,0.098,3.67,0.098
	c0.251,0,0.437-0.098,0.437-0.318c0-0.157-0.112-0.251-0.369-0.251c-0.353,0-0.866-0.073-1.189-0.126
	c-0.699-0.144-0.843-0.841-0.913-1.731c-0.115-1.377-0.115-3.905-0.115-6.842V85.59l2.938,0.092c2.084,0.07,2.712,0.964,2.757,1.794
	l0.025,0.352c0.021,0.482,0.072,0.64,0.257,0.64c0.14,0,0.185-0.19,0.212-0.509c0-0.835,0.064-3.029,0.064-3.711
	c0-0.478-0.025-0.671-0.188-0.671c-0.184,0-0.748,0.319-2.232,0.319h-9.247c-0.768,0-1.659-0.06-2.332-0.156
	c-0.583-0.07-0.816-0.386-1.005-0.386c-0.146,0-0.212,0.192-0.282,0.608c-0.05,0.263-0.488,3.161-0.488,3.681
	c0,0.344,0.045,0.503,0.211,0.503c0.141,0,0.205-0.117,0.258-0.377c0.045-0.26,0.156-0.646,0.391-1.123
	c0.351-0.701,0.916-0.857,2.265-0.927l3.482-0.129V98.704L268.276,98.704z"/>
<path d="M304.222,93.074c0-4.862,0-5.753,0.045-6.789c0.045-1.102,0.234-1.65,0.866-1.815c0.284-0.063,0.653-0.1,0.907-0.1
	c0.276,0,0.425-0.056,0.425-0.282c0-0.225-0.166-0.291-0.498-0.291c-0.904,0-2.61,0.099-3.166,0.099
	c-0.632,0-2.105-0.099-3.202-0.099c-0.348,0-0.515,0.066-0.515,0.291c0,0.227,0.139,0.282,0.396,0.282
	c0.311,0,0.587,0.037,0.776,0.1c0.771,0.225,0.959,0.735,1,1.815c0.05,1.036,0.05,1.927,0.05,6.789v5.63
	c0,2.937,0,5.465-0.119,6.813c-0.092,0.919-0.209,1.616-0.675,1.76c-0.211,0.053-0.496,0.126-0.847,0.126
	c-0.273,0-0.363,0.094-0.363,0.251c0,0.221,0.154,0.318,0.461,0.318c0.933,0,2.406-0.098,2.946-0.098
	c1.882,0,3.423,0.195,6.79,0.195c1.213,0,1.321-0.162,1.469-0.866c0.191-0.921,0.351-3.325,0.351-3.678
	c0-0.385-0.025-0.547-0.193-0.547c-0.181,0-0.224,0.198-0.251,0.485c-0.054,0.604-0.323,1.503-0.605,1.916
	c-0.585,0.866-1.494,0.902-2.734,0.902c-1.817,0-2.424-0.229-2.827-0.712c-0.485-0.567-0.485-2.771-0.485-6.867V93.074
	L304.222,93.074z"/>
<path fill-rule="evenodd" clip-rule="evenodd" d="M128.817,106.825c1.642,0,5.421-1.087,5.421-10.327
	c0-7.163-3.014-11.612-6.842-11.612c-2.684,0-5.732,2.048-5.732,10.009C121.663,101.547,124.338,106.825,128.817,106.825
	L128.817,106.825z M127.845,108.422c-6.696,0-9.411-6.875-9.411-12.53c0-5.47,2.636-12.538,9.64-12.538
	c5.811,0,9.425,4.633,9.425,11.96C137.5,102.636,133.771,108.422,127.845,108.422L127.845,108.422z"/>
<path d="M5.264,97.428c0,3.529,0,6.411-0.134,7.929c-0.083,1.065-0.24,1.684-0.779,1.826c-0.237,0.072-0.553,0.147-0.953,0.147
	c-0.318,0-0.424,0.106-0.424,0.293c0,0.252,0.184,0.366,0.525,0.366c1.072,0,2.748-0.114,3.359-0.114
	c0.71,0,2.383,0.114,4.142,0.114c0.291,0,0.508-0.114,0.508-0.366c0-0.187-0.14-0.293-0.43-0.293c-0.394,0-0.983-0.075-1.354-0.147
	c-0.796-0.143-0.978-0.796-1.064-1.777c-0.101-1.566-0.101-4.448-0.101-7.978v-6.403c0-5.538,0-6.555,0.05-7.722
	c0.05-1.276,0.268-1.898,0.983-2.072c0.313-0.077,0.533-0.117,0.798-0.117c0.263,0,0.43-0.075,0.43-0.357
	c0-0.226-0.22-0.299-0.567-0.299c-1.013,0-2.578,0.12-3.245,0.12c-0.762,0-2.438-0.12-3.454-0.12c-0.425,0-0.637,0.073-0.637,0.299
	c0,0.282,0.162,0.357,0.43,0.357c0.313,0,0.665,0.04,0.952,0.146c0.589,0.182,0.854,0.811,0.905,2.044
	c0.059,1.167,0.059,2.184,0.059,7.722V97.428L5.264,97.428z"/>
<path d="M19.518,90.189h0.064c0.422,0.614,3.016,4.6,5.554,8.065c2.433,3.292,5.417,7.483,6.889,9.399
	c0.26,0.354,0.54,0.704,0.791,0.704c0.218,0,0.302-0.288,0.302-0.998l0.265-20.165c0.022-1.793,0.209-2.474,0.857-2.726
	c0.291-0.1,0.472-0.1,0.704-0.1c0.285,0,0.418-0.09,0.418-0.282c0-0.252-0.234-0.291-0.536-0.291c-1.139,0-2.025,0.099-2.285,0.099
	c-0.494,0-1.614-0.099-2.826-0.099c-0.346,0-0.608,0.039-0.608,0.291c0,0.192,0.095,0.282,0.379,0.282c0.324,0,0.888,0,1.24,0.189
	c0.547,0.326,0.768,0.933,0.787,2.888l0.232,14.356h-0.115c-0.402-0.508-3.552-5.121-5.138-7.294
	c-3.407-4.637-6.959-9.847-7.233-10.263c-0.402-0.578-0.605-0.997-0.86-0.997c-0.235,0-0.308,0.452-0.308,1.095l-0.212,18.931
	c-0.022,2.778-0.117,3.702-0.72,3.96c-0.335,0.125-0.754,0.168-1.053,0.168c-0.232,0-0.375,0.058-0.375,0.251
	c0,0.291,0.215,0.318,0.517,0.318c1.212,0,2.307-0.098,2.52-0.098c0.44,0,1.374,0.098,2.896,0.098c0.329,0,0.533-0.064,0.533-0.318
	c0-0.193-0.14-0.251-0.396-0.251c-0.369,0-0.818-0.043-1.212-0.232c-0.463-0.221-0.77-1.05-0.815-3.541L19.518,90.189L19.518,90.189
	z"/>
<path d="M44.991,98.704c0,2.937,0,5.465-0.123,6.813c-0.067,0.919-0.207,1.616-0.676,1.76c-0.207,0.053-0.491,0.126-0.84,0.126
	c-0.283,0-0.366,0.094-0.366,0.251c0,0.221,0.156,0.318,0.463,0.318c0.933,0,2.407-0.098,2.938-0.098
	c0.653,0,2.128,0.098,3.664,0.098c0.263,0,0.444-0.098,0.444-0.318c0-0.157-0.115-0.251-0.372-0.251
	c-0.346,0-0.866-0.073-1.192-0.126c-0.698-0.144-0.841-0.841-0.905-1.731c-0.115-1.377-0.115-3.905-0.115-6.842V85.59l2.935,0.092
	c2.078,0.07,2.706,0.964,2.756,1.794l0.023,0.352c0.022,0.482,0.067,0.64,0.257,0.64c0.14,0,0.185-0.19,0.209-0.509
	c0-0.835,0.067-3.029,0.067-3.711c0-0.478-0.019-0.671-0.187-0.671c-0.179,0-0.748,0.319-2.239,0.319h-9.238
	c-0.771,0-1.659-0.06-2.337-0.156c-0.584-0.07-0.818-0.386-1.003-0.386c-0.14,0-0.212,0.192-0.285,0.608
	c-0.04,0.263-0.486,3.161-0.486,3.681c0,0.344,0.047,0.503,0.207,0.503c0.146,0,0.212-0.117,0.263-0.377
	c0.044-0.26,0.162-0.646,0.391-1.123c0.352-0.701,0.913-0.857,2.262-0.927l3.485-0.129V98.704L44.991,98.704z"/>
<path d="M60.009,98.704c0,2.937,0,5.465-0.114,6.813c-0.098,0.919-0.209,1.616-0.679,1.76c-0.212,0.053-0.486,0.126-0.843,0.126
	c-0.279,0-0.368,0.094-0.368,0.251c0,0.221,0.162,0.318,0.469,0.318c0.933,0,2.402-0.098,2.932-0.098
	c1.385,0,4.239,0.195,7.764,0.195c0.888,0,1.1,0,1.262-0.835c0.115-0.64,0.302-2.814,0.302-3.544c0-0.324,0-0.584-0.187-0.584
	c-0.165,0-0.209,0.138-0.254,0.483c-0.167,1.312-0.45,1.98-1.047,2.367c-0.612,0.386-2.885,0.386-3.494,0.386
	c-2.379,0-2.753-0.485-2.798-2.686c-0.022-0.928,0-3.868,0-4.954v-2.53c0-0.188,0.023-0.313,0.135-0.313
	c0.563,0,4.169,0.031,4.607,0.09c0.871,0.132,1.192,0.612,1.313,1.251c0.067,0.414,0.067,0.827,0.089,1.145
	c0,0.169,0.048,0.293,0.218,0.293c0.207,0,0.207-0.351,0.207-0.61c0-0.227,0.045-1.5,0.095-2.137
	c0.067-1.639,0.185-2.147,0.185-2.337c0-0.193-0.073-0.257-0.162-0.257c-0.117,0-0.212,0.156-0.374,0.413
	c-0.212,0.323-0.559,0.422-1.123,0.478c-0.536,0.064-4.513,0.064-5.027,0.064c-0.139,0-0.162-0.12-0.162-0.347v-8.09
	c0-0.227,0.045-0.324,0.162-0.324c0.463,0,4.211,0.069,4.608,0.129c1.165,0.195,1.402,0.577,1.566,1.148
	c0.115,0.391,0.137,0.938,0.137,1.158c0,0.284,0.045,0.443,0.212,0.443c0.162,0,0.204-0.184,0.235-0.343
	c0.044-0.386,0.089-1.799,0.117-2.111c0.067-1.475,0.184-1.854,0.184-2.081c0-0.167-0.024-0.29-0.139-0.29
	c-0.118,0-0.251,0.095-0.372,0.123c-0.193,0.07-0.567,0.128-1.008,0.194c-0.442,0.032-6.384,0.032-7.132,0.032
	c-0.648,0-2.117-0.099-3.357-0.099c-0.346,0-0.514,0.066-0.514,0.291c0,0.227,0.14,0.282,0.397,0.282c0.324,0,0.72,0.037,0.907,0.1
	c0.779,0.225,0.958,0.735,1.009,1.815c0.044,1.036,0.044,1.927,0.044,6.789V98.704L60.009,98.704z"/>
<path fill-rule="evenodd" clip-rule="evenodd" d="M77.848,98.704c0,2.937,0,5.465-0.117,6.813c-0.092,0.919-0.201,1.616-0.67,1.76
	c-0.212,0.053-0.491,0.126-0.843,0.126c-0.279,0-0.379,0.094-0.379,0.251c0,0.221,0.167,0.318,0.469,0.318
	c0.938,0,2.407-0.098,2.848-0.098c0.347,0,2.078,0.098,3.43,0.098c0.307,0,0.475-0.098,0.475-0.318c0-0.157-0.095-0.251-0.29-0.251
	c-0.28,0-0.788-0.073-1.14-0.126c-0.698-0.144-0.838-0.841-0.908-1.76c-0.123-1.349-0.123-3.877-0.123-6.841v-0.459
	c0-0.189,0.075-0.251,0.192-0.251l2.027,0.062c0.162,0,0.302,0.028,0.425,0.227c0.301,0.479,1.374,2.646,2.307,4.408
	c1.307,2.464,2.195,3.972,3.2,4.697c0.603,0.45,1.189,0.612,2.496,0.612h2.218c0.279,0,0.441-0.064,0.441-0.318
	c0-0.157-0.095-0.251-0.279-0.251c-0.19,0-0.402-0.043-0.653-0.098c-0.353-0.102-1.307-0.328-2.614-2.179
	c-1.379-1.985-2.982-4.829-5.066-8.411c2.357-2.616,3.083-4.795,3.083-7.157c0-2.136-0.935-3.771-1.589-4.375
	c-1.262-1.186-2.823-1.387-4.298-1.387c-0.72,0-2.494,0.099-3.29,0.099c-0.485,0-1.955-0.099-3.194-0.099
	c-0.352,0-0.514,0.066-0.514,0.291c0,0.227,0.14,0.282,0.391,0.282c0.335,0,0.726,0.037,0.916,0.1
	c0.771,0.225,0.955,0.735,1.005,1.815c0.044,1.036,0.044,1.927,0.044,6.789V98.704L77.848,98.704z M80.599,85.884
	c0-0.263,0.05-0.392,0.215-0.45c0.229-0.098,0.654-0.131,1.235-0.131c1.379,0,3.574,1.315,3.574,5.847
	c0,2.625-0.681,4.101-1.379,4.801c-0.418,0.417-0.721,0.548-1.659,0.548c-0.581,0-1.282-0.098-1.771-0.324
	c-0.165-0.092-0.215-0.224-0.215-0.572V85.884L80.599,85.884z"/>
<path d="M107.94,108.322c1.709,0,3.737-0.26,4.803-0.825c0.452-0.251,0.559-0.421,0.693-1.03c0.268-1.212,0.586-4.306,0.586-4.73
	c0-0.281-0.056-0.53-0.249-0.53c-0.204,0-0.26,0.143-0.338,0.719c-0.109,0.633-0.458,1.657-0.91,2.336
	c-1.064,1.643-2.508,1.995-4.879,1.995c-3.568,0-8.394-4.192-8.394-12.659c0-3.448,0.502-6.822,2.454-9.201
	c1.167-1.422,2.689-2.204,5.01-2.204c2.452,0,4.53,0.961,5.407,2.204c0.665,0.921,1.016,2.166,1.044,3.27
	c0,0.494,0.05,0.782,0.268,0.782c0.24,0,0.288-0.288,0.318-0.821c0.05-0.715,0.02-2.661,0.078-3.831
	c0.05-1.246,0.134-1.676,0.134-1.958c0-0.213-0.112-0.394-0.397-0.433c-0.801-0.104-1.659-0.425-2.675-0.598
	c-1.224-0.219-2.201-0.357-3.857-0.357c-3.974,0-6.509,1.424-8.431,3.775c-2.558,3.122-3.116,7.313-3.116,9.727
	c0,3.46,0.695,7.437,3.306,10.492C101.227,107.246,104.293,108.322,107.94,108.322L107.94,108.322z"/>
<g>
	<path d="M64.118,133.975h-1.749v-5.301H55.55v5.301h-1.749v-12.173h1.749v5.302h6.819v-5.302h1.749V133.975z"/>
	<path d="M77.271,121.641c4.016,0,6.551,2.856,6.551,6.247c0,3.285-2.463,6.248-6.586,6.248c-3.98,0-6.498-2.945-6.498-6.248
		C70.737,124.515,73.326,121.641,77.271,121.641z M77.271,132.529c2.731,0,4.748-1.981,4.748-4.642c0-2.677-2.017-4.641-4.748-4.641
		c-2.713,0-4.73,1.964-4.73,4.641C72.54,130.548,74.557,132.529,77.271,132.529z"/>
	<path d="M98.402,123.372h-4.213v10.603H92.44v-10.603h-4.212v-1.57h10.174V123.372z"/>
	<path d="M111.412,123.372h-5.159v3.677h4.98v1.57h-4.98v3.784h5.319v1.571h-7.068v-12.173h6.908V123.372z"/>
	<path d="M119.621,132.403h5.498v1.571h-7.247v-12.173h1.749V132.403z"/>
	<path d="M136.88,124.479c-1.035-0.982-2.035-1.268-2.856-1.268c-1.125,0-1.928,0.589-1.928,1.445c0,2.339,5.266,2.303,5.266,6.176
		c0,1.91-1.445,3.303-3.409,3.303c-1.321,0-2.393-0.356-3.41-1.125v-2.214c0.893,1.143,2.018,1.768,3.214,1.768
		c1.356,0,1.98-0.857,1.98-1.535c0-2.517-5.265-2.803-5.265-6.14c0-1.982,1.463-3.249,3.695-3.249c0.928,0,1.856,0.285,2.713,0.856
		V124.479z"/>
	<path d="M162.402,127.924c-0.34,0.981-1.071,2.177-1.981,3.195l2.464,2.855h-2.25l-1.392-1.66
		c-1.518,1.375-2.749,1.821-3.855,1.821c-1.66,0-3.07-1.268-3.07-2.893c0-1.463,1.178-2.604,2.873-3.588
		c-0.714-0.75-1.375-1.784-1.375-2.819c0-1.696,1.232-2.803,3.124-2.803c1.713,0,2.927,1.16,2.927,2.642
		c0,1.179-0.66,2.143-2.231,3.249l1.713,1.963c0.5-0.499,1.035-1.355,1.303-1.963H162.402z M156.19,128.816
		c-1.356,0.856-2.124,1.481-2.124,2.427c0.053,0.696,0.714,1.286,1.499,1.286c0.893,0,1.767-0.59,2.606-1.428L156.19,128.816z
		 M156.654,126.745c1.303-0.821,1.589-1.355,1.589-1.98c0-0.715-0.589-1.25-1.393-1.25c-0.75,0-1.321,0.5-1.321,1.16
		C155.53,125.425,156.137,126.246,156.654,126.745z"/>
	<path d="M181.301,121.802c2.464,0,3.999,1.303,3.999,3.409c0,1.409-0.732,2.464-2.035,2.98c1.107,0.732,1.785,1.856,2.714,3.374
		c0.518,0.838,0.82,1.25,1.66,2.409h-2.089l-1.607-2.499c-1.605-2.499-2.338-2.784-3.23-2.784h-0.732v5.283h-1.749v-12.173H181.301z
		 M179.979,127.121h1.126c1.873,0,2.409-0.965,2.392-1.982c-0.018-1.143-0.696-1.839-2.392-1.839h-1.126V127.121z"/>
	<path d="M200.345,123.372h-5.159v3.677h4.98v1.57h-4.98v3.784h5.32v1.571h-7.069v-12.173h6.908V123.372z"/>
	<path d="M212.605,124.479c-1.035-0.982-2.034-1.268-2.855-1.268c-1.125,0-1.928,0.589-1.928,1.445c0,2.339,5.265,2.303,5.265,6.176
		c0,1.91-1.445,3.303-3.409,3.303c-1.32,0-2.392-0.356-3.408-1.125v-2.214c0.892,1.143,2.017,1.768,3.213,1.768
		c1.356,0,1.98-0.857,1.98-1.535c0-2.517-5.266-2.803-5.266-6.14c0-1.982,1.464-3.249,3.695-3.249c0.928,0,1.855,0.285,2.713,0.856
		V124.479z"/>
	<path d="M225.455,121.641c4.018,0,6.552,2.856,6.552,6.247c0,3.285-2.464,6.248-6.586,6.248c-3.982,0-6.498-2.945-6.498-6.248
		C218.923,124.515,221.511,121.641,225.455,121.641z M225.455,132.529c2.73,0,4.748-1.981,4.748-4.642
		c0-2.677-2.018-4.641-4.748-4.641c-2.713,0-4.729,1.964-4.729,4.641C220.726,130.548,222.742,132.529,225.455,132.529z"/>
	<path d="M241.714,121.802c2.464,0,3.999,1.303,3.999,3.409c0,1.409-0.732,2.464-2.035,2.98c1.106,0.732,1.784,1.856,2.712,3.374
		c0.519,0.838,0.822,1.25,1.66,2.409h-2.088l-1.605-2.499c-1.607-2.499-2.34-2.784-3.23-2.784h-0.732v5.283h-1.75v-12.173H241.714z
		 M240.394,127.121h1.124c1.874,0,2.41-0.965,2.392-1.982c-0.018-1.143-0.695-1.839-2.392-1.839h-1.124V127.121z"/>
	<path d="M261.383,123.372h-4.213v10.603h-1.75v-10.603h-4.212v-1.57h10.175V123.372z"/>
	<path d="M273.268,124.479c-1.035-0.982-2.035-1.268-2.856-1.268c-1.123,0-1.928,0.589-1.928,1.445c0,2.339,5.267,2.303,5.267,6.176
		c0,1.91-1.445,3.303-3.409,3.303c-1.321,0-2.393-0.356-3.41-1.125v-2.214c0.894,1.143,2.017,1.768,3.213,1.768
		c1.356,0,1.981-0.857,1.981-1.535c0-2.517-5.265-2.803-5.265-6.14c0-1.982,1.462-3.249,3.693-3.249
		c0.929,0,1.857,0.285,2.714,0.856V124.479z"/>
</g>
<g>
	<path d="M157.455,11.32c-3.979,3.356-18.766,10.815-18.766,27.752c0,16.934,14.786,24.413,18.766,27.769
		c3.971-3.356,18.634-10.835,18.634-27.769C176.089,22.135,161.426,14.676,157.455,11.32z M157.446,64.018v1.365
		c-3.764-3.186-17.509-10.268-17.509-26.311c0-16.046,13.745-23.111,17.509-26.294v1.368c3.568,3.019,16.208,9.715,16.208,24.927
		C173.654,54.28,161.015,61.002,157.446,64.018z"/>
	<path d="M157.446,15.718c-3.351,2.827-15.001,9.102-15.007,23.354c0.005,14.248,11.656,20.547,15.007,23.371
		c3.34-2.824,14.893-9.124,14.893-23.371C172.339,24.819,160.786,18.544,157.446,15.718z M164.746,26.112
		c-2.359-0.008-4.496,2.021-4.526,5.351V46.76c0.03,3.323,2.304,5.378,4.526,5.351v0.513h-14.51v-0.513
		c2.349,0.028,4.51-2.028,4.53-5.351V31.463c-0.02-3.33-2.181-5.359-4.53-5.351v-0.52h14.51V26.112z"/>
</g>
</svg>
