<?xml version="1.0" encoding="utf-8"?>
<!-- Generator: Adobe Illustrator 15.0.2, SVG Export Plug-In . SVG Version: 6.00 Build 0)  -->
<!DOCTYPE svg PUBLIC "-//W3C//DTD SVG 1.1//EN" "http://www.w3.org/Graphics/SVG/1.1/DTD/svg11.dtd">
<svg version="1.1" id="Layer_1" xmlns="http://www.w3.org/2000/svg" xmlns:xlink="http://www.w3.org/1999/xlink" x="0px" y="0px"
	 width="175.02px" height="175.02px" viewBox="0 0 175.02 175.02" enable-background="new 0 0 175.02 175.02" xml:space="preserve">
<g display="none">
	
		<circle display="inline" fill="none" stroke="#F78F1E" stroke-width="3.4753" stroke-linecap="round" stroke-linejoin="round" stroke-miterlimit="10" cx="87.509" cy="87.51" r="85.771"/>
	<g display="inline">
		<path fill="#F78F1E" d="M75.273,109.181c-0.797,0-1.445,0.647-1.445,1.444v15.597c0,0.798,0.648,1.447,1.445,1.447h59.386
			c0.799,0,1.446-0.649,1.446-1.447v-15.597c0-0.797-0.647-1.444-1.446-1.444H75.273L75.273,109.181z"/>
		<g>
			<path fill="#F78F1E" d="M42.886,104.511c1.129,1.719,5.739,8.376,6.381,8.248c1.526-0.305,59.646-24.957,59.646-24.957
				s1.034-0.324,1.151-1.354c0.104-0.944-1.622-7.101-2.176-8.823L42.886,104.511z"/>
			<path fill="#F78F1E" d="M61.996,72.886c0,0,1.928,2.216,2.327,4.507s1.126,4.765,2.073,5.562c0.942,0.802,3.527,2.086,5.89,1.506
				c2.217-0.545,4.614-1.559,5.377-3.375c0.456-1.084,1.239-4.819-1.05-6.928c-1.817-1.673-3.056-2.292-3.383-3.891
				c-0.327-1.601-0.327-2.8-0.327-2.8s-1.856,2.913-4.873,4.289C65.521,72.902,61.996,72.886,61.996,72.886z"/>
			<path fill="#F78F1E" d="M100.101,62.136c0,0-0.669-1.505-2.177-0.895c-0.287,0.116-11.163,4.715-23.425,9.899
				c0.358,0.45,0.854,0.873,1.489,1.41c0.385,0.327,0.825,0.697,1.296,1.133c2.712,2.494,1.662,6.826,1.229,7.852
				c-0.918,2.184-3.768,3.297-5.996,3.845c-0.454,0.112-0.937,0.169-1.435,0.169l0,0c-2.211,0-4.322-1.109-5.205-1.855
				c-1.353-1.146-2.095-4.679-2.351-6.144c-0.093-0.53-0.272-1.061-0.492-1.562C50.71,81.205,39.846,85.8,39.846,85.8
				s-2.513,0.942-1.453,4.405c0.331,1.082,2.461,8.847,3.682,12.411l64.969-26.872C105.117,71.87,100.101,62.136,100.101,62.136z"/>
			<path fill="#F78F1E" d="M61.797,41.042c-2.076,0-4.287,0.396-6.394,1.149c-7.009,2.508-11.369,8.304-9.717,12.92
				c1.098,3.073,4.669,4.981,9.314,4.981c2.076,0,4.288-0.397,6.392-1.15c3.432-1.226,6.332-3.27,8.165-5.754
				c1.79-2.424,2.341-4.968,1.556-7.167C70.015,42.951,66.445,41.042,61.797,41.042z"/>
			<path fill="#F78F1E" d="M55.004,61.582c-2.627,0-4.999-0.59-6.834-1.666l5.481,9.369c0.649,0.396,4.391,2.557,8.565,2.557l0,0
				c2.069,0,4.818-0.627,6.427-1.697c5.638-3.752,6.506-9.104,6.707-9.97l-3.05-10.001c-0.902,4.117-5,8.21-10.562,10.198
				C59.527,61.166,57.199,61.582,55.004,61.582z"/>
		</g>
	</g>
</g>
<g>
	
		<circle fill="none" stroke="#F78F1E" stroke-width="3.4753" stroke-linecap="round" stroke-linejoin="round" stroke-miterlimit="10" cx="87.509" cy="87.51" r="85.772"/>
	<path id="shopping-cart-icon" fill="#F78F1E" d="M142.373,53.025l-3.334,10.468h-7.846l-15.486,49.24H56.283L34.646,63.1h77.655
		l-12.043,38.919h7.883l15.398-48.994H142.373z M97.388,117.923c-3.887,0-7.037,3.15-7.037,7.037s3.15,7.037,7.037,7.037
		s7.037-3.15,7.037-7.037S101.275,117.923,97.388,117.923z M74.127,117.923c-3.887,0-7.037,3.15-7.037,7.037s3.15,7.037,7.037,7.037
		s7.038-3.15,7.038-7.037S78.014,117.923,74.127,117.923z"/>
</g>
</svg>
