<?xml version="1.0" encoding="utf-8"?>
<!-- Generator: Adobe Illustrator 15.0.2, SVG Export Plug-In . SVG Version: 6.00 Build 0)  -->
<!DOCTYPE svg PUBLIC "-//W3C//DTD SVG 1.1//EN" "http://www.w3.org/Graphics/SVG/1.1/DTD/svg11.dtd">
<svg version="1.1" id="Layer_1" xmlns="http://www.w3.org/2000/svg" xmlns:xlink="http://www.w3.org/1999/xlink" x="0px" y="0px"
	 width="175.02px" height="175.02px" viewBox="0 0 175.02 175.02" enable-background="new 0 0 175.02 175.02" xml:space="preserve">
<g display="none">
	
		<circle display="inline" fill="none" stroke="#F78F1E" stroke-width="3.4753" stroke-linecap="round" stroke-linejoin="round" stroke-miterlimit="10" cx="87.509" cy="87.51" r="85.771"/>
	<g display="inline">
		<path fill="#F78F1E" d="M75.273,109.181c-0.797,0-1.442,0.647-1.442,1.444v15.597c0,0.798,0.646,1.447,1.442,1.447h59.389
			c0.799,0,1.443-0.649,1.443-1.447v-15.597c0-0.797-0.646-1.444-1.443-1.444H75.273L75.273,109.181z"/>
		<g>
			<path fill="#F78F1E" d="M42.886,104.511c1.129,1.719,5.739,8.376,6.381,8.248c1.526-0.305,59.646-24.957,59.646-24.957
				s1.031-0.324,1.148-1.354c0.104-0.944-1.622-7.104-2.176-8.823L42.886,104.511z"/>
			<path fill="#F78F1E" d="M61.996,72.886c0,0,1.928,2.216,2.327,4.507c0.396,2.291,1.126,4.768,2.07,5.562
				c0.942,0.802,3.527,2.086,5.893,1.506c2.217-0.545,4.611-1.562,5.377-3.375c0.456-1.084,1.236-4.819-1.053-6.928
				c-1.814-1.676-3.056-2.292-3.383-3.894c-0.327-1.601-0.327-2.8-0.327-2.8s-1.854,2.913-4.873,4.289
				C65.521,72.902,61.996,72.886,61.996,72.886z"/>
			<path fill="#F78F1E" d="M100.101,62.136c0,0-0.669-1.505-2.177-0.895c-0.287,0.113-11.163,4.715-23.425,9.896
				c0.355,0.45,0.854,0.873,1.486,1.41c0.388,0.327,0.825,0.697,1.299,1.133c2.712,2.494,1.659,6.826,1.229,7.854
				c-0.918,2.184-3.768,3.297-5.996,3.845c-0.454,0.112-0.937,0.169-1.435,0.169l0,0c-2.211,0-4.322-1.109-5.205-1.855
				c-1.354-1.146-2.095-4.679-2.354-6.144c-0.093-0.53-0.271-1.061-0.489-1.562C50.71,81.205,39.846,85.8,39.846,85.8
				s-2.513,0.942-1.453,4.405c0.331,1.082,2.461,8.847,3.685,12.411l64.969-26.872C105.117,71.87,100.101,62.136,100.101,62.136z"/>
			<path fill="#F78F1E" d="M61.797,41.042c-2.076,0-4.287,0.396-6.396,1.146c-7.009,2.511-11.366,8.307-9.717,12.92
				c1.101,3.073,4.669,4.981,9.314,4.981c2.076,0,4.288-0.397,6.392-1.15c3.435-1.226,6.332-3.27,8.165-5.754
				c1.79-2.424,2.341-4.968,1.556-7.167C70.015,42.951,66.445,41.042,61.797,41.042z"/>
			<path fill="#F78F1E" d="M55.004,61.582c-2.627,0-4.999-0.59-6.834-1.666l5.479,9.369c0.649,0.396,4.394,2.557,8.565,2.557l0,0
				c2.069,0,4.818-0.627,6.427-1.697c5.638-3.752,6.506-9.104,6.707-9.97L72.3,50.174c-0.902,4.117-5,8.21-10.562,10.198
				C59.527,61.166,57.199,61.582,55.004,61.582z"/>
		</g>
	</g>
</g>
<g display="none">
	
		<circle display="inline" fill="none" stroke="#F78F1E" stroke-width="3.4753" stroke-linecap="round" stroke-linejoin="round" stroke-miterlimit="10" cx="87.509" cy="87.51" r="85.772"/>
	<path id="shopping-cart-icon" display="inline" fill="#F78F1E" d="M142.373,53.025l-3.334,10.471h-7.849l-15.483,49.237H56.283
		L34.646,63.1h77.655l-12.043,38.919h7.883l15.398-48.994H142.373z M97.388,117.923c-3.887,0-7.037,3.15-7.037,7.037
		s3.15,7.037,7.037,7.037s7.037-3.15,7.037-7.037S101.275,117.923,97.388,117.923z M74.127,117.923c-3.887,0-7.037,3.15-7.037,7.037
		s3.15,7.037,7.037,7.037s7.038-3.15,7.038-7.037S78.014,117.923,74.127,117.923z"/>
</g>
<circle display="none" fill="none" stroke="#F78F1E" stroke-width="3.4753" stroke-linecap="round" stroke-linejoin="round" stroke-miterlimit="10" cx="87.551" cy="86.789" r="85.771"/>
<g display="none">
	<g display="inline" opacity="0.05">
		
			<image overflow="visible" enable-background="new    " width="165" height="90" xlink:href="D2580CAC.png"  transform="matrix(1 0 0 1 1.0095 80.01)">
		</image>
	</g>
	<g display="inline" opacity="0.12">
		
			<image overflow="visible" enable-background="new    " width="157" height="86" xlink:href="D2580CAD.png"  transform="matrix(1 0 0 1 6.0095 82.01)">
		</image>
	</g>
	<g display="inline">
		<path fill="#F7931E" d="M95.335,60.698c-0.604-0.118-2.042-3.271-2.19-3.234c0,0-35.224,10.267-35.698,10.836
			c-0.521,0.625-15.435,53.36-15.435,53.36L96.668,131.9L95.335,60.698z"/>
		<path fill="#F7931E" d="M110.6,59.407c0,0-0.08-0.434-0.325-0.591c-0.244-0.156-0.512-0.188-0.512-0.188l-7.714-0.574
			l-5.678-5.641c-0.212-0.165-0.462-0.263-0.719-0.312l1.016,79.798l29.615-6.408L110.6,59.407z"/>
	</g>
	<polygon display="inline" fill="#F7931E" points="96.67,131.895 128.058,132.497 140.381,125.492 126.35,125.483 	"/>
	<path display="inline" opacity="0.3" fill="#F7931E" enable-background="new    " d="M96.752,62.881
		c1.17,0.403,2.326-0.363,2.581-1.711c0.257-1.348-0.487-2.765-1.658-3.167c-1.172-0.403-2.328,0.362-2.583,1.711
		C94.837,61.061,95.58,62.481,96.752,62.881z"/>
	<path display="inline" opacity="0.62" fill="#F7931E" enable-background="new    " d="M73.401,67.419
		c-0.075,0-0.156-0.006-0.238-0.02c-0.925-0.13-1.694-0.964-1.727-1.863c-0.026-0.884-0.564-21.649,11.611-26.372
		c3.074-1.191,5.866-0.924,8.297,0.797c2.924,2.069,5.056,6.154,6.337,12.144c0.905,4.233,1.052,7.881,1.058,8.034
		c0.035,0.902-0.688,1.531-1.608,1.406c-0.925-0.125-1.7-0.957-1.735-1.858c-0.146-3.762-1.448-14.177-5.671-17.163
		c-1.353-0.957-2.989-1.041-5.004-0.261c-10.438,4.05-9.943,23.547-9.936,23.742C74.808,66.827,74.207,67.419,73.401,67.419z"/>
	<path display="inline" opacity="0.62" fill="#F7931E" enable-background="new    " d="M73.401,67.419
		c-0.075,0-0.156-0.006-0.238-0.02c-0.925-0.13-1.694-0.964-1.727-1.863c-0.026-0.884-0.564-21.649,11.611-26.372
		c3.074-1.191,5.866-0.924,8.297,0.797c2.924,2.069,5.056,6.154,6.337,12.144c0.905,4.233,1.052,7.881,1.058,8.034
		c0.035,0.902-0.688,1.531-1.608,1.406c-0.925-0.125-1.7-0.957-1.735-1.858c-0.146-3.762-1.448-14.177-5.671-17.163
		c-1.353-0.957-2.989-1.041-5.004-0.261c-10.438,4.05-9.943,23.547-9.936,23.742C74.808,66.827,74.207,67.419,73.401,67.419z"/>
	<path display="inline" opacity="0.46" fill="#F7931E" enable-background="new    " d="M90.762,40.031
		c-2.209-1.563-4.824-1.807-7.681-0.697c-4.946,1.92-8.47,7.031-10.185,14.782c-1.27,5.74-1.121,10.882-1.113,11.098
		c0.01,0.271,0.127,0.544,0.329,0.764c0.204,0.223,0.472,0.363,0.747,0.402c0.053,0.008,0.103,0.011,0.15,0.011
		c0.508,0,0.879-0.38,0.864-0.883c-0.008-0.2-0.521-20.059,10.25-24.236c2.18-0.846,4.084-0.728,5.621,0.361
		c4.485,3.176,5.849,13.874,5.992,17.729c0.021,0.562,0.509,1.084,1.088,1.162c0.581,0.077,1.023-0.326,1.005-0.879
		C97.809,59.031,97.189,44.578,90.762,40.031z"/>
	<path display="inline" opacity="0.46" fill="#F7931E" enable-background="new    " d="M72.904,65.771
		c-0.028,0-0.06-0.002-0.09-0.007c-0.347-0.048-0.637-0.362-0.646-0.698c-0.007-0.214-0.156-5.293,1.104-11.004
		c1.689-7.64,5.142-12.67,9.981-14.548c2.732-1.06,5.18-0.848,7.269,0.631c6.226,4.403,6.832,18.631,6.855,19.234
		c0.013,0.339-0.257,0.573-0.604,0.528c-0.346-0.049-0.638-0.359-0.648-0.697c-0.005-0.143-0.604-14.141-6.209-18.104
		c-1.68-1.188-3.707-1.331-6.033-0.43c-10.99,4.262-10.469,24.362-10.463,24.565C73.43,65.549,73.206,65.771,72.904,65.771z"/>
	<path display="inline" opacity="0.62" fill="#F7931E" enable-background="new    " d="M77.383,49.84
		c0.469-0.823,0.89-1.678,1.266-2.548c-0.174,0.291-1.266,3.188-4.684,2.741C73.965,50.033,75.99,50.643,77.383,49.84z"/>
	<path display="inline" opacity="0.62" fill="#F7931E" enable-background="new    " d="M76.157,53.431
		c0.354-0.892,0.654-1.808,0.912-2.736c-0.133,0.314-0.683,3.322-4.21,3.348C72.862,54.04,74.905,54.413,76.157,53.431z"/>
	<path display="inline" opacity="0.62" fill="#F7931E" enable-background="new    " d="M75.366,57.057
		c0.259-0.936,0.464-1.893,0.624-2.854c-0.1,0.331-0.173,3.381-3.789,3.788C72.201,57.99,74.238,58.171,75.366,57.057z"/>
	<path display="inline" opacity="0.62" fill="#F7931E" enable-background="new    " d="M95.656,46.274
		c-0.438-0.99-0.93-1.97-1.452-2.924c0.149,0.355,1.838,3.484-0.03,5.756C94.172,49.106,95.638,47.977,95.656,46.274z"/>
	<path display="inline" opacity="0.62" fill="#F7931E" enable-background="new    " d="M92.607,41.242
		c-0.874-0.701-1.775-1.361-2.692-1.983c0.309,0.254,3.289,2.308,3.118,5.437C93.031,44.696,93.522,42.856,92.607,41.242z"/>
	<path display="inline" opacity="0.62" fill="#F7931E" enable-background="new    " d="M97.115,51.363
		c-0.254-1.021-0.559-2.044-0.9-3.049c0.084,0.365,1.18,3.653-1.165,5.45C95.05,53.764,96.761,52.974,97.115,51.363z"/>
	<path display="inline" opacity="0.62" fill="#F7931E" enable-background="new    " d="M98.305,56.555
		c-0.123-1.023-0.301-2.052-0.52-3.071c0.038,0.366,0.726,3.691-1.886,5.144C95.902,58.625,97.738,58.073,98.305,56.555z"/>
	<path display="inline" opacity="0.62" fill="#F7931E" enable-background="new    " d="M74.817,61.141
		c0.141-0.979,0.224-1.974,0.263-2.97c-0.057,0.349-0.021,3.514-3.227,4.286C71.853,62.457,73.854,62.404,74.817,61.141z"/>
	<path display="inline" opacity="0.62" fill="#F7931E" enable-background="new    " d="M78.999,46.799
		c0.646-0.688,1.248-1.408,1.81-2.154c-0.232,0.238-2.062,2.493-5.315,1.657C75.491,46.302,77.421,47.281,78.999,46.799z"/>
	<path display="inline" opacity="0.62" fill="#F7931E" enable-background="new    " d="M81.063,44.274
		c0.777-0.542,1.52-1.127,2.223-1.742c-0.281,0.188-2.538,2.022-5.695,0.66C77.588,43.192,79.373,44.46,81.063,44.274z"/>
	<path display="inline" opacity="0.62" fill="#F7931E" enable-background="new    " d="M84.082,42.417
		c0.94-0.273,1.857-0.601,2.747-0.962c-0.339,0.092-3.149,1.128-5.94-0.998C80.889,40.457,82.324,42.113,84.082,42.417z"/>
	<path display="inline" opacity="0.62" fill="#F7931E" enable-background="new    " d="M86.783,41.419
		c0.791,0.112,1.578,0.185,2.357,0.224c-0.283-0.046-2.713-0.239-4.134-2.456C85.009,39.187,85.562,40.688,86.783,41.419z"/>
	<path display="inline" opacity="0.62" fill="#F7931E" enable-background="new    " d="M89.998,42.633
		c0.582,0.62,1.188,1.216,1.814,1.784c-0.205-0.227-2.101-2.042-1.688-4.344C90.125,40.073,89.505,41.346,89.998,42.633z"/>
	<path display="inline" opacity="0.74" fill="#F7931E" enable-background="new    " d="M96.718,59.043
		c-0.022-0.599-0.624-14.657-6.693-18.952c-1.146-0.812-2.425-1.225-3.795-1.225c-0.997,0-2.062,0.217-3.165,0.646
		c-4.761,1.846-8.16,6.814-9.83,14.37c-1.252,5.663-1.105,10.721-1.102,10.934c0.006,0.168,0.152,0.324,0.324,0.351
		c0.016,0.003,0.029,0.004,0.045,0.004c0.15,0,0.264-0.114,0.26-0.267c-0.008-0.203-0.53-20.485,10.617-24.812
		c2.416-0.938,4.574-0.771,6.341,0.479c5.765,4.079,6.365,18.246,6.372,18.391c0.006,0.169,0.15,0.324,0.324,0.349
		c0.014,0.002,0.026,0.003,0.043,0.003C96.612,59.311,96.725,59.195,96.718,59.043z"/>
	<g display="inline">
		<path fill="#F7931E" d="M97.681,52.105c-1.281-5.987-3.413-10.072-6.337-12.144c-1.586-1.122-3.324-1.623-5.195-1.507
			c1.481,0.093,2.875,0.593,4.165,1.507c2.923,2.069,5.058,6.154,6.336,12.144c0.906,4.233,1.054,7.881,1.061,8.034
			c0.021,0.646-0.339,1.147-0.883,1.339c0.099,0.03,0.197,0.056,0.303,0.067c0.923,0.125,1.646-0.504,1.608-1.406
			C98.733,59.986,98.586,56.338,97.681,52.105z"/>
	</g>
	<path display="inline" fill="#F7931E" d="M83.689,42.263c-10.438,4.05-9.941,23.547-9.938,23.742
		c0.02,0.641-0.341,1.141-0.882,1.33c0.095,0.029,0.19,0.054,0.291,0.064c0.082,0.014,0.163,0.02,0.238,0.02
		c0.809,0,1.407-0.592,1.384-1.414c-0.01-0.195-0.505-19.692,9.936-23.742c0.704-0.271,1.362-0.438,1.979-0.499
		C85.799,41.666,84.801,41.832,83.689,42.263z"/>
	<path display="inline" fill="#F7931E" d="M73.401,67.419c-0.075,0-0.156-0.006-0.238-0.02c-0.925-0.13-1.694-0.964-1.727-1.863
		c-0.026-0.884-0.564-21.649,11.611-26.372c3.074-1.191,5.866-0.924,8.297,0.797c2.924,2.069,5.056,6.154,6.337,12.144
		c0.905,4.233,1.052,7.881,1.058,8.034c0.035,0.902-0.688,1.531-1.608,1.406c-0.925-0.125-1.7-0.957-1.735-1.858
		c-0.146-3.762-1.448-14.177-5.671-17.163c-1.353-0.957-2.989-1.041-5.004-0.261c-10.438,4.05-9.943,23.547-9.936,23.742
		C74.808,66.827,74.207,67.419,73.401,67.419z"/>
	<path display="inline" fill="#F7931E" d="M99.508,47.07l-47.1,14.584c0,0-2.021,0.574-2.496,1.146
		c-0.521,0.624-0.621,2.308-0.621,2.308l-7.279,56.157l54.656,10.24l4.208-84.481C100.275,46.903,99.657,47.033,99.508,47.07z"/>
	<path display="inline" fill="#F7931E" d="M115.822,54.328c0,0-0.077-0.435-0.322-0.592c-0.245-0.155-0.514-0.188-0.514-0.188
		l-7.715-0.575l-5.678-5.641c-0.212-0.165-0.462-0.261-0.717-0.312l-4.208,84.48l29.615-6.409L115.822,54.328z"/>
	<path display="inline" opacity="0.47" fill="#FFFFFF" enable-background="new    " d="M79.531,93.435
		c-0.838-1.128-1.812-2.118-2.844-2.996c-1.015-0.864-2.082-1.62-3.126-2.289c-0.745-0.466-1.392-0.914-1.938-1.354
		c-0.543-0.437-0.992-0.864-1.348-1.294c-0.352-0.427-0.607-0.856-0.773-1.296c-0.165-0.439-0.237-0.892-0.218-1.359
		c0.025-0.635,0.169-1.209,0.407-1.717c0.242-0.508,0.586-0.952,1.021-1.322c0.435-0.371,0.965-0.671,1.574-0.889
		c0.614-0.22,1.314-0.356,2.088-0.402c0.84-0.049,1.649-0.021,2.426,0.059c0.78,0.078,1.52,0.216,2.208,0.385
		c0.693,0.17,1.335,0.373,1.91,0.587c0.58,0.216,1.094,0.438,1.524,0.651l3.646-10.862c-0.543-0.277-1.199-0.531-1.96-0.747
		c-0.752-0.212-1.604-0.385-2.533-0.504c-0.921-0.118-1.919-0.183-2.979-0.177c-1.051,0.005-2.157,0.075-3.312,0.229
		c-2.488,0.325-4.734,1.014-6.699,1.995c-1.907,0.953-3.562,2.191-4.927,3.661c-1.336,1.438-2.397,3.11-3.151,4.977
		c-0.742,1.847-1.188,3.896-1.283,6.116c-0.061,1.329,0.076,2.55,0.363,3.677c0.291,1.133,0.738,2.179,1.312,3.144
		c0.575,0.973,1.274,1.87,2.068,2.697c0.802,0.841,1.696,1.61,2.648,2.321c0.775,0.566,1.431,1.104,1.979,1.619
		c0.551,0.522,0.985,1.026,1.32,1.53c0.337,0.507,0.57,1.011,0.714,1.53c0.146,0.521,0.195,1.061,0.172,1.63
		c-0.024,0.568-0.147,1.104-0.364,1.574c-0.215,0.474-0.525,0.883-0.926,1.205c-0.399,0.322-0.887,0.562-1.456,0.689
		c-0.565,0.126-1.213,0.146-1.938,0.041c-0.818-0.121-1.646-0.356-2.448-0.665c-0.794-0.305-1.563-0.678-2.286-1.081
		c-0.713-0.399-1.379-0.825-1.972-1.243c-0.587-0.413-1.102-0.813-1.521-1.173l-2.498,8.283c0.415,0.528,0.938,1.059,1.562,1.568
		c0.626,0.519,1.352,1.02,2.149,1.482c0.809,0.472,1.698,0.908,2.646,1.291c0.963,0.389,1.985,0.722,3.045,0.979
		c0.021,0.006,0.036,0.011,0.058,0.014c0.017,0.004,0.036,0.008,0.053,0.012c0.018,0.005,0.036,0.009,0.053,0.013
		c0.021,0.003,0.036,0.01,0.057,0.014c2.262,0.5,4.454,0.622,6.502,0.349c2.105-0.283,4.044-0.984,5.716-2.113
		c1.71-1.153,3.129-2.749,4.158-4.776c1.041-2.056,1.672-4.531,1.797-7.405c0.076-1.758-0.167-3.354-0.646-4.798
		C81.084,95.856,80.38,94.576,79.531,93.435z"/>
	<path display="inline" fill="#FFFFFF" d="M80.055,94.004c-0.838-1.127-1.812-2.118-2.844-2.996
		c-1.017-0.866-2.083-1.62-3.127-2.288c-0.746-0.466-1.393-0.914-1.939-1.353c-0.542-0.438-0.991-0.866-1.344-1.295
		c-0.352-0.43-0.61-0.857-0.775-1.299c-0.166-0.438-0.238-0.891-0.219-1.357c0.028-0.635,0.168-1.209,0.409-1.716
		c0.242-0.511,0.586-0.952,1.021-1.323c0.438-0.371,0.969-0.671,1.576-0.891c0.615-0.22,1.316-0.354,2.087-0.4
		c0.843-0.05,1.653-0.023,2.427,0.056c0.779,0.082,1.521,0.217,2.209,0.386c0.693,0.172,1.335,0.373,1.908,0.589
		c0.58,0.215,1.095,0.439,1.526,0.649l3.646-10.863c-0.541-0.274-1.199-0.529-1.959-0.743c-0.754-0.215-1.604-0.388-2.534-0.507
		c-0.919-0.116-1.918-0.181-2.981-0.177c-1.047,0.005-2.154,0.076-3.31,0.229c-2.489,0.324-4.735,1.014-6.698,1.995
		c-1.91,0.953-3.564,2.191-4.927,3.659c-1.336,1.439-2.4,3.113-3.152,4.979c-0.743,1.845-1.188,3.895-1.285,6.116
		c-0.057,1.329,0.075,2.55,0.365,3.678c0.29,1.132,0.738,2.176,1.309,3.14c0.575,0.976,1.278,1.871,2.07,2.699
		c0.802,0.839,1.696,1.612,2.65,2.321c0.773,0.565,1.431,1.102,1.977,1.62c0.551,0.521,0.987,1.024,1.322,1.528
		c0.338,0.509,0.571,1.013,0.714,1.532c0.144,0.521,0.196,1.06,0.171,1.628c-0.022,0.569-0.146,1.104-0.364,1.575
		c-0.216,0.472-0.525,0.882-0.927,1.206c-0.396,0.323-0.885,0.56-1.455,0.688c-0.563,0.13-1.213,0.149-1.937,0.042
		c-0.818-0.119-1.646-0.355-2.449-0.663c-0.792-0.306-1.564-0.681-2.286-1.081c-0.713-0.398-1.38-0.825-1.971-1.242
		c-0.588-0.413-1.104-0.816-1.524-1.173l-2.495,8.281c0.413,0.529,0.94,1.06,1.562,1.569c0.626,0.517,1.35,1.017,2.146,1.482
		c0.812,0.472,1.7,0.906,2.647,1.291c0.962,0.389,1.983,0.723,3.046,0.979c0.018,0.005,0.036,0.009,0.055,0.013
		c0.02,0.006,0.035,0.011,0.055,0.015c0.019,0.004,0.033,0.008,0.055,0.012c0.017,0.004,0.035,0.007,0.053,0.012
		c2.262,0.5,4.456,0.622,6.502,0.35c2.107-0.282,4.043-0.982,5.716-2.112c1.71-1.155,3.129-2.749,4.159-4.778
		c1.041-2.054,1.671-4.529,1.796-7.403c0.077-1.76-0.167-3.354-0.646-4.799C81.606,96.426,80.903,95.147,80.055,94.004z"/>
	<path display="inline" opacity="0.41" fill="#F7931E" enable-background="new    " d="M109.15,115.743l-1.879-62.771l-0.32-0.313
		l0.894,62.217c0,0-7.834,11.885-9.015,11.539c-1.731-0.506,3.375-78.479,3.375-78.479l-0.579-0.576
		c-0.22-0.18-0.48-0.279-0.747-0.333l-4.149,83.293l0,0l-0.059,1.188l1.463-1.848l0,0L109.15,115.743z"/>
	<path display="inline" fill="#F7931E" d="M87.857,50.68c-0.664,2.631-1.521,5.079-2.11,6.534c-0.367,0.901,0.039,1.734,0.907,1.858
		c0.868,0.125,1.869-0.507,2.235-1.406c0.062-0.153,1.536-3.801,2.512-8.034c0.004-0.021,0.009-0.035,0.014-0.054L87.857,50.68z"/>
	<path display="inline" fill="#F7931E" d="M62.76,58.45c-0.781,1.673-1.566,3.131-2.139,4.103c-0.494,0.838-0.213,1.721,0.627,1.971
		c0.841,0.251,1.924-0.225,2.418-1.062c0.074-0.127,1.654-2.821,3.121-6.257L62.76,58.45z"/>
	<polygon display="inline" opacity="0.32" fill="#F7931E" enable-background="new    " points="96.686,131.504 109.145,115.744 
		126.331,125.096 	"/>
	<polygon display="inline" opacity="0.19" fill="#F7931E" enable-background="new    " points="96.668,131.51 108.99,115.749 
		126.331,125.096 	"/>
	<polygon display="inline" opacity="0.19" fill="#F7931E" enable-background="new    " points="96.668,131.51 108.99,115.749 
		126.331,125.096 	"/>
	<path display="inline" fill="#F7931E" d="M115.528,53.768c0.265,0.229,0.294,0.573,0.294,0.573l10.355,70.755l-17.027-9.353
		l-1.879-62.77l7.61,0.567C114.881,53.543,115.265,53.54,115.528,53.768z"/>
	<path display="inline" fill="#F7931E" d="M114.279,53.922c0,0,0.354,0.027,0.616,0.256c0.265,0.229,0.324,0.543,0.324,0.543
		l10.188,69.952l0.77,0.423l-10.355-70.755c0,0-0.029-0.345-0.294-0.573c-0.263-0.228-0.646-0.225-0.646-0.225l-7.61-0.567
		L114.279,53.922z"/>
	
		<ellipse transform="matrix(0.3435 -0.9391 0.9391 0.3435 -18.7262 99.7828)" display="inline" opacity="0.3" fill="#F7931E" enable-background="new    " cx="62.01" cy="63.286" rx="2.597" ry="2.12"/>
	
		<ellipse transform="matrix(0.3437 -0.9391 0.9391 0.3437 -18.155 99.3587)" display="inline" opacity="0.89" fill="#F7931E" enable-background="new    " cx="62.005" cy="62.668" rx="2.597" ry="2.12"/>
	<path display="inline" fill="#F7931E" d="M107.271,52.972l-5.646-5.614c-0.22-0.18-0.48-0.279-0.747-0.333l-4.208,84.48
		l12.479-15.762L107.271,52.972z"/>
	<path display="inline" fill="#F7931E" d="M99.508,47.073l-47.1,14.584c0,0-2.021,0.572-2.496,1.144
		c-0.035,0.042-0.068,0.091-0.103,0.141l47.502-13.134c0.39-0.088,1.356-0.452,1.209,2.3l-2.88,79.207l1.025,0.191l4.208-84.48
		C100.275,46.906,99.657,47.035,99.508,47.073z"/>
	<path display="inline" fill="#F7931E" d="M99.508,47.073l-47.1,14.584c0,0-2.021,0.572-2.496,1.144
		c-0.035,0.042-0.068,0.091-0.103,0.141L60.816,59.9l37.826-11.713c0.148-0.035,0.766-0.166,1.367-0.047l-4.146,83.216l0.806,0.15
		l4.208-84.48C100.275,46.906,99.657,47.035,99.508,47.073z"/>
	<path display="inline" opacity="0.32" fill="#F7931E" enable-background="new    " d="M111.649,117.115l-2.504-1.369l-12.477,15.76
		l0.689-0.149c0,0,11.015-14.146,12.01-14.607C110.032,116.437,111.649,117.115,111.649,117.115z"/>
	<path display="inline" opacity="0.57" fill="#F7931E" enable-background="new    " d="M96.668,131.505l12.477-15.761
		C109.145,115.744,101.222,124.357,96.668,131.505z"/>
	<path display="inline" opacity="0.46" fill="#F7931E" enable-background="new    " d="M126.331,125.096l-17.188-9.352
		C109.145,115.744,111.107,116.075,126.331,125.096z"/>
	
		<ellipse transform="matrix(0.3433 -0.9392 0.9392 0.3433 3.0351 119.4637)" display="inline" opacity="0.3" fill="#F7931E" enable-background="new    " cx="86.951" cy="57.561" rx="2.597" ry="2.121"/>
	
		<ellipse transform="matrix(0.3435 -0.9391 0.9391 0.3435 3.6064 119.0317)" display="inline" opacity="0.89" fill="#F7931E" enable-background="new    " cx="86.944" cy="56.936" rx="2.597" ry="2.122"/>
	<path display="inline" fill="#F7931E" d="M61.903,64.534c-0.077,0-0.155-0.008-0.236-0.02c-0.9-0.13-1.525-0.965-1.396-1.865
		c0.127-0.881,3.252-21.646,16.265-26.372c3.281-1.191,6.026-0.925,8.155,0.798c2.56,2.068,3.971,6.153,4.194,12.144
		c0.159,4.234-0.338,7.882-0.358,8.035c-0.126,0.901-0.959,1.532-1.857,1.406c-0.902-0.124-1.532-0.956-1.407-1.858
		c0.518-3.762,1.052-14.177-2.646-17.163c-1.184-0.956-2.807-1.041-4.958-0.261c-11.151,4.05-14.096,23.547-14.122,23.743
		C63.413,63.943,62.708,64.534,61.903,64.534z"/>
	<path display="inline" opacity="0.46" fill="#F7931E" enable-background="new    " d="M84.093,37.145
		c-1.935-1.562-4.508-1.805-7.558-0.694c-5.286,1.919-9.708,7.028-12.789,14.779c-2.283,5.742-3.041,10.882-3.072,11.099
		c-0.039,0.271,0.03,0.544,0.195,0.765s0.403,0.363,0.676,0.402c0.05,0.007,0.1,0.011,0.147,0.011c0.511,0,0.946-0.38,1.021-0.883
		c0.028-0.201,3.017-20.062,14.522-24.235c2.328-0.846,4.213-0.729,5.56,0.361c3.927,3.174,3.399,13.873,2.868,17.728
		c-0.078,0.562,0.313,1.084,0.879,1.162c0.566,0.076,1.084-0.328,1.162-0.881C87.79,56.145,89.717,41.693,84.093,37.145z"/>
	<path display="inline" opacity="0.81" fill="#F7931E" enable-background="new    " d="M61.695,62.886
		c-0.026,0-0.059-0.002-0.089-0.007c-0.338-0.048-0.57-0.361-0.522-0.7c0.028-0.213,0.776-5.291,3.048-11.003
		c3.037-7.639,7.375-12.669,12.547-14.547c2.921-1.062,5.329-0.849,7.156,0.63c5.445,4.404,3.548,18.632,3.465,19.235
		c-0.048,0.339-0.359,0.572-0.697,0.525c-0.338-0.046-0.574-0.356-0.527-0.694c0.021-0.144,1.891-14.141-3.018-18.105
		c-1.467-1.187-3.472-1.331-5.957-0.428c-11.739,4.261-14.762,24.359-14.792,24.562C62.262,62.663,61.997,62.886,61.695,62.886z"/>
	<path display="inline" opacity="0.42" fill="#F7931E" enable-background="new    " d="M68.984,46.955
		c0.614-0.823,1.188-1.68,1.716-2.548c-0.225,0.29-1.827,3.187-5.166,2.74C65.531,47.15,67.449,47.758,68.984,46.955z"/>
	<path display="inline" opacity="0.42" fill="#F7931E" enable-background="new    " d="M67.126,50.545
		c0.511-0.893,0.974-1.81,1.396-2.735c-0.188,0.315-1.27,3.322-4.799,3.347C63.723,51.156,65.699,51.529,67.126,50.545z"/>
	<path display="inline" opacity="0.42" fill="#F7931E" enable-background="new    " d="M65.696,54.173
		c0.424-0.938,0.799-1.893,1.13-2.856c-0.157,0.331-0.771,3.384-4.458,3.788C62.365,55.105,64.369,55.287,65.696,54.173z"/>
	<path display="inline" opacity="0.62" fill="#F7931E" enable-background="new    " d="M87.887,43.389
		c-0.267-0.992-0.583-1.97-0.938-2.924c0.089,0.354,1.225,3.483-1.047,5.756C85.903,46.221,87.567,45.092,87.887,43.389z"/>
	<path display="inline" opacity="0.62" fill="#F7931E" enable-background="new    " d="M85.723,38.359
		c-0.75-0.699-1.536-1.36-2.344-1.982c0.265,0.254,2.883,2.308,2.16,5.436C85.539,41.81,86.354,39.971,85.723,38.359z"/>
	<path display="inline" opacity="0.62" fill="#F7931E" enable-background="new    " d="M88.447,48.479
		c-0.067-1.023-0.192-2.045-0.359-3.05c0.019,0.366,0.536,3.653-2.126,5.449C85.959,50.878,87.809,50.088,88.447,48.479z"/>
	<path display="inline" opacity="0.62" fill="#F7931E" enable-background="new    " d="M88.722,53.67
		c0.058-1.025,0.062-2.053,0.022-3.07c-0.028,0.365,0.071,3.691-2.792,5.143C85.952,55.74,87.887,55.188,88.722,53.67z"/>
	<path display="inline" opacity="0.42" fill="#F7931E" enable-background="new    " d="M64.425,58.256
		c0.311-0.979,0.571-1.974,0.784-2.97c-0.116,0.347-0.639,3.514-3.98,4.286C61.229,59.573,63.24,59.519,64.425,58.256z"/>
	<path display="inline" opacity="0.42" fill="#F7931E" enable-background="new    " d="M71.137,43.913
		c0.767-0.686,1.496-1.407,2.188-2.154c-0.277,0.24-2.505,2.494-5.609,1.657C67.716,43.416,69.474,44.395,71.137,43.913z"/>
	<path display="inline" opacity="0.42" fill="#F7931E" enable-background="new    " d="M73.645,41.388
		c0.875-0.541,1.717-1.126,2.529-1.743c-0.315,0.188-2.896,2.024-5.812,0.662C70.362,40.307,71.924,41.574,73.645,41.388z"/>
	<path display="inline" opacity="0.62" fill="#F7931E" enable-background="new    " d="M76.991,39.532
		c0.989-0.273,1.966-0.601,2.917-0.963c-0.354,0.093-3.35,1.128-5.766-1C74.145,37.573,75.287,39.228,76.991,39.532z"/>
	<path display="inline" opacity="0.62" fill="#F7931E" enable-background="new    " d="M79.869,38.535
		c0.771,0.109,1.547,0.184,2.317,0.223c-0.272-0.046-2.671-0.24-3.7-2.456C78.489,36.302,78.777,37.802,79.869,38.535z"/>
	<path display="inline" opacity="0.62" fill="#F7931E" enable-background="new    " d="M82.869,39.749
		c0.474,0.619,0.977,1.214,1.5,1.782c-0.164-0.226-1.738-2.042-0.921-4.345C83.448,37.189,82.604,38.46,82.869,39.749z"/>
	<path display="inline" fill="#F7931E" d="M86.696,56.158c0.084-0.599,1.96-14.658-3.352-18.952
		c-1.004-0.813-2.209-1.227-3.579-1.227c-0.997,0-2.099,0.219-3.277,0.646c-5.088,1.848-9.36,6.814-12.364,14.37
		c-2.251,5.664-2.997,10.723-3.027,10.934c-0.024,0.169,0.094,0.326,0.262,0.353c0.019,0.002,0.03,0.003,0.046,0.003
		c0.151,0,0.282-0.114,0.306-0.267c0.027-0.206,3.084-20.487,14.993-24.812c2.581-0.938,4.71-0.771,6.257,0.479
		c5.045,4.079,3.146,18.246,3.129,18.391c-0.023,0.168,0.094,0.322,0.264,0.348c0.015,0.001,0.027,0.002,0.041,0.002
		C86.543,56.424,86.675,56.311,86.696,56.158z"/>
	<g display="inline">
		<path fill="#F7931E" d="M88.882,49.219c-0.226-5.988-1.637-10.073-4.194-12.144c-1.389-1.121-3.04-1.622-4.93-1.509
			c1.464,0.096,2.77,0.597,3.898,1.509c2.559,2.068,3.971,6.153,4.192,12.144c0.159,4.234-0.337,7.882-0.355,8.035
			c-0.092,0.644-0.54,1.146-1.118,1.338c0.093,0.031,0.188,0.055,0.289,0.068c0.898,0.126,1.731-0.505,1.857-1.406
			C88.544,57.101,89.041,53.453,88.882,49.219z"/>
	</g>
	<path display="inline" fill="#F7931E" d="M76.625,39.378c-11.152,4.05-14.098,23.547-14.124,23.743
		c-0.092,0.64-0.542,1.139-1.117,1.329c0.091,0.027,0.184,0.053,0.28,0.064c0.081,0.012,0.159,0.02,0.236,0.02
		c0.808,0,1.513-0.594,1.629-1.413c0.028-0.196,2.973-19.693,14.123-23.743c0.756-0.273,1.441-0.438,2.067-0.499
		C78.841,38.781,77.815,38.948,76.625,39.378z"/>
	<g display="inline" opacity="0.45">
		<path fill="#F7931E" d="M61.734,62.223c-0.565-0.207-0.972-0.685-1.164-1.283c-0.188,0.96-0.28,1.575-0.302,1.712
			c-0.129,0.9,0.496,1.735,1.396,1.865c0.081,0.012,0.159,0.02,0.236,0.02c0.808,0,1.513-0.594,1.629-1.413
			c0.007-0.03,0.08-0.531,0.247-1.37C63.184,62.269,62.42,62.475,61.734,62.223z"/>
		<path fill="#F7931E" d="M86.496,55.99c-0.471-0.173-0.825-0.527-1.044-0.983c-0.062,0.692-0.127,1.303-0.195,1.797
			c-0.125,0.902,0.505,1.734,1.407,1.858c0.898,0.126,1.731-0.505,1.857-1.406c0.01-0.066,0.106-0.782,0.201-1.914
			C88.11,55.986,87.257,56.267,86.496,55.99z"/>
	</g>
</g>
<circle display="none" fill="none" stroke="#F78F1E" stroke-width="3.4753" stroke-linecap="round" stroke-linejoin="round" stroke-miterlimit="10" cx="87.03" cy="86.837" r="85.771"/>
<path id="note-31-icon" display="none" fill="#F78F1E" d="M82.851,76.826c5.528-24.074,33.061-28.991,33.061-28.991v-8.099
	l16.42,16.394l-16.42,16.393v-8.099C115.91,64.424,94.621,64.225,82.851,76.826z M116.338,81.789c0,8.98,0,17.648,0,20.454
	c0,12.996-16.046,7.789-16.046,7.789s4.912,15.667-7.206,15.667c-6.603,0-9.896,0-34.263,0V57.342H85.35
	c2.646-3.042,5.775-5.8,9.361-8.236H50.587v84.83h42.624c14.035,0,31.363-18.339,31.363-30.98V73.567
	C120.777,77.356,123.033,75.104,116.338,81.789z M107.555,101.14h-39.95v-6.178h39.95V101.14L107.555,101.14z M107.548,87.67H67.605
	v-6.177h39.943V87.67z"/>
<circle display="none" fill="none" stroke="#F78F1E" stroke-width="3.4753" stroke-linecap="round" stroke-linejoin="round" stroke-miterlimit="10" cx="87.951" cy="87" r="85.771"/>
<path id="email-11-icon" display="none" fill="#F78F1E" d="M112.968,62.267c-0.636,2.122-2.548,8.6-3.077,10.935l-6.371,23.566
	c-0.316,1.167-0.424,2.229-0.424,3.186c0,1.697,0.955,2.652,2.76,2.652c2.019,0,4.564-1.062,6.688-2.76
	c5.202-4.034,8.6-11.89,8.6-20.063c0-9.768-4.564-18.26-12.209-23.036c-4.775-2.866-11.465-4.458-19.002-4.458
	c-22.398,0-38.111,14.861-38.111,35.882c0,20.382,14.119,33.758,35.457,33.758c5.521,0,11.358-0.849,16.242-2.335
	c4.141-1.274,6.794-2.548,11.891-5.627l6.476,9.343c-5.732,3.397-8.279,4.671-13.271,6.156c-7.219,2.229-14.861,3.396-22.506,3.396
	c-14.969,0-26.646-4.245-35.032-12.633c-7.961-7.854-12.313-19.107-12.313-31.424c0-13.164,4.459-24.521,12.951-33.121
	c9.767-9.767,22.612-14.544,39.066-14.544c24.734,0,42.357,15.924,42.357,38.11c0,9.979-3.608,19.109-10.086,25.585
	c-5.521,5.521-12.739,8.706-19.851,8.706c-4.142,0-7.538-1.593-9.13-4.142c-0.531-0.85-0.639-1.381-0.955-3.292
	c-4.035,4.672-8.281,6.689-14.228,6.689c-10.51,0-17.197-7.856-17.197-19.959c0-17.941,11.784-32.804,25.902-32.804
	c5.945,0,8.918,1.486,11.784,5.945l1.062-3.716L112.968,62.267L112.968,62.267z M91.1,93.795c2.548-4.99,4.246-11.465,4.246-16.35
	c0-4.353-2.441-7.324-6.156-7.324c-4.035,0-7.75,2.653-10.403,7.644c-2.55,4.777-4.246,11.04-4.246,15.923
	c0,5.627,2.122,8.601,6.155,8.601C84.624,102.287,88.34,99.209,91.1,93.795z"/>
<circle display="none" fill="none" stroke="#F78F1E" stroke-width="3.4753" stroke-linecap="round" stroke-linejoin="round" stroke-miterlimit="10" cx="87.03" cy="86.855" r="85.771"/>
<path id="cloud-17-icon" display="none" fill="#F78F1E" d="M125.402,74.752c-2.104-26.496-36.992-35.228-51.253-12.538
	c-9.25-5.229-21.046,0.923-21.785,11.733c-10.141,1.24-17.995,9.877-17.995,20.354c0,11.329,9.184,20.514,20.514,20.514h64.296
	c11.329,0,20.514-9.185,20.514-20.514C139.691,85.143,133.688,77.389,125.402,74.752z M68.034,86.811h4.697
	C72.87,77.54,80.453,70.04,89.754,70.04c4.042,0,7.96,1.443,11.036,4.066l0.21,0.18l-4.173,4.173l-0.179-0.142
	c-1.982-1.565-4.366-2.394-6.896-2.394c-6.059,0-11.001,4.861-11.138,10.887h4.785l-7.688,7.688L68.034,86.811z M106.584,86.737
	c-0.138,9.272-7.721,16.771-17.023,16.771c-4.043,0-7.963-1.445-11.041-4.071l-0.21-0.18l4.173-4.172l0.179,0.142
	c1.984,1.568,4.372,2.397,6.899,2.397c6.06,0,11.002-4.861,11.14-10.889h-4.786l7.688-7.686l7.681,7.686L106.584,86.737
	L106.584,86.737z"/>
<circle display="none" fill="none" stroke="#F78F1E" stroke-width="3.4753" stroke-linecap="round" stroke-linejoin="round" stroke-miterlimit="10" cx="87.713" cy="87.332" r="85.771"/>
<path id="clipboard-5-icon" display="none" fill="#F78F1E" d="M114.026,48.302c-2.034,0-3.987-0.806-5.432-2.24l-4.873-4.85H71.705
	l-4.874,4.85c-1.443,1.436-3.396,2.24-5.433,2.24H48.197v85.152h79.032V48.302H114.026z M118.161,124.386H57.04V57.221h13.956
	l5.578,5.596h22.669l5.652-5.596h13.266V124.386z M64.624,81.257l2.015-1.863c2.357,1.142,3.854,2.009,6.502,3.897
	c4.98-5.652,8.271-8.521,14.39-12.327l0.656,1.509c-5.046,4.402-8.74,9.306-14.062,18.848
	C70.845,87.456,68.655,84.992,64.624,81.257z M64.624,105.213l2.015-1.864c2.357,1.142,3.854,2.01,6.502,3.897
	c4.98-5.652,8.271-8.521,14.39-12.325l0.656,1.508c-5.046,4.402-8.74,9.307-14.062,18.848
	C70.845,111.412,68.655,108.948,64.624,105.213z M110.456,79.384H94.784v-4.477h15.672V79.384z M110.456,83.303H94.784v4.479h15.672
	V83.303z M110.456,105.505H94.784v-4.479h15.672V105.505z M110.456,109.423H94.784v4.479h15.672V109.423z"/>
<g>
	
		<circle fill="none" stroke="#F78F1E" stroke-width="3.4753" stroke-linecap="round" stroke-linejoin="round" stroke-miterlimit="10" cx="87.393" cy="86.99" r="85.771"/>
	<g>
		<path fill="#F78F1E" d="M60.089,103.334c1.533,0,2.903-0.254,4.11-0.762c1.206-0.507,2.228-1.234,3.062-2.182
			c0.834-0.947,1.472-2.104,1.911-3.468c0.439-1.365,0.66-2.915,0.66-4.652V63.073h11.436v29.198c0,3.022-0.49,5.797-1.472,8.323
			s-2.386,4.702-4.213,6.529c-1.826,1.827-4.049,3.248-6.665,4.264c-2.616,1.015-5.561,1.522-8.83,1.522
			c-3.294,0-6.248-0.508-8.864-1.522c-2.617-1.016-4.839-2.437-6.666-4.264c-1.826-1.827-3.226-4.003-4.195-6.529
			s-1.454-5.301-1.454-8.323V63.073h11.436v29.164c0,1.737,0.22,3.288,0.659,4.652c0.44,1.365,1.077,2.526,1.912,3.484
			c0.834,0.959,1.854,1.692,3.062,2.199C57.185,103.08,58.555,103.334,60.089,103.334z"/>
		<path fill="#F78F1E" d="M104.241,87.027L88.983,63.073h11.436c0.744,0,1.291,0.096,1.642,0.287
			c0.349,0.192,0.659,0.514,0.93,0.964l9.812,16.612c0.112-0.292,0.242-0.574,0.389-0.846c0.146-0.271,0.31-0.552,0.49-0.846
			l8.594-14.751c0.563-0.947,1.331-1.421,2.301-1.421h10.962l-15.462,23.446l15.801,25.849h-11.436c-0.745,0-1.349-0.18-1.811-0.541
			c-0.463-0.36-0.829-0.789-1.1-1.286l-9.879-17.255c-0.182,0.496-0.384,0.925-0.609,1.286l-9.203,15.969
			c-0.271,0.474-0.631,0.896-1.082,1.27c-0.452,0.372-1.016,0.558-1.692,0.558H88.373L104.241,87.027z"/>
	</g>
</g>
</svg>
