<?xml version="1.0" encoding="utf-8"?>
<!-- Generator: Adobe Illustrator 16.0.0, SVG Export Plug-In . SVG Version: 6.00 Build 0)  -->
<!DOCTYPE svg PUBLIC "-//W3C//DTD SVG 1.1//EN" "http://www.w3.org/Graphics/SVG/1.1/DTD/svg11.dtd">
<svg version="1.1" id="Layer_1" xmlns="http://www.w3.org/2000/svg" xmlns:xlink="http://www.w3.org/1999/xlink" x="0px" y="0px"
	 width="221.041px" height="46.08px" viewBox="0 0 221.041 46.08" enable-background="new 0 0 221.041 46.08" xml:space="preserve">
<g>
	<g>
		<path fill="#6D6F71" d="M3.646,30.704c-1.121,0-2.013-0.351-2.73-1.067l0.648-0.647c0.472,0.472,0.98,0.875,2.083,0.875
			c1.785,0,2.766-1.139,2.766-3.134v-8.594h0.945v8.786C7.356,29.199,5.904,30.704,3.646,30.704z"/>
		<path fill="#6D6F71" d="M24.317,30.599l-1.085-3.028H17.42l-1.085,3.028H15.32l4.585-12.463h0.84l4.586,12.463H24.317z
			 M20.326,19.396l-2.608,7.334h5.216L20.326,19.396z"/>
		<path fill="#6D6F71" d="M40.998,30.599l-2.976-5.741h-3.431v5.741h-0.945V18.136h4.744c2.03,0,3.57,1.172,3.57,3.344
			c0,1.855-1.12,3.063-2.871,3.359l3.011,5.76H40.998z M38.267,18.977h-3.676v5.04h3.676c1.592,0,2.748-0.805,2.748-2.521
			C41.015,19.782,39.859,18.977,38.267,18.977z"/>
		<path fill="#6D6F71" d="M108,30.704c-1.173,0-2.293-0.455-3.116-1.277c-1.138-1.138-1.155-2.24-1.155-5.059
			s0.017-3.921,1.155-5.06c0.823-0.821,1.943-1.277,3.116-1.277c1.487,0,2.52,0.612,3.518,1.559l-0.631,0.63
			c-0.857-0.841-1.591-1.348-2.887-1.348c-0.893,0-1.75,0.332-2.363,0.963c-0.893,0.893-0.963,1.854-0.963,4.533
			c0,2.678,0.07,3.641,0.963,4.533c0.613,0.629,1.47,0.963,2.363,0.963c1.296,0,2.03-0.508,2.887-1.349l0.631,0.631
			C110.52,30.09,109.487,30.704,108,30.704z"/>
		<path fill="#6D6F71" d="M128.128,30.599l-2.976-5.741h-3.431v5.741h-0.945V18.136h4.744c2.03,0,3.569,1.172,3.569,3.344
			c0,1.855-1.119,3.063-2.87,3.359l3.011,5.76H128.128z M125.398,18.977h-3.676v5.04h3.676c1.593,0,2.748-0.805,2.748-2.521
			C128.146,19.782,126.991,18.977,125.398,18.977z"/>
		<path fill="#6D6F71" d="M138.403,30.599V18.136h7.562v0.841h-6.616v4.917h5.636v0.841h-5.636v5.023h6.616v0.841H138.403z"/>
		<path fill="#6D6F71" d="M162.331,30.599l-1.085-3.028h-5.811l-1.087,3.028h-1.014l4.585-12.463h0.841l4.585,12.463H162.331z
			 M158.339,19.396l-2.607,7.334h5.216L158.339,19.396z"/>
		<path fill="#6D6F71" d="M173.864,18.977v11.622h-0.945V18.977h-3.711v-0.841h8.384v0.841H173.864z"/>
		<path fill="#6D6F71" d="M186.168,30.599V18.136h0.946v12.463H186.168z"/>
		<path fill="#6D6F71" d="M200.241,30.599h-0.806l-4.096-12.463h0.999l3.501,10.8l3.499-10.8h0.999L200.241,30.599z"/>
		<path fill="#6D6F71" d="M212.564,30.599V18.136h7.562v0.841h-6.616v4.917h5.636v0.841h-5.636v5.023h6.616v0.841H212.564z"/>
	</g>
	<g>
		<g>
			<path fill="#F78E1E" d="M83.993,12.4l-0.003,0.005c-0.362-0.363-0.859-0.584-1.411-0.584c-1.104,0-1.999,0.895-1.999,2
				c0,0.551,0.224,1.051,0.589,1.41c4.306,4.316,4.306,11.302-0.003,15.616c-4.312,4.312-11.304,4.312-15.614,0
				c-4.313-4.314-4.313-11.305,0-15.616l-0.003-0.002c0.361-0.36,0.583-0.859,0.583-1.408c0-1.105-0.894-2-1.997-2
				c-0.55,0-1.048,0.221-1.411,0.584L62.719,12.4c-5.874,5.875-5.874,15.401,0,21.277c5.876,5.873,15.402,5.873,21.273,0
				C89.87,27.801,89.87,18.275,83.993,12.4z"/>
		</g>
		<g>
			<path fill="#6D6F71" d="M73.357,4.03L73.357,4.03H73.34c-1.094,0-1.981,0.887-1.981,1.981c0,1.094,0.887,1.983,1.981,1.983h0.018
				v0.003c8.307,0,15.042,6.732,15.042,15.043c0,8.309-6.734,15.042-15.042,15.042c-8.311,0-15.043-6.733-15.043-15.042h-0.001
				c-0.008-1.086-0.891-1.968-1.98-1.968c-1.091,0-1.976,0.882-1.982,1.968h-0.002c0,10.496,8.507,19.01,19.009,19.01
				c10.495,0,19.01-8.514,19.01-19.01C92.367,12.543,83.853,4.03,73.357,4.03z"/>
		</g>
		<g>
			<path fill="#BBBCBE" d="M89.374,7.022c-8.82-8.826-23.12-8.845-31.971-0.063c-0.377,0.335-0.615,0.82-0.615,1.359
				c0,1.006,0.813,1.818,1.826,1.818c0.509,0,0.969-0.207,1.299-0.541l0.002,0.002c7.423-7.425,19.459-7.425,26.884,0
				c7.423,7.422,7.423,19.458,0,26.887c-7.424,7.42-19.46,7.42-26.884,0l0,0c-0.329-0.335-0.787-0.54-1.294-0.54
				c-1.004,0-1.818,0.815-1.818,1.821c0,0.504,0.207,0.961,0.537,1.29l-0.001,0.002c8.847,8.847,23.19,8.847,32.035,0
				C98.222,30.21,98.222,15.868,89.374,7.022z"/>
		</g>
	</g>
</g>
</svg>
