<?xml version="1.0" encoding="utf-8"?>
<!-- Generator: Adobe Illustrator 15.0.2, SVG Export Plug-In . SVG Version: 6.00 Build 0)  -->
<!DOCTYPE svg PUBLIC "-//W3C//DTD SVG 1.1//EN" "http://www.w3.org/Graphics/SVG/1.1/DTD/svg11.dtd">
<svg version="1.1" id="Layer_1" xmlns="http://www.w3.org/2000/svg" xmlns:xlink="http://www.w3.org/1999/xlink" x="0px" y="0px"
	 width="335.92px" height="138.236px" viewBox="0 0 335.92 138.236" enable-background="new 0 0 335.92 138.236"
	 xml:space="preserve">
<g>
	<path fill="#231F20" d="M158.25,55.494c1.563,0.846,3.744,1.498,6.251,1.498c1.92,0,3.745-0.391,3.745-2.214
		c0-4.232-10.745-1.563-10.745-9.833c0-5.47,5.34-6.968,9.898-6.968c2.182,0,4.331,0.326,5.861,0.847l-0.391,4.688
		c-1.562-0.716-3.32-1.042-5.047-1.042c-1.53,0-4.07,0.13-4.07,2.116c0,3.68,10.745,1.205,10.745,9.41
		c0,5.894-4.948,7.489-9.996,7.489c-2.117,0-4.754-0.325-6.772-0.977L158.25,55.494z"/>
	<path fill="#231F20" d="M191.069,48.983c-1.074-0.651-2.148-0.944-3.548-0.944c-2.54,0-4.494,1.758-4.494,4.688
		c0,2.702,2.279,4.46,4.818,4.46c1.335,0,2.671-0.292,3.647-0.814l0.13,4.363c-1.465,0.489-3.224,0.749-4.786,0.749
		c-5.6,0-9.865-3.256-9.865-8.856c0-5.632,4.266-8.889,9.865-8.889c1.758,0,3.321,0.293,4.656,0.944L191.069,48.983z"/>
	<path fill="#231F20" d="M194.065,36.675h5.861v9.963h0.064c1.271-1.758,3.125-2.898,5.666-2.898c4.624,0,6.479,3.256,6.479,6.773
		v10.581h-5.86V52.89c0-3.191-1.107-4.266-2.703-4.266c-2.409,0-3.646,1.661-3.646,5.307v7.163h-5.861V36.675z"/>
	<path fill="#231F20" d="M233.854,61.094h-5.34v-3.126h-0.066c-1.172,2.442-3.516,3.517-6.186,3.517
		c-4.623,0-6.479-3.256-6.479-6.772V44.132h5.86v8.205c0,3.191,1.106,4.265,2.702,4.265c2.409,0,3.647-1.66,3.647-5.307v-7.163h5.86
		V61.094z"/>
	<path fill="#231F20" d="M238.185,36.675h5.86v24.419h-5.86V36.675z"/>
	<path fill="#231F20" d="M254.92,41.364h-5.86v-4.298h5.86V41.364z M249.06,44.132h5.86v16.963h-5.86V44.132z"/>
	<path fill="#231F20" d="M272.535,48.983c-1.074-0.651-2.148-0.944-3.549-0.944c-2.54,0-4.494,1.758-4.494,4.688
		c0,2.702,2.28,4.46,4.819,4.46c1.336,0,2.671-0.292,3.646-0.814l0.131,4.363c-1.466,0.489-3.224,0.749-4.786,0.749
		c-5.601,0-9.865-3.256-9.865-8.856c0-5.632,4.265-8.889,9.865-8.889c1.758,0,3.32,0.293,4.655,0.944L272.535,48.983z"/>
	<path fill="#231F20" d="M275.531,36.675h5.86v9.963h0.065c1.27-1.758,3.126-2.898,5.666-2.898c4.623,0,6.479,3.256,6.479,6.773
		v10.581h-5.86V52.89c0-3.191-1.107-4.266-2.702-4.266c-2.41,0-3.647,1.661-3.647,5.307v7.163h-5.86V36.675z"/>
</g>
<g>
	<path fill="#231F20" d="M167.875,72.029c-0.886-0.383-1.873-0.604-2.858-0.604c-0.967,0-2.215,0.423-2.215,1.952
		c0,2.436,6.16,1.409,6.16,6.12c0,3.079-2.436,4.247-5.274,4.247c-1.53,0-2.214-0.201-3.603-0.544l0.261-2.536
		c0.966,0.523,2.074,0.866,3.181,0.866c1.067,0,2.496-0.544,2.496-1.812c0-2.677-6.159-1.569-6.159-6.22
		c0-3.141,2.436-4.287,4.912-4.287c1.208,0,2.335,0.16,3.361,0.503L167.875,72.029z"/>
	<path fill="#231F20" d="M177.997,75.37c-0.482-0.221-1.006-0.382-1.831-0.382c-1.671,0-2.737,1.328-2.737,3.28
		c0,1.913,0.905,3.382,2.798,3.382c0.765,0,1.61-0.282,2.073-0.482l0.121,2.233c-0.785,0.242-1.591,0.343-2.698,0.343
		c-3.401,0-5.112-2.314-5.112-5.476c0-2.999,1.771-5.374,5.012-5.374c1.087,0,1.872,0.121,2.617,0.342L177.997,75.37z"/>
	<path fill="#231F20" d="M180.21,68.405h2.697v6.14h0.041c0.684-1.007,1.852-1.65,3.261-1.65c2.455,0,3.522,1.73,3.522,4.066v6.542
		h-2.697v-5.536c0-1.269-0.02-2.979-1.751-2.979c-1.953,0-2.376,2.113-2.376,3.441v5.073h-2.697V68.405z"/>
	<path fill="#231F20" d="M197.257,72.894c3.08,0,5.435,2.073,5.435,5.495c0,2.979-1.992,5.354-5.435,5.354
		c-3.422,0-5.415-2.376-5.415-5.354C191.842,74.968,194.197,72.894,197.257,72.894z M197.257,81.65c2.074,0,2.617-1.851,2.617-3.583
		c0-1.59-0.846-3.079-2.617-3.079c-1.751,0-2.596,1.529-2.596,3.079C194.661,79.778,195.204,81.65,197.257,81.65z"/>
	<path fill="#231F20" d="M209.553,72.894c3.081,0,5.436,2.073,5.436,5.495c0,2.979-1.992,5.354-5.436,5.354
		c-3.421,0-5.414-2.376-5.414-5.354C204.139,74.968,206.494,72.894,209.553,72.894z M209.553,81.65c2.074,0,2.617-1.851,2.617-3.583
		c0-1.59-0.845-3.079-2.617-3.079c-1.751,0-2.597,1.529-2.597,3.079C206.956,79.778,207.501,81.65,209.553,81.65z"/>
	<path fill="#231F20" d="M217.16,68.405h2.697v15.098h-2.697V68.405z"/>
	<path fill="#231F20" d="M233.04,72.894c3.079,0,5.435,2.073,5.435,5.495c0,2.979-1.992,5.354-5.435,5.354
		c-3.423,0-5.416-2.376-5.416-5.354C227.624,74.968,229.98,72.894,233.04,72.894z M233.04,81.65c2.073,0,2.616-1.851,2.616-3.583
		c0-1.59-0.846-3.079-2.616-3.079c-1.752,0-2.598,1.529-2.598,3.079C230.442,79.778,230.986,81.65,233.04,81.65z"/>
	<path fill="#231F20" d="M241.571,75.108h-1.992v-1.973h1.992v-1.449c0-2.073,1.169-3.523,3.302-3.523
		c0.685,0,1.449,0.101,1.973,0.222l-0.221,2.235c-0.242-0.141-0.584-0.363-1.168-0.363c-0.905,0-1.188,0.785-1.188,1.591v1.288
		h2.355v1.973h-2.355v8.395h-2.698V75.108z"/>
	<path fill="#231F20" d="M254.25,69.453h4.913c1.811,0,4.529,0.522,4.529,3.603c0,1.67-1.128,2.839-2.799,3.14v0.041
		c1.912,0.181,3.221,1.469,3.221,3.2c0,3.543-3.181,4.066-4.951,4.066h-4.913V69.453z M257.068,75.129h1.147
		c1.188,0,2.657-0.262,2.657-1.711c0-1.631-1.43-1.751-2.718-1.751h-1.087V75.129z M257.068,81.288h1.329
		c1.309,0,2.898-0.322,2.898-1.952c0-1.832-1.489-2.113-2.898-2.113h-1.329V81.288z"/>
	<path fill="#231F20" d="M275.827,83.503h-2.557v-1.41h-0.04c-0.825,1.008-1.993,1.651-3.402,1.651
		c-2.456,0-3.522-1.731-3.522-4.066v-6.542h2.697v5.536c0,1.268,0.021,2.979,1.751,2.979c1.953,0,2.376-2.113,2.376-3.441v-5.073
		h2.697V83.503z"/>
	<path fill="#231F20" d="M284.762,75.309c-0.825-0.281-1.429-0.442-2.416-0.442c-0.725,0-1.589,0.262-1.589,1.147
		c0,1.65,4.689,0.604,4.689,4.348c0,2.416-2.154,3.382-4.348,3.382c-1.027,0-2.074-0.181-3.061-0.443l0.161-2.213
		c0.846,0.422,1.731,0.684,2.657,0.684c0.685,0,1.772-0.262,1.772-1.268c0-2.033-4.691-0.645-4.691-4.389
		c0-2.234,1.953-3.221,4.066-3.221c1.269,0,2.093,0.201,2.939,0.382L284.762,75.309z"/>
	<path fill="#231F20" d="M287.598,68.667h2.696v2.576h-2.696V68.667z M287.598,73.135h2.696v10.367h-2.696V73.135z"/>
	<path fill="#231F20" d="M293.133,73.135h2.556v1.409h0.041c0.846-1.188,1.992-1.65,3.401-1.65c2.456,0,3.522,1.73,3.522,4.066
		v6.542h-2.697v-5.536c0-1.269-0.02-2.979-1.751-2.979c-1.953,0-2.375,2.113-2.375,3.441v5.073h-2.697V73.135z"/>
	<path fill="#231F20" d="M313.742,82.919c-0.986,0.544-2.113,0.825-3.563,0.825c-3.421,0-5.414-1.973-5.414-5.374
		c0-3,1.59-5.476,4.811-5.476c3.845,0,4.933,2.637,4.933,6.261h-7.167c0.121,1.67,1.289,2.616,2.96,2.616
		c1.308,0,2.435-0.483,3.441-1.047V82.919z M311.931,77.302c-0.081-1.308-0.684-2.436-2.194-2.436c-1.51,0-2.274,1.047-2.396,2.436
		H311.931z"/>
	<path fill="#231F20" d="M322.778,75.309c-0.825-0.281-1.43-0.442-2.416-0.442c-0.725,0-1.59,0.262-1.59,1.147
		c0,1.65,4.69,0.604,4.69,4.348c0,2.416-2.154,3.382-4.348,3.382c-1.027,0-2.074-0.181-3.061-0.443l0.161-2.213
		c0.846,0.422,1.731,0.684,2.656,0.684c0.686,0,1.773-0.262,1.773-1.268c0-2.033-4.691-0.645-4.691-4.389
		c0-2.234,1.953-3.221,4.066-3.221c1.269,0,2.093,0.201,2.938,0.382L322.778,75.309z"/>
	<path fill="#231F20" d="M331.714,75.309c-0.826-0.281-1.43-0.442-2.416-0.442c-0.725,0-1.59,0.262-1.59,1.147
		c0,1.65,4.689,0.604,4.689,4.348c0,2.416-2.154,3.382-4.348,3.382c-1.027,0-2.074-0.181-3.061-0.443l0.161-2.213
		c0.846,0.422,1.731,0.684,2.657,0.684c0.686,0,1.771-0.262,1.771-1.268c0-2.033-4.689-0.645-4.689-4.389
		c0-2.234,1.953-3.221,4.065-3.221c1.269,0,2.094,0.201,2.939,0.382L331.714,75.309z"/>
</g>
<g>
	<path fill="#231F20" d="M165.237,101.346l-4.904-7.293h2.102l3.736,5.622l3.647-5.622h2.101l-4.885,7.293v5.245h-1.796V101.346z"/>
	<path fill="#231F20" d="M175.855,97.216c2.784,0,4.651,2.012,4.651,4.796c0,2.622-1.903,4.796-4.651,4.796
		c-2.767,0-4.671-2.174-4.671-4.796C171.185,99.227,173.053,97.216,175.855,97.216z M175.855,105.441
		c1.976,0,2.855-1.796,2.855-3.43c0-1.743-1.06-3.431-2.855-3.431c-1.814,0-2.875,1.688-2.875,3.431
		C172.98,103.645,173.861,105.441,175.855,105.441z"/>
	<path fill="#231F20" d="M182.771,97.431h1.581v1.419h0.035c0.449-0.953,1.419-1.635,2.39-1.635c0.503,0,0.754,0.053,1.113,0.125
		v1.51c-0.306-0.126-0.646-0.162-0.935-0.162c-1.508,0-2.496,1.437-2.496,3.736v4.167h-1.688V97.431z"/>
	<path fill="#231F20" d="M189.759,93.12h1.689v8.029l3.682-3.718h2.299l-4.257,4.06l4.796,5.101h-2.425l-4.095-4.706v4.706h-1.689
		V93.12z"/>
	<path fill="#231F20" d="M214.656,101.401c0,3.521-1.778,5.406-4.868,5.406s-4.868-1.886-4.868-5.406v-7.348h1.797v7.113
		c0,2.407,0.754,4.06,3.071,4.06s3.071-1.652,3.071-4.06v-7.113h1.797V101.401z"/>
	<path fill="#231F20" d="M217.71,97.431h1.635v1.454h0.035c0.504-1.042,1.726-1.67,3-1.67c2.371,0,3.432,1.473,3.432,3.934v5.442
		h-1.688v-4.742c0-2.137-0.468-3.179-1.94-3.269c-1.923,0-2.784,1.544-2.784,3.771v4.239h-1.688V97.431z"/>
	<path fill="#231F20" d="M230.696,95.383h-1.903v-1.903h1.903V95.383z M228.9,97.431h1.688v9.16H228.9V97.431z"/>
	<path fill="#231F20" d="M237.739,106.592h-2.013l-3.287-9.16h1.851l2.479,7.472h0.036l2.533-7.472h1.688L237.739,106.592z"/>
	<path fill="#231F20" d="M249.684,106.215c-0.646,0.233-1.383,0.593-2.892,0.593c-3.251,0-4.741-1.977-4.741-4.958
		c0-2.712,1.706-4.634,4.292-4.634c3.054,0,4.042,2.228,4.042,5.173h-6.539c0,1.814,1.42,3.053,3.019,3.053
		c1.113,0,2.407-0.574,2.819-0.915V106.215z M248.588,101.131c0-1.401-0.825-2.55-2.281-2.55c-1.652,0-2.335,1.364-2.461,2.55
		H248.588z"/>
	<path fill="#231F20" d="M252.648,97.431h1.581v1.419h0.036c0.449-0.953,1.418-1.635,2.389-1.635c0.503,0,0.755,0.053,1.113,0.125
		v1.51c-0.306-0.126-0.646-0.162-0.935-0.162c-1.508,0-2.496,1.437-2.496,3.736v4.167h-1.688V97.431z"/>
	<path fill="#231F20" d="M258.954,104.795c0.664,0.432,1.615,0.646,2.101,0.646c0.772,0,1.725-0.322,1.725-1.311
		c0-1.671-3.97-1.526-3.97-4.096c0-1.904,1.418-2.819,3.232-2.819c0.791,0,1.438,0.161,2.103,0.358l-0.144,1.473
		c-0.378-0.232-1.384-0.466-1.779-0.466c-0.861,0-1.616,0.358-1.616,1.113c0,1.868,3.97,1.329,3.97,4.257
		c0,1.958-1.562,2.856-3.197,2.856c-0.861,0-1.742-0.09-2.515-0.503L258.954,104.795z"/>
	<path fill="#231F20" d="M268.636,95.383h-1.905v-1.903h1.905V95.383z M266.839,97.431h1.688v9.16h-1.688V97.431z"/>
	<path fill="#231F20" d="M276.485,98.796h-2.426v5.012c0,1.06,0.647,1.634,1.42,1.634c0.521,0,0.897-0.161,1.149-0.322v1.437
		c-0.377,0.108-0.898,0.252-1.437,0.252c-1.742,0-2.82-0.826-2.82-2.659v-5.353h-2.065v-1.364h2.065V95.31l1.688-0.538v2.659h2.426
		V98.796z"/>
	<path fill="#231F20" d="M277.923,109.07c0.216,0.071,0.502,0.144,0.79,0.144c1.509,0,2.012-2.084,2.012-2.264
		c0-0.196-0.215-0.664-0.323-0.969l-3.107-8.55h1.85l2.462,7.58h0.035l2.516-7.58h1.706l-3.377,9.358
		c-0.629,1.76-1.294,3.789-3.521,3.789c-0.54,0-0.845-0.072-1.149-0.125L277.923,109.07z"/>
</g>
<g>
	<path fill="#231F20" d="M25.204,85.258c18.877,23.599,40.385,29.382,62.078,32.292c3.917-11.335-0.271-21.213-8.607-26.974
		c-12.719-8.785-19.308-7.916-33.467-16.632C14.833,53.131,23.005,23.53,23.005,23.53S3.27,36.635,3.27,73.944
		c0,47.791,45.017,61.052,59.355,61.052c16.032,0,21.738-10.375,21.738-10.375l21.121,2.512v-4.938
		C96.262,122.598,47.448,122.858,25.204,85.258z"/>
	<path fill="#231F20" d="M113.205,52.281c-18.877-23.592-40.386-29.382-62.078-32.29c-3.914,11.339,0.271,21.211,8.608,26.974
		c12.722,8.786,19.307,7.92,33.467,16.63c30.373,20.812,22.201,50.414,22.201,50.414s19.735-13.104,19.735-50.414
		c0-47.792-45.017-61.049-59.352-61.049c-16.036,0-21.741,10.373-21.741,10.373l-21.119-2.506v4.934
		C42.145,14.944,90.96,14.684,113.205,52.281z"/>
</g>
</svg>
